<?xml version="1.0" encoding="utf-8"?>
<!-- Generator: Adobe Illustrator 16.0.0, SVG Export Plug-In . SVG Version: 6.00 Build 0)  -->
<!DOCTYPE svg PUBLIC "-//W3C//DTD SVG 1.1//EN" "http://www.w3.org/Graphics/SVG/1.1/DTD/svg11.dtd">
<svg version="1.1" id="Layer_1" xmlns="http://www.w3.org/2000/svg" xmlns:xlink="http://www.w3.org/1999/xlink" x="0px" y="0px"
	 width="79.998px" height="79.998px" viewBox="0 0 79.998 79.998" enable-background="new 0 0 79.998 79.998" xml:space="preserve">
<path fill="#B3B3B3" d="M0,39.999C0,17.908,17.908,0,39.999,0s39.999,17.908,39.999,39.999S62.09,79.998,39.999,79.998
	S0,62.09,0,39.999"/>
<circle fill="none" stroke="#010101" stroke-miterlimit="10" cx="39.999" cy="39.999" r="36.999"/>
<path fill="#010101" d="M32.901,56.99l-12.9-12.993c-0.571-0.565-0.571-1.485,0-2.056l3.082-3.088c0.573-0.569,1.49-0.569,2.063,0
	l8.795,8.868l18.503-18.501c0.565-0.57,1.485-0.57,2.055,0l3.083,3.083c0.572,0.57,0.572,1.49,0,2.058L34.956,56.986
	c-0.565,0.565-1.485,0.565-2.055,0V56.99z"/>
</svg>
