<?xml version="1.0" encoding="utf-8"?>
<!-- Generator: Adobe Illustrator 19.1.0, SVG Export Plug-In . SVG Version: 6.00 Build 0)  -->
<svg version="1.1" id="Layer_1" xmlns="http://www.w3.org/2000/svg" xmlns:xlink="http://www.w3.org/1999/xlink" x="0px" y="0px"
	 viewBox="0 0 94 16" style="enable-background:new 0 0 94 16;" xml:space="preserve">
<style type="text/css">
	.st0{fill:#231F20;}
</style>
<g>
	<g>
		<g>
			<g>
				<rect x="0" y="4.7" class="st0" width="19.5" height="2"/>
				<rect x="0" y="8.7" class="st0" width="19.5" height="2"/>
				<path class="st0" d="M0,2h1.8v12H0v2h6.1v-2H4.2V2h1.9V0H0V2z M19.5,2V0h-6.1v2h1.9v12h-1.9v2h6.1v-2h-1.8V2H19.5z"/>
			</g>
			<path class="st0" d="M30.7,8.7L25.9,2h-2V0h6.6v2h-2L32,6.9L35.2,2h-2V0h6.4v2h-2.1l-4.4,6.7V14h2.2v2h-6.7v-2h2.1V8.7z"/>
			<path class="st0" d="M46.6,2h-2V0h7.1C56,0,57,2.9,57,4.9c0,1.6-0.7,2.9-1.3,3.5c-1.1,1.1-2.6,1.4-4.9,1.4h-1.8V14H51v2h-6.5v-2
				h2V2z M50.9,7.9c2.9,0,3.6-1.4,3.6-3C54.5,3,53.5,2,51.7,2h-2.8v5.9H50.9z"/>
			<path class="st0" d="M63.1,2h-2.1V0h13.2v4.8h-2V2h-6.8v4.7h5.9v2h-5.9V14h6.8v-2.9h2V16H61.1v-2h2.1V2z"/>
			<path class="st0" d="M82.3,2h-2.2V0h7.4c3.6,0,5.1,1.7,5.1,4.2c0,2-1.1,3.5-3.3,4l2.8,5.8h2v2h-3.5L87,8.5h-2.3V14h2.1v2h-6.6v-2
				h2.2V2z M87.4,6.5c2.3,0,2.7-1.3,2.7-2.3c0-1.4-1-2.2-2.5-2.2h-2.9v4.5H87.4z"/>
		</g>
	</g>
</g>
</svg>
