<?xml version="1.0" encoding="utf-8"?>
<!-- Generator: Adobe Illustrator 16.0.0, SVG Export Plug-In . SVG Version: 6.00 Build 0)  -->
<!DOCTYPE svg PUBLIC "-//W3C//DTD SVG 1.1//EN" "http://www.w3.org/Graphics/SVG/1.1/DTD/svg11.dtd">
<svg version="1.1" id="Layer_1" xmlns="http://www.w3.org/2000/svg" xmlns:xlink="http://www.w3.org/1999/xlink" x="0px" y="0px"
	 width="82.305px" height="82.304px" viewBox="0 0 82.305 82.304" enable-background="new 0 0 82.305 82.304" xml:space="preserve">
<path fill="#B3B3B3" d="M12.049,12.048c16.065-16.064,42.143-16.064,58.207,0c16.064,16.065,16.064,42.143,0,58.207
	c-16.064,16.065-42.142,16.065-58.207,0C-4.016,54.191-4.016,28.114,12.049,12.048"/>
<line fill="none" stroke="#010101" stroke-linecap="round" stroke-linejoin="round" stroke-miterlimit="79.84" x1="41.775" y1="2.155" x2="41.775" y2="66.335"/>
<path fill="none" stroke="#010101" stroke-linecap="round" stroke-linejoin="round" stroke-miterlimit="79.84" d="M13.591,13.59
	c15.214-15.214,39.909-15.214,55.123,0c15.213,15.214,15.213,39.909,0,55.123c-15.214,15.213-39.909,15.213-55.123,0
	C-1.623,53.5-1.623,28.804,13.591,13.59z"/>
<path fill="none" stroke="#010101" stroke-linecap="round" stroke-linejoin="round" stroke-miterlimit="79.84" d="M14.218,13.064
	c17.812,6.439,35.795,6.786,53.98,0"/>
<path fill="none" stroke="#010101" stroke-linecap="round" stroke-linejoin="round" stroke-miterlimit="79.84" d="M14.218,69.381
	c17.946-6.512,35.892-6.9,53.838,0"/>
<line fill="none" stroke="#010101" stroke-linecap="round" stroke-linejoin="round" stroke-miterlimit="79.84" x1="3.805" y1="52.805" x2="78.328" y2="52.805"/>
<line fill="none" stroke="#010101" stroke-linecap="round" stroke-linejoin="round" stroke-miterlimit="79.84" x1="3.38" y1="31.302" x2="78.824" y2="31.302"/>
<line fill="none" stroke="#010101" stroke-linecap="round" stroke-linejoin="round" stroke-miterlimit="79.84" x1="41.775" y1="71.648" x2="41.775" y2="80.15"/>
<path fill="none" stroke="#010101" stroke-linecap="round" stroke-linejoin="round" stroke-miterlimit="79.84" d="M39.012,2.226
	c-11.972,26.068-14.806,52.209,0,77.711"/>
<path fill="none" stroke="#010101" stroke-linecap="round" stroke-linejoin="round" stroke-miterlimit="79.84" d="M44.75,2.368
	c12.557,28.131,13.143,54.094,0,77.568"/>
<path fill="none" stroke="#010101" stroke-linecap="round" stroke-linejoin="round" stroke-miterlimit="79.84" d="M48.93,2.934
	c27.201,23.235,31.268,51.729,0.921,76.224"/>
<path fill="none" stroke="#010101" stroke-linecap="round" stroke-linejoin="round" stroke-miterlimit="79.84" d="M34.762,2.651
	C6.71,28.507,4.017,54.364,35.399,79.724"/>
<path fill="#FFFFFF" d="M16.293,61.558v-5.11h4.627v-8.343h-4.623v-5.103h4.623v-5.08h-4.623V32.82h4.623v-6.969h-4.627v-5.104
	h15.57v5.104h-4.809v6.969h28.184v-6.969h-4.807v-5.104h15.569v5.104h-4.629v6.969h4.64v5.103h-4.64v5.08h4.64v5.103h-4.64v8.343
	h4.629v5.11H50.432v-5.11h4.807v-8.343H27.054v8.343h4.809v5.11H16.293z M55.238,37.924H27.054v5.079h28.184V37.924z"/>
<polygon fill="#FFFFFF" points="31.943,13.45 41.365,8.15 41.096,10.219 48.562,6.706 39.283,13.506 39.523,10.8 "/>
<path fill="#FFFFFF" d="M35.321,70.231v-0.282h0.256v-0.462h-0.256v-0.282h0.256v-0.281h-0.256v-0.281h0.256v-0.385h-0.256v-0.283
	h0.861v0.283h-0.266v0.385h1.558v-0.385h-0.265v-0.283h0.861v0.283h-0.256v0.385h0.256v0.281h-0.256v0.281h0.256v0.282h-0.256v0.462
	h0.256v0.282h-0.861v-0.282h0.265v-0.462h-1.558v0.462h0.266v0.282H35.321z M37.475,68.923h-1.559v0.281h1.559V68.923z
	 M39.649,69.203l-0.67-0.945h-0.275v-0.281h0.925v0.281h-0.282l0.494,0.693l0.454-0.693h-0.281v-0.281h0.898v0.281h-0.299
	l-0.626,0.945v0.743h0.308v0.282h-0.948v-0.282h0.301L39.649,69.203L39.649,69.203z M42.511,69.094c0.415,0,0.504-0.192,0.504-0.426
	c0-0.265-0.149-0.411-0.397-0.411h-0.389v0.837H42.511z M41.892,68.257h-0.282v-0.281h0.998c0.623,0,0.752,0.412,0.752,0.697
	c0,0.229-0.093,0.403-0.189,0.5c-0.155,0.156-0.367,0.192-0.688,0.192h-0.253v0.58h0.296v0.282h-0.915v-0.282h0.282V68.257z
	 M44.23,68.257h-0.292v-0.281h1.867v0.677h-0.278v-0.396h-0.959v0.671h0.836v0.281h-0.836v0.736h0.959v-0.411h0.278v0.693h-1.867
	v-0.282h0.292V68.257z M47.652,68.891c0.318,0,0.385-0.18,0.385-0.328c0-0.199-0.14-0.306-0.354-0.306h-0.411v0.634H47.652z
	 M46.933,68.257h-0.308v-0.281h1.041c0.508,0,0.715,0.246,0.715,0.587c0,0.289-0.161,0.488-0.463,0.563l0.397,0.819h0.276v0.281
	h-0.488l-0.512-1.054h-0.32v0.772h0.292v0.281h-0.938v-0.281h0.308V68.257z"/>
</svg>
