<?xml version="1.0" encoding="utf-8"?>
<!-- Generator: Adobe Illustrator 19.0.0, SVG Export Plug-In . SVG Version: 6.00 Build 0)  -->
<svg version="1.1" id="Layer_1" xmlns="http://www.w3.org/2000/svg" xmlns:xlink="http://www.w3.org/1999/xlink" x="0px" y="0px"
	 viewBox="0 0 275 111.8" style="enable-background:new 0 0 275 111.8;" xml:space="preserve">
<style type="text/css">
	.st0{fill:#231F20;}
</style>
<g id="Logo">
	<g>
		<g>
			<rect x="0" y="15.8" class="st0" width="65.3" height="6.7"/>
			<rect x="0" y="29.2" class="st0" width="65.3" height="6.7"/>
			<path class="st0" d="M0,6.7h6.1v40.2H0v6.7h20.4v-6.7h-6.3V6.7h6.3V0H0V6.7z M65.3,6.7V0H44.8v6.7h6.3v40.2h-6.3v6.7h20.4v-6.7
				h-6.1V6.7H65.3z"/>
		</g>
		<path class="st0" d="M93.5,29.2L77.6,6.7h-6.5V0.1h22v6.7h-6.7l11.7,16.5l10.8-16.5h-6.7V0.1h21.3v6.7h-7.1l-14.9,22.4v17.6h7.3
			v6.7H86.4v-6.7h7.2V29.2z"/>
		<path class="st0" d="M137.5,6.7h-6.7V0.1h23.7c14.8,0,17.9,9.8,17.9,16.5c0,5.4-2.2,9.6-4.5,11.9c-3.7,3.7-8.7,4.6-16.4,4.6h-6
			v13.8h7v6.7h-21.7v-6.7h6.7V6.7z M152.2,26.6c9.8,0,12-4.6,12-10.1c0-6.3-3.5-9.8-9.4-9.8h-9.2v19.8H152.2z"/>
		<path class="st0" d="M183.8,6.7h-6.9V0.1h44.3v16.1h-6.6V6.7h-22.8v15.9h19.8v6.7h-19.8v17.5h22.8V37h6.6v16.5h-44.3v-6.7h6.9V6.7
			z"/>
		<path class="st0" d="M235.6,6.7h-7.3V0.1H253c12,0,17,5.8,17,13.9c0,6.8-3.9,11.6-11,13.4l9.5,19.4h6.5v6.7h-11.6l-12.1-25h-7.6
			v18.3h6.9v6.7h-22.3v-6.7h7.3V6.7z M252.7,21.8c7.6,0,9.1-4.2,9.1-7.8c0-4.7-3.3-7.2-8.4-7.2h-9.8v15H252.7z"/>
	</g>
	<path d="M189.1,65.2c0.5,0,1,0,1.4,0c0.6,0.6,1.3,0.6,1.9,0c0.3,0,0.6,0,1,0c0.6,0.6,1.3,0.6,1.9,0c0.6,0,1.3,0,1.9,0
		c0.6,0.6,1.3,0.6,1.9,0c0.3,0,0.6,0,1,0c0.5,0.7,1,0.7,1.4,0c0.5,0,1,0,1.4,0c0.6,0.6,1.3,0.6,1.9,0c0.3,0,0.6,0,1,0
		c0.6,0.6,1.3,0.6,1.9,0c0.6,0,1.3,0,1.9,0c0.6,0.6,1.3,0.6,1.9,0c0.3,0,0.6,0,1,0c0.6,0.6,1.3,0.6,1.9,0c0.5,0,1,0,1.4,0
		c0.6,0.6,1.3,0.6,1.9,0c0.3,0,0.6,0,1,0c0.6,0.6,1.3,0.6,1.9,0c0.6,0,1.3,0,1.9,0c0.6,0.6,1.3,0.6,1.9,0c0.3,0,0.6,0,1,0
		c0.5,0.7,1,0.7,1.4,0c0.5,0,1,0,1.4,0c0.6,0.6,1.3,0.6,1.9,0c0.3,0,0.6,0,1,0c0.6,0.6,1.3,0.6,1.9,0c0.8,0,1.6,0,2.4,0
		c0.6,0.6,1.3,0.6,1.9,0c0.3,0,0.6,0,1,0c0.6,0.6,1.3,0.6,1.9,0c0.5,0,1,0,1.4,0c0.6,0.6,1.3,0.6,1.9,0c0.3,0,0.6,0,1,0
		c0.6,0.6,1.3,0.6,1.9,0c0.6,0,1.3,0,1.9,0c0.6,0.6,1.3,0.6,1.9,0c0.3,0,0.6,0,1,0c0.5,0.7,1,0.7,1.4,0c0.5,0,1,0,1.4,0
		c0.6,0.6,1.3,0.6,1.9,0c0.3,0,0.6,0,1,0c0.6,0.6,1.3,0.6,1.9,0c0.6,0,1.3,0,1.9,0c0.8,0.7,1.6,0.7,2.4,0c0.3,0,0.6,0,1,0
		c0.5,0.7,1,0.7,1.4,0c0.5,0,1,0,1.4,0c0.6,0.6,1.3,0.6,1.9,0c0.3,0,0.6,0,1,0c0.6,0.6,1.3,0.6,1.9,0c0.6,0,1.3,0,1.9,0
		c-0.2,0.8,1,0.2,1,1c0.1,1.7-0.3,3.3-1,4.9c-0.4,0.9-0.8,1.1-1.9,0.6c-0.5-0.2-0.9-0.4-1.3-0.1c-0.8,0.5-1.5,0.5-2.3,0
		c-0.3-0.2-0.9-0.3-1.3,0.2c-0.2,0.3-0.5,0.3-0.6,0.2c-0.9-0.8-1.6-0.6-2.5,0c-0.2,0.1-0.7,0.1-0.9,0c-1.7-0.9-3.4-0.2-5.1-0.4
		c-0.9,0.7-1.8,0.7-2.7,0c-0.2-0.1-0.6-0.2-0.9,0.1c-0.4,0.5-0.7,0.3-1.2,0c-0.7-0.4-1.4-0.2-2.1,0.3c-0.8,0.5-1.5-0.9-2.4-0.3
		c-0.8,0.5-1.5,0.5-2.3,0c-0.8-0.5-1.4,0.5-2.2,0.5c-0.8,0-1.4-1-2.2-0.5c-0.7,0.5-1.2,0.6-1.8,0c-0.3-0.2-0.8-0.2-1.1,0
		c-0.8,0.5-1.5,0.6-2.3,0c-0.2-0.2-0.7-0.2-1.1,0.1c-0.9,0.6-1.8,0.4-2.8-0.1c-0.9-0.4-1.9,0.9-2.8,0.3c-0.7-0.5-1.1-0.4-1.9,0
		c-0.6,0.4-1.3-0.7-2.1-0.4c-0.1,0-0.3,0.1-0.4,0.2c-0.6,0.5-1,0.4-1.7,0c-0.7-0.4-1.4-0.1-2.1,0.3c-0.8,0.5-1.5-0.9-2.4-0.3
		c-0.8,0.5-1.5,0.6-2.3-0.1c-0.2-0.2-0.8-0.2-1.1,0.1c-0.9,1-1.5-0.3-2.3-0.2c-0.8,0.2-1.5,0.8-2.4,0.4c-0.1-0.1-0.2-0.3-0.3-0.3
		c-0.3-0.1-0.7-0.2-0.9-0.1c-0.8,0.6-1.5,0.8-2.3,0.1c-0.9-0.7-1.5,0.6-2.4,0.3c-0.1,0-0.3-0.1-0.4-0.2c-0.6-0.5-1.3-0.4-1.9-0.1
		c-0.3,0.2-0.5,0.4-0.8,0.2c-0.8-0.6-1.5-0.5-2.3,0c-0.8,0.5-1.4-0.5-2.2-0.5c-0.8,0-1.4,1-2.2,0.5c-0.7-0.5-1.1-0.6-1.9-0.1
		c-0.4,0.3-1.2,0.3-1.6,0c-0.8-0.7-1.4-0.2-2.1,0.1c-0.8,0.3-1.4-0.9-2.2-0.4c-0.9,0.6-1.6,0.4-2.5,0c-0.9-0.4-1.8,0.7-2.9,0.4
		c-0.2-0.1-0.5-0.1-0.6-0.3c-0.3-0.4-0.9-0.3-1.1-0.2c-0.7,0.5-1.3,0.7-2.1,0c-0.3-0.2-1.1-0.3-1.6,0.1c-0.8,0.9-1.3-0.5-2.1-0.2
		c-0.7,0.2-1.3,1-2.1,0.4c-0.8-0.5-1.5-0.6-2.3,0c-0.2,0.2-0.8,0.2-1.1-0.1c-0.9-1-1.6,0.1-2.3,0.2c-0.9,0.1-1.6-1-2.4-0.4
		c-0.7,0.5-1.2,0.5-1.9,0c-0.7-0.5-1.4,0.4-2.2,0.5c-0.8,0-1.4-1-2.2-0.5c-0.7,0.5-1.1,0.6-1.9,0.1c-0.4-0.3-1.2-0.3-1.6,0
		c-0.8,0.8-1.4,0.2-2.1-0.1c-0.8-0.3-1.3,0.8-2.2,0.5c-0.1,0-0.1-0.1-0.2-0.2c-0.6-0.5-1-0.4-1.7,0c-0.7,0.4-1.4,0.1-2.1-0.3
		c-0.8-0.4-1.5,1-2.4,0.3c-0.9-0.8-1.7-0.2-2.6,0.1c-0.9,0.3-1.7-0.9-2.6-0.4c-0.5,0.3-0.8,0.5-1.4,0.1c-0.4-0.3-1.2-0.3-1.7,0.1
		c-0.4,0.3-0.9,0.3-1.1,0.2c-1-0.8-1.8-0.5-2.8,0c-0.3,0.2-1,0.2-1.2,0c-0.7-0.7-1.3-0.4-2.1,0c-0.5,0.3-1.3,0-2-0.4
		c-0.7-0.4-1.5,0.9-2.1,0.4c-0.9-0.6-1.5-0.4-2.3,0c-0.3,0.2-0.9,0.3-1.3-0.1c-0.5-0.5-1-0.4-1.5-0.1c-0.8,0.6-1.5,0.3-2.3-0.2
		c-0.8-0.5-1.6,1.2-2.6,0.2c-0.4-0.5-1.3-0.4-1.5-0.1c-0.6,0.5-0.9,0.4-1.6,0c-0.7-0.4-1.4,0.2-2.2,0.4c-0.8,0.2-1.6-0.9-2.4-0.4
		c-0.6,0.3-1.2,0.3-1.7,0.5c-0.8,0.2-1.1-0.4-1.7-0.6c-0.8-0.2-1.3,0.6-2,0.5c-0.2,0-0.4,0.1-0.5,0c-0.6-0.6-1.2-0.7-1.8-0.1
		c-0.3,0.3-0.8,0.3-1.1,0c-0.7-0.6-1.2-0.5-1.9,0c-0.4,0.3-1.1,0.3-1.6-0.1c-0.6-0.5-1-0.4-1.7,0c-0.7,0.4-1.4,0.2-2.1-0.3
		c-0.8-0.5-1.5,0.9-2.4,0.3c-0.8-0.5-1.5-0.4-2.3,0c-0.6,0.2-1.5-0.6-2.4-0.3c-0.1,0-0.1,0.1-0.2,0.2c-0.9,1.1-1.7-0.3-2.6-0.2
		c-0.9,0.2-1.7,0.9-2.6,0.4c-0.1-0.1-0.2-0.3-0.3-0.3c-0.2-0.1-0.5-0.2-0.7-0.1c-1.1,0.7-2.1,0.5-3.2,0c-0.6-0.3-1.4,0.6-1.7,0.4
		c-1.1-0.7-2-0.4-3,0c-0.2,0.1-0.5,0-0.7-0.1c-0.7-0.6-1.1-0.4-1.8,0c-0.8,0.5-1.6-0.4-2.4-0.4c-0.8,0-1.6,0.8-2.4,0.4
		c-0.7-0.4-1.2-0.6-1.9,0c-0.7,0.5-1.1-0.7-1.9-0.4c-0.6,0.2-1.2,0.9-1.9,0.5c-0.1-0.1-0.2-0.2-0.4-0.3c-0.6-0.3-1.2-0.3-1.8,0
		c-0.3,0.2-0.6,0.5-0.8,0.2c-0.5-0.5-0.8-0.5-1.4-0.1c-0.6,0.4-1.4,0.1-2.2-0.3c-0.8-0.4-1.5,1-2.4,0.3c-0.6-0.5-1-0.4-1.7,0
		c-0.8,0.5-1.6,0-2.4-0.3c-0.8-0.3-1.4,1-2.3,0.2c-0.5-0.5-1.3-0.4-1.9,0c-0.5,0.3-1,0.4-1.5-0.1c-0.3-0.3-0.9-0.3-1.1-0.1
		c-0.6,0.5-1.2,0.6-1.9,0.1c-0.3-0.3-0.9-0.2-1.3,0.1c-1,0.9-1.9-0.2-2.8-0.3c-1,0-1.8,1-2.8,0.3c-0.6-0.4-1-0.4-1.7,0
		c-0.8,0.5-1.6-0.1-2.4-0.3c-0.8-0.2-1.4,1.1-2.3,0.2c-0.4-0.4-0.9-0.3-1.5,0.1c-0.5,0.4-1.2,0.4-1.8,0c-0.6-0.4-1.1-0.4-1.7,0
		c-0.8,0.7-1.5-0.5-2.4-0.4c-0.8,0.1-1.5,1.2-2.3,0.2c-0.3-0.4-0.8-0.3-1.1-0.2c-0.9,0.4-1.7,0.1-2.5,0.1c-1.2,0-2.4,0.4-3.7-0.1
		c-0.3-0.1-0.6-0.1-0.9,0.2c-0.2,0.3-0.6,0.4-0.8,0.1c-0.4-0.6-1-0.3-1.5-0.3c-1.1-0.1-1.1,0-2-1c0-1.1,0-2.2,0-3.4
		c0.3,0.1,0.5-0.1,0.5-0.4c-0.2-1,0.3-1.1,1.2-1.1c0.6,0,1.4,0.6,1.7-0.4c0.3,0,0.6,0,1,0c0.8,0.7,1.6,0.7,2.4,0c0.3,0,0.6,0,1,0
		c0.6,0.6,1.3,0.6,1.9,0c0.5,0,1,0,1.4,0c0.5,0.7,1,0.7,1.4,0c0.5,0,1,0,1.4,0c0.5,0.7,1,0.7,1.4,0c0.6,0,1.3,0,1.9,0
		c0.6,0.6,1.3,0.6,1.9,0c0.3,0,0.6,0,1,0c0.6,0.6,1.3,0.6,1.9,0c0.5,0,1,0,1.4,0c0.6,0.6,1.3,0.6,1.9,0c0.3,0,0.6,0,1,0
		c0.6,0.6,1.3,0.6,1.9,0c0.6,0,1.3,0,1.9,0c0.8,0.7,1.6,0.7,2.4,0c0.3,0,0.6,0,1,0c0.6,0.6,1.3,0.6,1.9,0c0.5,0,1,0,1.4,0
		c0.6,0.6,1.3,0.6,1.9,0c0.3,0,0.6,0,1,0c0.5,0.7,1,0.7,1.4,0c0.8,0,1.6,0,2.4,0c0.5,0.7,1,0.7,1.4,0c0.3,0,0.6,0,1,0
		c0.6,0.6,1.3,0.6,1.9,0c0.5,0,1,0,1.4,0c0.6,0.6,1.3,0.6,1.9,0c0.3,0,0.6,0,1,0c0.5,0.7,1,0.7,1.4,0c0.8,0,1.6,0,2.4,0
		c-0.1,0.3,0.1,0.4,0.4,0.5c0.3,0,0.6,0,0.6-0.5c0.3,0,0.6,0,1,0c0.5,0.7,1,0.7,1.4,0c0.5,0,1,0,1.4,0c0.6,0.6,1.3,0.6,1.9,0
		c0.3,0,0.6,0,1,0c0.6,0.6,1.3,0.6,1.9,0c0.6,0,1.3,0,1.9,0c0.6,0.6,1.3,0.6,1.9,0c0.3,0,0.6,0,1,0c0.6,0.6,1.3,0.6,1.9,0
		c0.5,0,1,0,1.4,0c0.5,0.7,1,0.7,1.4,0c0.5,0,1,0,1.4,0c0.5,0.7,1,0.7,1.4,0c0.8,0,1.6,0,2.4,0c0.8,0.7,1.6,0.7,2.4,0
		c0.3,0,0.6,0,1,0c0.5,0.7,1,0.7,1.4,0c0.5,0,1,0,1.4,0c0.6,0.6,1.3,0.6,1.9,0c0.3,0,0.6,0,1,0c0.6,0.6,1.3,0.6,1.9,0
		c0.6,0,1.3,0,1.9,0c0.6,0.6,1.3,0.6,1.9,0c0.3,0,0.6,0,1,0c0.6,0.6,1.3,0.6,1.9,0c0.5,0,1,0,1.4,0c0.6,0.6,1.3,0.6,1.9,0
		c0.3,0,0.6,0,1,0c0.5,0.7,1,0.7,1.4,0c1,0,1.9,0,2.9,0c0.8,0.7,1.6,0.7,2.4,0c0.3,0,0.6,0,1,0c0.5,0.7,1,0.7,1.4,0
		c0.6,0,1.3,0,1.9,0c0.5,0.7,1,0.7,1.4,0c0.3,0,0.6,0,1,0c0.6,0.6,1.3,0.6,1.9,0c0.6,0,1.3,0,1.9,0c0.6,0.6,1.3,0.6,1.9,0
		c0.3,0,0.6,0,1,0c0.6,0.6,1.3,0.6,1.9,0c0.5,0,1,0,1.4,0c0.6,0.6,1.3,0.6,1.9,0c0.3,0,0.6,0,1,0c0.5,0.7,1,0.7,1.4,0
		c0.8,0,1.6,0,2.4,0c0.8,0.7,1.6,0.7,2.4,0c0.3,0,0.6,0,1,0c0.5,0.7,1,0.7,1.4,0c0.6,0,1.3,0,1.9,0c0.5,0.7,1,0.7,1.4,0
		c0.3,0,0.6,0,1,0c0.6,0.6,1.3,0.6,1.9,0c0.6,0,1.3,0,1.9,0c0.6,0.6,1.3,0.6,1.9,0c0.3,0,0.6,0,1,0c0.6,0.6,1.3,0.6,1.9,0
		c0.5,0,1,0,1.4,0c0.6,0.6,1.3,0.6,1.9,0c0.3,0,0.6,0,1,0c0.6,0.6,1.3,0.6,1.9,0c0.6,0,1.3,0,1.9,0c0.5,0.7,1,0.7,1.4,0
		c0.3,0,0.6,0,1,0c0.6,0.6,1.3,0.6,1.9,0c0.5,0,1,0,1.4,0c0.6,0.6,1.3,0.6,1.9,0c0.3,0,0.6,0,1,0c0.6,0.6,1.3,0.6,1.9,0
		c0.6,0,1.3,0,1.9,0c0.6,0.6,1.3,0.6,1.9,0c0.3,0,0.6,0,1,0c0.5,0.7,1,0.7,1.4,0c0.6,0,1.3,0,1.9,0c0.5,0.7,1,0.7,1.4,0
		c0.3,0,0.6,0,1,0c0.6,0.6,1.3,0.6,1.9,0c0.8,0,1.6,0,2.4,0c0.6,0.6,1.3,0.6,1.9,0c0.3,0,0.6,0,1,0
		C187.7,65.8,188.4,65.8,189.1,65.2z"/>
	<g>
		<path class="st0" d="M9.1,107.9V87.1H3.4v7.1H0V83.7h22.5v10.5H19v-7.1h-5.7v20.8h3.6v3.5H5.6v-3.5H9.1z"/>
		<path class="st0" d="M27.2,107.9V87.1h-3.8v-3.5h11.3c2.4,0,4.2,0.2,5.6,0.5c1.4,0.4,2.5,1.1,3.4,2.3c0.9,1.2,1.4,2.6,1.4,4.4
			c0,3.7-1.9,6-5.7,6.9l4.9,10.1h3.4v3.5h-6l-6.3-13h-3.9v9.5H35v3.5H23.4v-3.5H27.2z M31.4,95h3.3c1.6,0,2.7-0.1,3.5-0.3
			c0.8-0.2,1.4-0.6,1.8-1.3c0.5-0.6,0.7-1.5,0.7-2.5c0-0.9-0.2-1.7-0.7-2.3s-1.1-1-1.8-1.2c-0.7-0.2-1.8-0.2-3.3-0.2h-3.5V95z"/>
		<path class="st0" d="M66.9,101.7h-10l-2.1,6.3h3.4v3.5H47.2v-3.5h3.4l7.6-21.1h-3.3v-3.1H69v3.1h-3.5l7.8,21.1h3.1v3.5H65.5v-3.5
			H69L66.9,101.7z M65.8,98.4l-3.7-11.6h-0.4l-3.8,11.6H65.8z"/>
		<path class="st0" d="M80.3,107.9V87.1h-3v-3.5h10.2v3.5h-3v20.8h3v3.5H77.3v-3.5H80.3z"/>
		<path class="st0" d="M93,107.9V87.1h-4v-3.5h9.5l12.2,21.5V87.1h-3.9v-3.5h11.4v3.5H114v24.5h-4.3L96.4,88v19.9h4v3.5H89v-3.5H93z
			"/>
		<path class="st0" d="M122.4,107.9V87.1h-3v-3.5h10.2v3.5h-3v20.8h3v3.5h-10.2v-3.5H122.4z"/>
		<path class="st0" d="M135.1,107.9V87.1h-4v-3.5h9.5l12.2,21.5V87.1h-3.9v-3.5h11.4v3.5h-4.1v24.5h-4.3L138.5,88v19.9h4v3.5h-11.4
			v-3.5H135.1z"/>
		<path class="st0" d="M181,98H191c0,0.4,0,0.7,0,1c0,3.9-1.3,7-3.8,9.3s-5.9,3.5-10.1,3.5c-5,0-8.7-1.4-11.2-4.3
			c-2.5-2.8-3.7-6.2-3.7-10.1c0-4.1,1.3-7.5,3.8-10.2c2.5-2.7,5.9-4,10.2-4c3.9,0,7.1,1.2,9.7,3.5v-3.1h3.5v9.1H186
			c-0.7-1.5-1.8-2.9-3.5-4.1c-1.7-1.2-3.6-1.8-5.8-1.8c-3,0-5.4,1-7.2,3.1c-1.8,2-2.6,4.5-2.6,7.4c0,3.3,1,5.9,3,7.9
			s4.4,2.9,7.2,2.9c2.2,0,4.2-0.6,5.9-1.8c1.7-1.2,2.7-2.8,3-4.8h-5V98z"/>
		<path class="st0" d="M207.4,107.9V87.1h-3.6v-3.5h11.3v3.5h-3.4v20.8h8.5v-9.4h3.9v12.9h-20.3v-3.5H207.4z"/>
		<path class="st0" d="M243.8,101.7h-10l-2.1,6.3h3.4v3.5h-10.9v-3.5h3.4l7.6-21.1h-3.3v-3.1h14.2v3.1h-3.5l7.8,21.1h3.1v3.5h-10.9
			v-3.5h3.4L243.8,101.7z M242.7,98.4l-3.7-11.6h-0.4l-3.8,11.6H242.7z"/>
		<path class="st0" d="M257.3,107.9V87.1h-3.4v-3.5h9.2c2.5,0,4.4,0.2,5.7,0.5c1.3,0.3,2.4,1.1,3.4,2.3c1,1.2,1.5,2.7,1.5,4.4
			c0,1.3-0.3,2.5-0.9,3.5c-0.6,1-1.4,1.8-2.5,2.4c1.5,0.5,2.7,1.4,3.6,2.6s1.2,2.6,1.2,4.2c0,1.4-0.3,2.6-0.9,3.7s-1.4,2-2.5,2.6
			c-1,0.6-2.1,1-3.4,1.2c-1.2,0.2-2.9,0.3-5,0.3h-9.4v-3.5H257.3z M261.5,95.2h2.6c2,0,3.4-0.3,4.2-1c0.8-0.7,1.2-1.7,1.2-3.1
			c0-2.6-1.8-3.9-5.4-3.9h-2.6V95.2z M261.5,107.9h1.6c2.1,0,3.6-0.1,4.5-0.3c1-0.2,1.7-0.7,2.3-1.5c0.6-0.8,0.9-1.7,0.9-2.9
			c0-1.1-0.3-2-0.9-2.7c-0.6-0.7-1.3-1.2-2.2-1.5s-2.2-0.4-3.9-0.4h-2.4V107.9z"/>
	</g>
</g>
</svg>
