<svg xmlns="http://www.w3.org/2000/svg" xmlns:xlink="http://www.w3.org/1999/xlink" viewBox="0 0 218 47"><defs><style>.cls-1,.cls-4{fill:none;}.cls-2,.cls-3{fill:#fff;}.cls-3{font-size:26px;font-family:Rokkitt-Bold, Rokkitt;font-weight:700;}.cls-4{stroke:#fff;stroke-miterlimit:10;stroke-width:2px;}.cls-5{clip-path:url(#clip-path);}</style><clipPath id="clip-path"><rect class="cls-1" x="13.5" y="13.7" width="20" height="20"/></clipPath></defs><title>Asset 1</title><g id="Layer_2" data-name="Layer 2"><g id="Single_Trainer_Module_-_Purchased" data-name="Single Trainer Module - Purchased"><circle class="cls-2" cx="23.5" cy="23.7" r="22.5"/><text class="cls-3" transform="translate(54.48 30.47)">PURCHASED</text><path class="cls-4" d="M23.19,1H209.5A7.5,7.5,0,0,1,217,8.5v30a7.5,7.5,0,0,1-7.5,7.5H22.64A21.64,21.64,0,0,1,1,24.36V23.19A22.19,22.19,0,0,1,23.19,1Z"/><g id="unlocked"><g class="cls-5"><g class="cls-5"><path d="M29.5,13.7a4,4,0,0,1,4,4v4H30.83v-4a1.33,1.33,0,0,0-1.33-1.33H26.83A1.33,1.33,0,0,0,25.5,17.7v4h.33a1,1,0,0,1,1,1v10a1,1,0,0,1-1,1H14.5a1,1,0,0,1-1-1v-10a1,1,0,0,1,1-1h8.33v-4a4,4,0,0,1,4-4Z"/></g></g></g></g></g></svg>