<?xml version="1.0" encoding="utf-8"?>
<!-- Generator: Adobe Illustrator 19.1.0, SVG Export Plug-In . SVG Version: 6.00 Build 0)  -->
<svg version="1.1" id="Layer_1" xmlns="http://www.w3.org/2000/svg" xmlns:xlink="http://www.w3.org/1999/xlink" x="0px" y="0px"
	 width="512px" height="512px" viewBox="156 -156 512 512" style="enable-background:new 156 -156 512 512;" xml:space="preserve">
<style type="text/css">
	.st0{fill:#FFFFFF;}
</style>
<path class="st0" d="M412-156c-141.4,0-256,114.6-256,256s114.6,256,256,256s256-114.6,256-256S553.4-156,412-156z M412,308
	c-114.9,0-208-93.1-208-208s93.1-208,208-208s208,93.1,208,208S526.9,308,412,308z M380-28h64v64h-64V-28z M476,228H348v-32h32v-96
	h-32V68h96v128h32V228z"/>
</svg>
