<svg xmlns="http://www.w3.org/2000/svg" xmlns:xlink="http://www.w3.org/1999/xlink" version="1.1" width="35.190476143171054" height="35.38095228634175" xml:space="preserve"><rect id="backgroundrect" width="100%" height="100%" x="0" y="0" fill="none" stroke="none" class=""/>

<g class="currentLayer"><title>Layer 1</title><path d="M32.976188799179,17.780782490347292 c0,-8.866084700168177 -7.113544464111328,-16.120154000305774 -15.807876586914062,-16.120154000305774 s-15.807876586914062,7.2540693001375995 -15.807876586914062,16.120154000305774 s7.113544464111328,16.120154000305774 15.807876586914062,16.120154000305774 S32.976188799179,26.646867190515454 32.976188799179,17.780782490347292 zM3.336420198715132,17.780782490347292 c0,-7.757824112647154 6.224351406097412,-14.105134750267553 13.831892013549805,-14.105134750267553 s13.831892013549805,6.3473106376203985 13.831892013549805,14.105134750267553 s-6.224351406097412,14.105134750267553 -13.831892013549805,14.105134750267553 S3.336420198715132,25.53860660299446 3.336420198715132,17.780782490347292 zM18.156304498947065,24.83334986548107 v-11.384858762715954 l3.556772232055664,3.6270346500687993 c0.39519691467285156,0.4030038500076445 0.9879922866821289,0.4030038500076445 1.3831892013549805,0 c0.39519691467285156,-0.4030038500076445 0.39519691467285156,-1.0075096250191111 0,-1.4105134750267554 l-6.026752948760986,-5.944306787612755 l-6.026752948760986,5.944306787612755 c-0.19759845733642578,0.20150192500382227 -0.29639768600463895,0.5037548125095557 -0.29639768600463895,0.7052567375133778 c0,0.3022528875057335 0.09879922866821289,0.5037548125095557 0.29639768600463895,0.7052567375133778 c0.39519691467285156,0.4030038500076445 0.9879922866821289,0.4030038500076445 1.3831892013549805,0 l3.655571460723877,-3.7277856125707105 V24.83334986548107 c0,0.604505775011467 0.39519691467285156,1.0075096250191111 0.9879922866821289,1.0075096250191111 S18.156304498947065,25.43785564049257 18.156304498947065,24.83334986548107 L18.156304498947065,24.83334986548107 z" id="svg_1" class="" fill="#089e9b" fill-opacity="1"/></g></svg>