<svg xmlns="http://www.w3.org/2000/svg" viewBox="0 0 302 47"><defs><style>.cls-1,.cls-2{fill:#fff;}.cls-2{font-size:26px;font-family:Rokkitt-Bold, Rokkitt;font-weight:700;}.cls-3{fill:none;stroke:#fff;stroke-miterlimit:10;stroke-width:2px;}</style></defs><title>Asset 1</title><g id="Layer_2" data-name="Layer 2"><g id="Single_Trainer_Module_-_Default" data-name="Single Trainer Module - Default"><circle class="cls-1" cx="23.5" cy="23.7" r="22.5"/><path d="M21.43,37.71v-3.5a10.07,10.07,0,0,1-5.3-1.52L17,30.37a9.23,9.23,0,0,0,5,1.49c2.46,0,4.12-1.42,4.12-3.39s-1.35-3.08-3.91-4.12c-3.53-1.38-5.71-3-5.71-6s2-5.05,5.23-5.57V9.29h2.15v3.36a9.23,9.23,0,0,1,4.5,1.21l-.87,2.29A8.37,8.37,0,0,0,23.09,15c-2.67,0-3.67,1.59-3.67,3,0,1.8,1.28,2.7,4.29,3.95,3.57,1.45,5.37,3.25,5.37,6.34,0,2.74-1.9,5.3-5.47,5.89v3.6Z"/><text class="cls-2" transform="translate(54.48 30.47)">PURCHASE MODULE</text><path class="cls-3" d="M23.19,1H293.5A7.5,7.5,0,0,1,301,8.5v30a7.5,7.5,0,0,1-7.5,7.5H22.64A21.64,21.64,0,0,1,1,24.36V23.19A22.19,22.19,0,0,1,23.19,1Z"/></g></g></svg>