<?xml version="1.0" standalone="no"?>
<!DOCTYPE svg PUBLIC "-//W3C//DTD SVG 1.1//EN" "http://www.w3.org/Graphics/SVG/1.1/DTD/svg11.dtd" >
<svg>
<metadata>
Created by FontForge 20120731 at Wed Sep 14 12:41:57 2016
 By ,,,
Copyright (c) 2011, Vernon Adams (vern@newtypography.co.uk), with Reserved Font Names 'Rokkitt'.
</metadata>
<defs>
<font id="Rokkitt-Bold" horiz-adv-x="0" >
  <font-face 
    font-family="Rokkitt"
    font-weight="700"
    font-stretch="normal"
    units-per-em="2048"
    panose-1="2 0 8 3 5 0 0 2 0 3"
    ascent="1638"
    descent="-410"
    x-height="849"
    cap-height="1215"
    bbox="-139 -657 1980 1673"
    underline-thickness="102"
    underline-position="-103"
    unicode-range="U+0001-FB02"
  />
<missing-glyph horiz-adv-x="748" 
 />
    <glyph glyph-name=".notdef" horiz-adv-x="748" 
 />
    <glyph glyph-name="glyph1" 
 />
    <glyph glyph-name="glyph2" 
 />
    <glyph glyph-name="uni0001" 
 />
    <glyph glyph-name="uni0002" 
 />
    <glyph glyph-name="uni0003" 
 />
    <glyph glyph-name="uni0004" 
 />
    <glyph glyph-name="uni0005" 
 />
    <glyph glyph-name="uni0006" 
 />
    <glyph glyph-name="uni0007" 
 />
    <glyph glyph-name="uni0008" 
 />
    <glyph glyph-name="uni0009" unicode="&#x9;" 
 />
    <glyph glyph-name="uni0010" 
 />
    <glyph glyph-name="uni0011" 
 />
    <glyph glyph-name="uni0012" 
 />
    <glyph glyph-name="uni0013" 
 />
    <glyph glyph-name="uni0014" 
 />
    <glyph glyph-name="uni0015" 
 />
    <glyph glyph-name="uni0016" 
 />
    <glyph glyph-name="uni0017" 
 />
    <glyph glyph-name="uni0018" 
 />
    <glyph glyph-name="uni0019" 
 />
    <glyph glyph-name="space" unicode=" " horiz-adv-x="458" 
 />
    <glyph glyph-name="exclam" unicode="!" horiz-adv-x="541" 
d="M373 1222v-316l-45 -497h-109l-49 497v316h203zM149 242h244l-20 -242h-224v242z" />
    <glyph glyph-name="quotedbl" unicode="&#x22;" horiz-adv-x="819" 
d="M643 757h-121l-50 465h216zM315 757h-122l-50 465h216z" />
    <glyph glyph-name="numbersign" unicode="#" horiz-adv-x="1245" 
d="M201 -11l56 347h-170v134h198l46 288h-231v135h259l58 346h150l-58 -346h322l59 346h151l-60 -346h179v-135h-205l-46 -288h239v-134h-266l-58 -347h-149l57 347h-325l-58 -347h-148zM434 470h324l46 288h-324z" />
    <glyph glyph-name="dollar" unicode="$" horiz-adv-x="1005" 
d="M94 0v407h171v-110q34 -57 74.5 -92.5t93.5 -52.5v395q-66 21 -128 47t-111 66t-78.5 98.5t-29.5 143.5q0 78 26 138t72.5 101.5t110 64t138.5 26.5v135h133v-149q38 -12 77.5 -32t69.5 -48v77h165v-351h-159v91q-26 42 -65 69.5t-88 38.5v-351q69 -20 136 -47.5t120 -71
t86 -107t33 -154.5q0 -81 -30 -145t-81.5 -109t-119.5 -69.5t-144 -26.5v-116h-133v131q-92 23 -167 92v-89h-172zM731 324q0 36 -12 64t-34 49.5t-52 38t-67 30.5v-361q38 6 68.5 21.5t52 39t33 53.5t11.5 65zM282 924q0 -34 11.5 -60t31.5 -46.5t47.5 -35.5t60.5 -28v312
q-73 -11 -112 -49.5t-39 -92.5z" />
    <glyph glyph-name="percent" unicode="%" horiz-adv-x="1671" 
d="M623 920q0 -81 -21 -141.5t-58 -101.5t-88 -61.5t-111 -20.5t-111 20.5t-87.5 61.5t-57.5 101.5t-21 141.5t21 141.5t57.5 101.5t87.5 61.5t111 20.5t111 -20.5t88 -61.5t58 -101.5t21 -141.5zM455 918q0 115 -30 163.5t-81 48.5q-49 0 -79 -49t-30 -159
q0 -114 30.5 -163.5t80.5 -49.5q51 0 80 52t29 157zM1255 1247l79 -57l-956 -1246l-83 56zM1605 299q0 -81 -21 -141.5t-58 -101t-88.5 -61t-111.5 -20.5t-111 20t-88 60.5t-57.5 101.5t-20.5 142q0 82 20.5 143t57.5 101.5t88 61t111 20.5t111.5 -20.5t88.5 -61.5t58 -102
t21 -142zM1436 299q0 113 -30 161.5t-81 48.5q-49 0 -79 -48.5t-30 -158.5q0 -114 30 -163.5t81 -49.5t80 52t29 158z" />
    <glyph glyph-name="ampersand" unicode="&#x26;" horiz-adv-x="1328" 
d="M1263 149v-149h-306l-95 125q-85 -72 -176 -108t-194 -36q-93 0 -171.5 28t-135.5 78t-89.5 117.5t-32.5 147.5q0 62 21.5 114.5t62.5 96.5t100.5 80t135.5 65q-54 69 -83.5 130t-29.5 126q0 58 24.5 107.5t67.5 85.5t102 56t128 20q65 0 121 -19.5t96.5 -54t63.5 -81.5
t23 -101q0 -101 -60 -178t-194 -137l238 -275q46 57 74 128t45 146h263v-147l-139 -1q-27 -80 -61.5 -142t-78.5 -112l87 -110h193zM476 595q-106 -41 -159 -98t-53 -134q0 -44 19.5 -83.5t54.5 -69.5t82.5 -47.5t104.5 -17.5q66 0 125 25t114 79zM553 779q89 42 132.5 86
t43.5 102q0 29 -10.5 52.5t-29 40t-43.5 25.5t-55 9q-61 0 -100.5 -32.5t-39.5 -90.5q0 -38 25.5 -82t76.5 -110z" />
    <glyph glyph-name="quotesingle" unicode="'" horiz-adv-x="502" 
d="M317 757h-122l-49 465h216z" />
    <glyph glyph-name="parenleft" unicode="(" horiz-adv-x="583" 
d="M79 487q0 130 35.5 234t97 184t145.5 136t180 89l2 -139q-68 -29 -122 -71.5t-91 -103.5t-56.5 -142t-19.5 -187q0 -108 20 -189.5t57 -142t90.5 -102.5t121.5 -71l-2 -140q-96 33 -180 89t-145.5 136t-97 185t-35.5 235z" />
    <glyph glyph-name="parenright" unicode=")" horiz-adv-x="583" 
d="M499 487q0 -130 -35.5 -235t-97.5 -185t-145.5 -136t-180.5 -89l-1 140q67 29 121 71t91 102.5t57 142t20 189.5q0 106 -19.5 187t-56.5 142t-91 103.5t-122 71.5l1 139q97 -33 180.5 -89.5t145.5 -136t97.5 -184t35.5 -233.5z" />
    <glyph glyph-name="asterisk" unicode="*" horiz-adv-x="986" 
d="M329 407l-134 96l91 126l166 141l-218 14l-144 51l48 157l148 -49l191 -121l-56 221v151h161v-151l-56 -221l191 121l149 49l47 -157l-143 -51l-219 -14l166 -141l90 -126l-133 -96l-92 127l-81 206l-80 -206z" />
    <glyph glyph-name="plus" unicode="+" horiz-adv-x="1156" 
d="M657 654h419v-149h-419v-408h-159v408h-418v149h418v407h159v-407z" />
    <glyph glyph-name="comma" unicode="," horiz-adv-x="500" 
d="M119 236q18 2 51 3t70 2t71.5 1h55.5q1 -14 2.5 -43.5t2.5 -63.5t1.5 -65.5t0.5 -48.5q0 -72 -12.5 -126.5t-42.5 -91.5t-79.5 -55.5t-122.5 -18.5v102q36 7 61 19t41 31.5t23 49t7 70.5h-128q0 16 -0.5 48.5t-1 68.5t-0.5 68.5v49.5z" />
    <glyph glyph-name="hyphen" unicode="-" horiz-adv-x="654" 
d="M92 506h475v-149h-475v149z" />
    <glyph glyph-name="period" unicode="." horiz-adv-x="500" 
d="M367 238v-238h-247v238h247z" />
    <glyph glyph-name="slash" unicode="/" horiz-adv-x="865" 
d="M654 1252l128 -36l-573 -1252l-129 36z" />
    <glyph glyph-name="zero" unicode="0" horiz-adv-x="1044" 
d="M521 -19q-110 0 -191.5 44t-135.5 126t-81 198t-27 259t27 258.5t81 197t135.5 125.5t191.5 44t192 -44t136.5 -125t81.5 -196.5t27 -259.5t-27 -259.5t-81.5 -197.5t-136.5 -126t-192 -44zM521 124q60 0 104.5 27.5t73.5 86.5t43 150.5t14 219.5q0 129 -14.5 220.5
t-43.5 150t-73 85.5t-104 27q-65 0 -109.5 -32.5t-72 -94t-39.5 -152t-12 -205.5q0 -116 12 -206t39.5 -151.5t72 -93.5t109.5 -32z" />
    <glyph glyph-name="one" unicode="1" horiz-adv-x="749" 
d="M648 141v-141h-532v141h173v934h-185v140h381v-1074h163z" />
    <glyph glyph-name="two" unicode="2" horiz-adv-x="996" 
d="M72 0q0 109 30 195t78 156t109 127.5t124 108.5q41 34 86.5 69.5t83.5 74.5t63 82.5t25 94.5q0 81 -47.5 128.5t-135.5 47.5q-58 0 -97.5 -17.5t-64.5 -53.5t-36.5 -91t-12.5 -130h-173q0 224 96 332.5t286 108.5q104 0 179 -28.5t123 -75t70.5 -106t22.5 -120.5
q0 -65 -22.5 -118t-60.5 -98.5t-87 -85t-102 -78t-106.5 -78t-100 -85t-82 -99.5t-52.5 -120h464v243h149v-384h-809z" />
    <glyph glyph-name="three" unicode="3" horiz-adv-x="1009" 
d="M244 364q10 -109 66.5 -170t168.5 -61q58 0 102.5 15.5t75.5 43.5t47 65.5t16 82.5q0 65 -25 107t-70 66t-108.5 33.5t-140.5 9.5v154q75 0 132 8t95.5 30t58.5 60t20 98q0 36 -12.5 68t-38 55.5t-63 37t-88.5 13.5q-52 0 -88.5 -13.5t-59.5 -37.5t-34.5 -57t-12.5 -72
l-180 1q3 76 30 137.5t75.5 105t117.5 66.5t156 23q90 0 163 -22t124 -63.5t78.5 -102t27.5 -137.5q0 -45 -13 -86.5t-39 -76.5t-64 -61.5t-89 -41.5q126 -31 189.5 -107.5t63.5 -190.5q0 -81 -31 -148t-89 -114.5t-141 -74t-186 -26.5q-92 0 -167 23.5t-129 71.5t-85 120
t-33 168h180z" />
    <glyph glyph-name="four" unicode="4" horiz-adv-x="954" 
d="M839 141v-141h-471v141h155v193h-491v164l494 717h178v-745h176v-136h-176v-193h135zM523 470v507l-332 -507h332z" />
    <glyph glyph-name="five" unicode="5" horiz-adv-x="1005" 
d="M493 -19q-186 0 -292 93t-122 265h182q19 -101 72 -155.5t155 -54.5q57 0 100.5 19t72.5 52.5t43.5 79.5t14.5 99q0 65 -16.5 113t-46.5 79.5t-70.5 47t-88.5 15.5q-59 0 -114 -24t-107 -76l-114 57v624h689v-256h-156v116h-386q-1 -15 -3.5 -44.5t-5.5 -67t-6 -78.5
t-6 -78t-5 -67l-3 -45q51 53 112 76t137 23q89 0 162 -30t124.5 -83.5t79.5 -128.5t28 -165q0 -79 -24.5 -152t-76.5 -129t-133.5 -90t-195.5 -35z" />
    <glyph glyph-name="six" unicode="6" horiz-adv-x="1005" 
d="M284 524q6 -92 21 -165t43.5 -123t71 -76.5t103.5 -26.5q51 0 90 18.5t65.5 51.5t40 78.5t13.5 99.5q0 51 -13.5 93.5t-40 73t-65 47.5t-88.5 17q-26 0 -57.5 -5.5t-64 -16.5t-63.5 -27.5t-56 -38.5zM730 914q-16 79 -63.5 126.5t-124.5 47.5q-63 0 -111.5 -29.5
t-81.5 -83.5t-50.5 -130.5t-18.5 -170.5q53 47 125.5 70t155.5 23q79 0 145 -27.5t112.5 -76.5t72.5 -117t26 -149q0 -92 -26.5 -168.5t-76.5 -131.5t-122 -85.5t-163 -30.5q-111 0 -194 41.5t-138 120t-82.5 193.5t-27.5 262q0 145 27.5 262t83.5 200t140 128t198 45
q78 0 141.5 -22.5t109 -64t72.5 -100.5t32 -132h-161z" />
    <glyph glyph-name="seven" unicode="7" horiz-adv-x="914" 
d="M661 0h-514v141h163q9 123 40.5 251t80.5 249.5t111.5 232.5t131.5 200h-440v-182h-158v323h799v-131q-75 -89 -140 -204t-113.5 -241t-77.5 -254.5t-32 -243.5h149v-141z" />
    <glyph glyph-name="eight" unicode="8" horiz-adv-x="1047" 
d="M523 -19q-111 0 -194.5 27t-139 74.5t-83 112t-27.5 139.5q0 107 57 184t175 114q-105 48 -150.5 119t-45.5 164q0 72 28.5 130.5t81 100t127.5 64.5t169 23t169 -22.5t127.5 -64t81 -100t28.5 -129.5q0 -94 -44.5 -164t-150.5 -119q118 -36 175 -114t57 -186
q0 -76 -29 -140.5t-85 -112t-138 -74t-189 -26.5zM509 560q-112 -4 -170.5 -61.5t-58.5 -154.5q0 -47 17 -86t48.5 -67.5t76.5 -44.5t101 -16q55 0 99 15.5t75.5 43.5t48.5 66.5t17 85.5q0 101 -63 158.5t-191 60.5zM521 1085q-104 0 -160 -50t-56 -137t59 -139t166 -58
q98 7 153.5 59t55.5 138q0 41 -14 75.5t-41 59t-68 38.5t-95 14z" />
    <glyph glyph-name="nine" unicode="9" horiz-adv-x="1006" 
d="M478 609q26 0 57.5 6.5t64 19.5t64 33.5t56.5 47.5q-6 87 -21 154.5t-43 114.5t-70.5 71.5t-103.5 24.5q-52 0 -91.5 -18.5t-66 -51.5t-40 -78t-13.5 -99q0 -50 14 -91.5t40.5 -71t65 -46t87.5 -16.5zM456 -19q-77 1 -139 24.5t-106.5 66.5t-70 103t-28.5 133l166 -1
q14 -82 63.5 -127.5t134.5 -45.5q114 0 180 102.5t68 314.5q-53 -51 -125.5 -76.5t-155.5 -25.5q-79 0 -144.5 27t-113 75.5t-73.5 116.5t-26 149q0 94 26.5 170.5t77 131t122.5 84.5t164 30q221 0 331 -156t110 -459q0 -148 -28.5 -266t-86 -200.5t-144 -126.5t-202.5 -44z
" />
    <glyph glyph-name="colon" unicode=":" horiz-adv-x="506" 
d="M380 323v-243h-254v243h254zM380 866v-245h-254v245h254z" />
    <glyph glyph-name="semicolon" unicode=";" horiz-adv-x="505" 
d="M383 325v-243q0 -67 -11.5 -118t-41 -85.5t-79 -52.5t-125.5 -19v103q40 3 66 14.5t41 32.5t20.5 51.5t5.5 71.5h-130v244zM380 866v-245h-254v245h254z" />
    <glyph glyph-name="less" unicode="&#x3c;" horiz-adv-x="1199" 
d="M304 599l726 -330v-164l-917 425v136l917 425v-163z" />
    <glyph glyph-name="equal" unicode="=" horiz-adv-x="1229" 
d="M163 797h902v-150h-902v150zM163 397h902v-149h-902v149z" />
    <glyph glyph-name="greater" unicode="&#x3e;" horiz-adv-x="1198" 
d="M139 928v163l916 -425v-136l-916 -425v164l725 330z" />
    <glyph glyph-name="question" unicode="?" horiz-adv-x="796" 
d="M300 340q0 86 13 147.5t34 105t47.5 73t54.5 51.5t54.5 40t47.5 39t34 49t13 69q0 42 -14 76t-38.5 58t-57 37t-69.5 13q-102 0 -152 -54.5t-50 -154.5h-173q0 96 31.5 161.5t83.5 106t119.5 58.5t138.5 18q75 0 141 -22.5t114.5 -64t76.5 -100.5t28 -132
q0 -55 -14.5 -94.5t-37.5 -69t-51 -51t-55 -39.5q-31 -21 -61.5 -45t-55.5 -60t-42 -87.5t-21 -127.5h-139zM472 209v-209h-195v209h195z" />
    <glyph glyph-name="at" unicode="@" horiz-adv-x="1418" 
d="M1189 75q-88 -68 -196 -104.5t-248 -36.5q-119 0 -216 24.5t-174 67.5t-134 102t-94.5 128.5t-56 146t-18.5 155.5q0 83 20 165.5t59.5 157.5t97 139.5t133.5 111.5t169.5 74t203.5 27q102 0 185.5 -21.5t148.5 -58.5t112 -88t77.5 -110t45.5 -124t15 -130
q0 -93 -28.5 -181t-81 -156.5t-127.5 -109.5t-168 -41q-38 0 -65.5 25t-35.5 88q-45 -61 -100 -87t-113 -26q-52 0 -100.5 21t-86 61.5t-60.5 100t-23 136.5q0 51 10 103t30.5 99.5t51.5 89.5t72 72.5t92 48.5t112 18q60 0 111 -29t83 -93l20 106h143l-102 -475
q-7 -32 -11.5 -52t-7 -31t-3 -15.5t-0.5 -5.5q0 -14 5 -23.5t19 -9.5q25 0 64 23.5t76.5 69.5t64.5 114.5t27 157.5q0 81 -29.5 156t-87.5 132.5t-143 92.5t-197 35q-117 0 -215.5 -41.5t-170 -116t-112 -177t-40.5 -225.5q0 -114 36.5 -207.5t106.5 -160t173 -103
t237 -36.5q111 0 203.5 28t166.5 86zM851 668q0 81 -45 129t-121 48q-52 0 -92 -28.5t-67 -74t-41 -101.5t-14 -111q0 -40 9.5 -77t29.5 -65t49.5 -44.5t70.5 -16.5q46 0 86 31t70 80t47.5 110t17.5 120z" />
    <glyph glyph-name="A" unicode="A" horiz-adv-x="1263" 
d="M-11 141h147l292 934h-118v140h641v-140h-118l296 -934h144v-141h-515v141h156l-78 295h-430l-80 -295h159v-141h-496v141zM795 577l-151 498h-41l-155 -498h347z" />
    <glyph glyph-name="B" unicode="B" horiz-adv-x="1155" 
d="M65 0v141h155v934h-155v140h536q103 0 182 -22t132 -63.5t80.5 -100t27.5 -131.5q0 -47 -13 -87t-36 -72.5t-55 -57t-70 -40.5q105 -33 167.5 -109t62.5 -188q0 -61 -21.5 -122t-74 -110.5t-141 -80.5t-223.5 -31h-554zM439 141h138q78 0 131 14.5t85.5 42t46.5 67
t14 89.5q0 91 -66 145t-205 54h-144v-412zM439 705h117q131 0 189 47t58 136q0 47 -14.5 82t-47 58.5t-84 35t-124.5 11.5h-94v-370z" />
    <glyph glyph-name="C" unicode="C" horiz-adv-x="1341" 
d="M698 -19q-157 1 -274.5 51t-196 135t-117.5 198t-39 241q0 139 43 254t124 198t197.5 129t263.5 46q118 0 211.5 -39t163.5 -105v126h164v-383h-155q-30 64 -69.5 110t-86.5 75.5t-100.5 43t-111.5 13.5q-95 0 -170 -35t-128 -97t-81 -147t-28 -186q0 -99 26 -184.5
t77.5 -148.5t127.5 -99t175 -36q66 0 128 17t113.5 53.5t89.5 93t58 134.5l171 -81q-34 -109 -93 -181t-134.5 -115.5t-164.5 -61.5t-184 -19z" />
    <glyph glyph-name="D" unicode="D" horiz-adv-x="1374" 
d="M453 141h189q117 0 199.5 35t134 97.5t75 148.5t23.5 187q0 100 -24 185.5t-75 148t-131.5 97.5t-193.5 35h-197v-934zM61 0v141h173v934h-173v140h601q162 0 282 -46.5t199 -127.5t118 -190.5t39 -235.5q0 -142 -40 -256t-120 -193.5t-200 -122.5t-279 -43h-600z" />
    <glyph glyph-name="E" unicode="E" horiz-adv-x="1186" 
d="M62 0v141h158v934h-158v140h1039v-348h-166v208h-497v-379h328v116h102v-378h-102v113h-327v-406h498v214h166v-355h-1041z" />
    <glyph glyph-name="F" unicode="F" horiz-adv-x="1092" 
d="M59 0v141h163v934h-163v140h1006v-347h-169v207h-455v-378h278v112h106v-375h-106v113h-278v-406h172v-141h-554z" />
    <glyph glyph-name="G" unicode="G" horiz-adv-x="1412" 
d="M867 448v150h467q-2 -162 -45 -278.5t-121.5 -192t-191 -111t-251.5 -35.5q-124 0 -220.5 27.5t-168.5 75t-122 110t-81 132.5t-44.5 143t-13.5 141q0 114 37 225.5t114 200t195 143t281 54.5q122 0 221 -38.5t166 -101.5v122h171v-384h-155q-55 121 -150.5 182
t-226.5 61q-98 0 -175 -34t-130.5 -95t-81.5 -145.5t-28 -184.5q0 -108 29 -195.5t84 -149.5t132.5 -95.5t175.5 -33.5q181 4 272.5 84t96.5 223h-236z" />
    <glyph glyph-name="H" unicode="H" horiz-adv-x="1372" 
d="M69 0v141h146v934h-146v140h507v-140h-142v-362h505v362h-141v140h505v-140h-146v-934h146v-141h-505v141h141v419h-505v-419h142v-141h-507z" />
    <glyph glyph-name="I" unicode="I" horiz-adv-x="662" 
d="M67 0v141h154v934h-154v140h527v-140h-154v-934h154v-141h-527z" />
    <glyph glyph-name="J" unicode="J" horiz-adv-x="645" 
d="M-25 -83h125q40 0 65 13t39 35t18.5 51.5t4.5 63.5v995h-169v140h550v-140h-162v-987q0 -78 -15.5 -141.5t-50.5 -108.5t-92.5 -69.5t-141.5 -24.5h-171v173z" />
    <glyph glyph-name="K" unicode="K" horiz-adv-x="1267" 
d="M1217 0h-544v141h124l-375 460v-460h143v-141h-503v141h141v934h-141v140h514v-140h-155v-425l398 425h-120v140h500v-140h-122l-416 -441l405 -493h151v-141z" />
    <glyph glyph-name="L" unicode="L" horiz-adv-x="1076" 
d="M58 0v141h169v934h-169v140h554v-140h-167v-934h409v365h180v-506h-976z" />
    <glyph glyph-name="M" unicode="M" horiz-adv-x="1729" 
d="M219 1075h-157v140h471l325 -836l332 836h477v-140h-156v-934h157v-141h-509v141h147v920l-428 -1061h-75l-426 1060v-919h147v-141h-462v141h157v934z" />
    <glyph glyph-name="N" unicode="N" horiz-adv-x="1406" 
d="M1032 1075h-169v140h511v-140h-178v-1075h-216l-591 1006v-865h170v-141h-506v141h173v934h-173v140h436l543 -926v786z" />
    <glyph glyph-name="O" unicode="O" horiz-adv-x="1439" 
d="M720 1075q-87 0 -161.5 -34.5t-129 -96.5t-85.5 -148.5t-31 -190.5q0 -97 29 -181.5t82.5 -147.5t128 -99t166.5 -36q89 0 164 34.5t129 96.5t84.5 147t30.5 187q0 100 -29.5 186t-83 149t-128.5 98.5t-166 35.5zM719 1233q154 0 274 -49.5t203 -135t126.5 -199.5
t43.5 -243q0 -127 -43.5 -240.5t-126 -199t-202.5 -135.5t-274 -50q-155 0 -274.5 49.5t-202 135t-125 199.5t-42.5 242q0 129 43 243t125.5 199t202 134.5t272.5 49.5z" />
    <glyph glyph-name="P" unicode="P" horiz-adv-x="1124" 
d="M57 141h163v934h-158v140h544q234 0 356.5 -95.5t122.5 -276.5q0 -105 -37 -175.5t-103 -113t-158 -60.5t-201 -18h-147v-335h167v-141h-549v141zM439 616h138q80 0 134 16t86.5 45t46.5 71t14 95q0 108 -59 170t-165 62h-195v-459z" />
    <glyph glyph-name="Q" unicode="Q" horiz-adv-x="1441" 
d="M1166 -254q-29 -7 -62 -7q-64 0 -122.5 16t-115.5 35.5t-114.5 36t-120.5 16.5q-65 0 -124.5 -17t-117.5 -56l-54 155q57 38 109.5 56t109.5 26q-111 25 -200 80t-150.5 133.5t-94.5 176.5t-33 208q0 126 42 240t123.5 200.5t201.5 137t276 50.5q155 0 275.5 -50
t203 -135.5t125.5 -199.5t43 -243q0 -123 -41.5 -229.5t-116.5 -187.5t-180 -132t-232 -63q37 -14 77 -27t81 -24t82.5 -17.5t82.5 -6.5q22 0 43 2t43 7zM719 1075q-87 0 -161 -34.5t-128.5 -96.5t-85 -148.5t-30.5 -190.5q0 -99 29 -183.5t82.5 -147t128 -98t166.5 -35.5
q89 0 164 34t129 95.5t84.5 147t30.5 189.5q0 100 -29.5 185.5t-83 148.5t-129 98.5t-167.5 35.5z" />
    <glyph glyph-name="R" unicode="R" horiz-adv-x="1220" 
d="M443 702h199q63 0 104.5 17t66.5 44t35 61t10 69q0 37 -13 70t-38.5 58t-63 39.5t-87.5 14.5h-213v-373zM1222 141v-141h-324l-295 557h-160v-416h160v-141h-548v141h170v934h-170v140h599q92 0 169.5 -18t134 -56.5t88 -99t31.5 -145.5q0 -122 -65 -201t-203 -114
l242 -440h171z" />
    <glyph glyph-name="S" unicode="S" horiz-adv-x="1008" 
d="M551 -19q-166 0 -285 108l-1 -89h-171v407h171v-110q48 -77 109 -116.5t148 -39.5q47 0 85.5 13.5t66 37.5t42.5 57t15 72q0 52 -24 87t-65 60t-97 44t-120 38q-67 20 -128.5 46t-108 66.5t-74.5 98.5t-28 141q0 82 28.5 144t79 103.5t119 62.5t149.5 21q71 0 134 -24
t113 -71v77h169v-351h-169v97q-45 57 -99.5 85t-126.5 28q-48 0 -85 -12t-63 -32t-39.5 -47.5t-13.5 -58.5q0 -53 28.5 -87t74.5 -58.5t105.5 -43t121 -39.5t121 -48t105.5 -68.5t74.5 -101.5t28.5 -146q0 -83 -31.5 -148t-85 -110t-124.5 -69t-149 -24z" />
    <glyph glyph-name="T" unicode="T" horiz-adv-x="1132" 
d="M1085 1215v-411h-160v271h-248v-934h176v-141h-573v141h178v934h-251v-271h-160v411h1038z" />
    <glyph glyph-name="U" unicode="U" horiz-adv-x="1265" 
d="M639 -19q-138 0 -226 35t-139 97t-70 145.5t-19 181.5v635h-152v140h508v-140h-138v-669q0 -63 13.5 -112.5t42.5 -83t75 -51.5t111 -18q68 0 115.5 17.5t77 52t43 85t13.5 115.5v664h-136v140h473v-140h-154v-655q0 -116 -30.5 -199t-87.5 -136.5t-138 -78.5t-182 -25z
" />
    <glyph glyph-name="V" unicode="V" horiz-adv-x="1274" 
d="M135 1075h-150v140h521v-140h-146l296 -839l292 839h-144v140h482v-140h-150l-402 -1075h-188z" />
    <glyph glyph-name="W" unicode="W" horiz-adv-x="1837" 
d="M1527 1075h-144v140h462v-140h-143l-331 -1075h-184l-270 879l-266 -879h-181l-339 1075h-145v140h494v-140h-143l238 -793l232 793h-130v140h504v-140h-127l237 -793z" />
    <glyph glyph-name="X" unicode="X" horiz-adv-x="1251" 
d="M12 0v141h170l324 474l-319 460h-162v140h532v-140h-134l218 -328l217 328h-136v140h491v-140h-162l-312 -450l338 -484h169v-141h-548v141h140l-231 351l-230 -351h142v-141h-507z" />
    <glyph glyph-name="Y" unicode="Y" horiz-adv-x="1216" 
d="M335 0v141h167v408l-364 526h-152v140h531v-140h-143l258 -389l243 389h-142v140h494v-140h-159l-348 -525v-409h171v-141h-556z" />
    <glyph glyph-name="Z" unicode="Z" horiz-adv-x="1098" 
d="M73 0v151l664 924h-473v-220h-159v360h901v-134l-673 -940h525v234h158v-375h-943z" />
    <glyph glyph-name="bracketleft" unicode="[" horiz-adv-x="655" 
d="M176 -95v1363h408v-149h-195v-1065h195v-149h-408z" />
    <glyph glyph-name="backslash" unicode="\" horiz-adv-x="865" 
d="M239 1224l564 -1243h-171l-564 1243h171z" />
    <glyph glyph-name="bracketright" unicode="]" horiz-adv-x="655" 
d="M483 1268v-1363h-409v149h196v1065h-196v149h409z" />
    <glyph glyph-name="asciicircum" unicode="^" horiz-adv-x="953" 
d="M879 590h-181l-207 485l-209 -485h-181l303 643h174z" />
    <glyph glyph-name="underscore" unicode="_" horiz-adv-x="940" 
d="M941 -31v-106h-941v106h941z" />
    <glyph glyph-name="grave" unicode="`" horiz-adv-x="579" 
d="M300 960l-216 306h258l123 -306h-165z" />
    <glyph glyph-name="a" unicode="a" horiz-adv-x="977" 
d="M353 -19q-66 0 -120 20.5t-91.5 55.5t-58 80.5t-20.5 95.5q0 75 28 127t78 84.5t117.5 47t147.5 14.5q48 0 94.5 -5.5t97.5 -15.5v86q0 41 -14 71t-38.5 49.5t-58 29t-72.5 9.5q-82 0 -137.5 -24t-101.5 -70l-101 112q60 59 150 88.5t208 29.5q101 0 170 -22t111.5 -61
t61 -92.5t18.5 -116.5v-433h147v-141h-325l-9 88q-39 -30 -74 -50.5t-68.5 -33t-68 -18t-71.5 -5.5zM626 368q-38 3 -84.5 10t-95.5 7q-39 0 -74.5 -6.5t-62.5 -23t-43 -44.5t-16 -72q0 -27 10 -50t28.5 -40.5t45.5 -27.5t61 -10q60 0 120 22t111 64v171z" />
    <glyph glyph-name="b" unicode="b" horiz-adv-x="1131" 
d="M373 1215v-465q64 60 132.5 88t157.5 28q92 0 166.5 -33.5t127.5 -91.5t81.5 -137.5t28.5 -170.5q0 -103 -31 -186.5t-86 -142.5t-129 -91t-159 -32q-41 0 -82.5 8t-79.5 23.5t-71 38.5t-57 53l-1 -104h-340v141h143v934h-147v140h346zM860 419q0 63 -17.5 116t-50 92
t-79.5 61t-107 22q-47 0 -86.5 -15.5t-69.5 -36t-50 -41t-27 -30.5v-334q8 -9 28.5 -28.5t51 -39t69.5 -34t86 -14.5q60 0 106.5 20.5t79 58t49.5 89.5t17 114z" />
    <glyph glyph-name="c" unicode="c" horiz-adv-x="969" 
d="M887 535h-157q-10 38 -27.5 70.5t-44 56t-62.5 36.5t-83 13q-59 0 -105.5 -20t-78 -57t-48 -89.5t-16.5 -116.5q0 -66 16.5 -120t48 -92t78 -58.5t105.5 -20.5q78 0 146.5 34.5t111.5 102.5l133 -85q-60 -103 -157.5 -155.5t-236.5 -52.5q-114 0 -199 38t-141 100
t-83.5 141.5t-27.5 162.5q0 93 31.5 174t88.5 141t136 94t174 34q39 0 74 -8t65 -21.5t54.5 -31t42.5 -36.5l-1 80h163v-314z" />
    <glyph glyph-name="d" unicode="d" horiz-adv-x="1131" 
d="M601 1215h355v-1074h146v-141h-345v98q-57 -61 -130.5 -89t-155.5 -28q-80 0 -153 29t-129 85.5t-89.5 140t-33.5 192.5q0 91 29 171t82 139.5t128 93.5t167 34q87 0 155.5 -28t131.5 -85v322h-158v140zM271 419q0 -61 17 -113t49 -89.5t79 -58.5t107 -21q46 0 85.5 14.5
t69.5 33t50.5 37.5t29.5 28v338l-29.5 29.5t-51 41.5t-70.5 36.5t-86 15.5q-60 0 -106.5 -22t-78.5 -61t-48.5 -92.5t-16.5 -116.5z" />
    <glyph glyph-name="e" unicode="e" horiz-adv-x="1017" 
d="M918 137q-57 -74 -154 -115t-228 -41q-110 0 -198 33.5t-149.5 92t-94.5 139t-33 174.5q0 97 35 179t97.5 141.5t147.5 92.5t186 33q106 0 186 -37t133.5 -102.5t80.5 -153.5t27 -190h-686q4 -54 22.5 -100t53 -79.5t85 -52.5t116.5 -19q71 0 141.5 28t123.5 81zM763 501
q-7 48 -25.5 88t-48 69.5t-70.5 46t-93 16.5q-113 0 -175.5 -60t-79.5 -160h492z" />
    <glyph glyph-name="f" unicode="f" horiz-adv-x="605" 
d="M63 141h126v568h-130v140h130v102q0 63 14.5 115t47 89t83.5 57.5t125 20.5q44 0 86 -9.5t74.5 -35t52 -69t19.5 -110.5h-155q0 48 -22 67.5t-48 19.5q-44 0 -61.5 -34t-17.5 -114v-99h155v-140h-155v-568h158v-141h-482v141z" />
    <glyph glyph-name="g" unicode="g" horiz-adv-x="1127" 
d="M514 -348q-113 0 -198.5 23.5t-149.5 76.5l88 117q50 -38 106.5 -59t136.5 -21q52 0 98.5 9.5t81.5 30t55.5 51.5t20.5 74v135q-25 -24 -58 -42.5t-70.5 -31.5t-78.5 -20t-81 -7q-86 0 -160 31t-128.5 88.5t-85.5 138t-31 179.5q0 92 29 172.5t82 140t128.5 94
t168.5 34.5q84 0 152.5 -28t131.5 -88v99h348v-140h-150v-746q0 -311 -436 -311zM517 144q46 0 85.5 14t69.5 32.5t50.5 36.5t29.5 26v337q-8 9 -28 29t-50 40.5t-69.5 36t-85.5 15.5q-60 0 -107.5 -22t-80.5 -61t-50 -92.5t-17 -116.5q0 -60 17 -110t49.5 -87t79.5 -57.5
t107 -20.5z" />
    <glyph glyph-name="h" unicode="h" horiz-adv-x="1093" 
d="M31 141h151v934h-149v140h345v-446q76 51 145.5 74t144.5 23q131 0 197.5 -72t66.5 -203v-450h131v-141h-420v141h94v412q0 34 -6 63t-20.5 50t-39 33t-61.5 12q-52 0 -111 -20t-121 -60v-490h125v-141h-472v141z" />
    <glyph glyph-name="i" unicode="i" horiz-adv-x="571" 
d="M301 1227q24 0 45 -8.5t36.5 -23t24.5 -34.5t9 -42q0 -23 -9 -42.5t-24.5 -34t-36.5 -23t-45 -8.5t-44.5 8.5t-35.5 23t-24 34t-9 42.5q0 22 9 42t24 34.5t35.5 23t44.5 8.5zM67 709v140h333v-708h137v-141h-470v141h137v568h-137z" />
    <glyph glyph-name="j" unicode="j" horiz-adv-x="523" 
d="M275 1227q24 0 44.5 -8.5t36.5 -23t25 -34.5t9 -42q0 -23 -9 -42.5t-25 -34t-36.5 -23t-44.5 -8.5q-49 0 -81.5 31t-32.5 77q0 22 8.5 42t24 34.5t36.5 23t45 8.5zM14 709v140h365v-802q0 -87 -9 -158.5t-42.5 -122.5t-99.5 -79.5t-180 -28.5h-96v156h96q39 0 64.5 10
t41 31t21.5 54t6 78v722h-167z" />
    <glyph glyph-name="k" unicode="k" horiz-adv-x="1088" 
d="M35 0v141h151v934h-152v140h347v-766l319 260h-145v140h486v-140h-139l-313 -269l325 -299h139v-141h-445v141h84l-311 287v-287h110v-141h-456z" />
    <glyph glyph-name="l" unicode="l" horiz-adv-x="556" 
d="M36 0v141h151v934h-149v140h345v-1074h135v-141h-482z" />
    <glyph glyph-name="m" unicode="m" horiz-adv-x="1687" 
d="M57 709v140h347v-32t1 -35q0 -19 1 -39q71 57 142.5 90t148.5 33q86 0 145.5 -36t94.5 -104q44 34 84 60t79 44t78.5 27t82.5 9q63 0 112.5 -19t83.5 -54.5t51.5 -85.5t17.5 -112v-458h131v-137h-442v137h116v391q0 43 -6.5 77t-21.5 57.5t-40 36t-63 12.5
q-32 0 -64 -10.5t-62 -28t-57.5 -39.5t-49.5 -45v-447h125v-141h-432v141h109v382q0 95 -28.5 141.5t-101.5 46.5q-30 0 -58 -8t-56 -23t-57 -37t-62 -50v-452h126v-141h-480v141h157v568h-152z" />
    <glyph glyph-name="n" unicode="n" horiz-adv-x="1105" 
d="M61 709v140h344v-23t0.5 -31.5t1 -30.5t0.5 -19q75 60 143.5 90.5t141.5 30.5q54 0 100.5 -18t80 -53t53 -87.5t19.5 -121.5v-32.5t-0.5 -56.5t-0.5 -72.5v-78.5v-205h143v-141h-432v141h94v394q0 86 -24.5 131t-86.5 45q-64 0 -122.5 -33.5t-108.5 -84.5v-452h121v-141
h-463v141h144v568h-148z" />
    <glyph glyph-name="o" unicode="o" horiz-adv-x="1029" 
d="M760 424q0 63 -17 116t-49 91t-77.5 59t-103.5 21q-57 0 -102.5 -21t-77 -59t-48.5 -91t-17 -117q0 -63 17 -116t49 -90.5t77.5 -58.5t102.5 -21t102.5 21t77.5 59t49 90.5t17 116.5zM967 424q0 -95 -32.5 -176t-92 -140t-143 -93t-186.5 -34q-101 0 -184 33.5t-142 92.5
t-91.5 140t-32.5 177q0 97 33.5 178.5t93.5 140t143 91t182 32.5q101 0 184 -33t142.5 -92t92.5 -140t33 -177z" />
    <glyph glyph-name="p" unicode="p" horiz-adv-x="1122" 
d="M28 -180h147v889h-147v140h340l3 -103q63 61 133 90.5t155 29.5q92 0 167 -34t127.5 -93t81 -139t28.5 -172q0 -101 -31.5 -183.5t-86 -141t-128.5 -90.5t-159 -32q-81 0 -157 28t-130 84v-273h168v-150h-511v150zM607 137q60 0 107 21t79.5 58.5t49.5 89.5t17 113
q0 63 -17.5 116.5t-50 92.5t-79.5 61t-107 22q-47 0 -87 -15.5t-70 -36t-50 -40.5t-28 -29v-345q9 -9 30 -27t51 -36t69 -31.5t86 -13.5z" />
    <glyph glyph-name="q" unicode="q" horiz-adv-x="1125" 
d="M1096 849v-140h-147v-890h147v-149h-511v149h166v275q-54 -57 -129 -85t-157 -28q-86 0 -159.5 32t-128.5 90.5t-86 141t-31 184.5q0 92 29 171.5t82.5 138.5t129.5 93t171 34q162 0 279 -120l2 103h343zM263 419q0 -61 17 -113t49.5 -89.5t79 -58.5t106.5 -21
q46 0 85.5 14.5t70 34t51 39t29.5 28.5v334q-8 10 -28 30.5t-50 41.5t-69 36.5t-84 15.5q-63 0 -111 -22t-80.5 -61t-49 -92.5t-16.5 -116.5z" />
    <glyph glyph-name="r" unicode="r" horiz-adv-x="806" 
d="M602 141v-141h-541v141h165v568h-165v140h335l1 -192q26 58 58.5 98t72 65t85.5 35.5t99 10.5q17 0 38 -2t31 -3l-2 -180l-9 0.5t-20.5 1t-22.5 1t-17 0.5q-78 0 -132.5 -20t-89 -59t-50.5 -96t-16 -130v-238h180z" />
    <glyph glyph-name="s" unicode="s" horiz-adv-x="873" 
d="M87 283h156v-67q28 -47 82.5 -72t126.5 -25q85 0 131 26.5t46 78.5q0 33 -23.5 53.5t-62.5 34.5t-88.5 24.5t-101.5 23.5t-101.5 31t-88.5 47.5t-62.5 73.5t-23.5 109q0 51 22.5 96t63.5 78t99 52t129 19q59 0 114 -17.5t95 -52.5v53h162v-264h-162v69q-31 36 -76 55.5
t-111 19.5q-74 0 -116.5 -25.5t-42.5 -71.5q0 -31 24 -50.5t63 -32.5t89 -23t102 -23t102 -32t89 -50t63 -77.5t24 -113.5q0 -55 -23 -101t-66.5 -79t-105.5 -51t-139 -18q-79 0 -133.5 17t-99.5 53v-51h-156v283z" />
    <glyph glyph-name="t" unicode="t" horiz-adv-x="596" 
d="M36 709v140h126v262l195 45v-307h203v-140h-203v-450q0 -64 14 -91t53 -27h145v-141h-184q-119 0 -172 64t-53 184v461h-124z" />
    <glyph glyph-name="u" unicode="u" horiz-adv-x="1087" 
d="M1040 141v-141h-341l-4 96q-66 -57 -134.5 -86t-140.5 -29q-69 0 -119.5 20t-83.5 57t-48.5 90.5t-15.5 120.5v440h-127v140h324v-557q0 -76 26.5 -115.5t94.5 -39.5q61 0 118.5 33.5t105.5 88.5v450h-141v140h339v-708h147z" />
    <glyph glyph-name="v" unicode="v" horiz-adv-x="1022" 
d="M434 0l-292 709h-145v140h457v-140h-112q41 -119 78 -219q15 -43 31 -86.5t30.5 -81.5t26 -67.5t18.5 -45.5l192 500h-117v140h424v-140h-133l-287 -709h-171z" />
    <glyph glyph-name="w" unicode="w" horiz-adv-x="1418" 
d="M101 709h-93v140h374v-140h-88l157 -508l156 508h-101v140h414v-140h-100l164 -512l145 512h-98v140h374v-140h-98l-233 -709h-185l-180 547l-178 -547h-185z" />
    <glyph glyph-name="x" unicode="x" horiz-adv-x="1036" 
d="M37 0v141h129l245 288l-237 280h-123v140h425v-140h-80l126 -157l125 157h-78v140h413v-140h-135l-226 -269l255 -299h119v-141h-437v141h95l-145 175l-139 -175h92v-141h-424z" />
    <glyph glyph-name="y" unicode="y" horiz-adv-x="1049" 
d="M721 709h-113v140h432v-140h-131l-259 -732q-29 -83 -54 -146t-61.5 -106.5t-92 -65.5t-145.5 -22h-118v157h98q36 0 62.5 4t47.5 18.5t37.5 44t32.5 80.5l31 104h-69l-289 664h-128v140h451v-140h-106l198 -534z" />
    <glyph glyph-name="z" unicode="z" horiz-adv-x="906" 
d="M60 0v135l535 580h-349v-153h-146v287h729v-139l-539 -577h387v165h151v-298h-768z" />
    <glyph glyph-name="braceleft" unicode="{" horiz-adv-x="579" 
d="M31 638q52 0 84 18.5t50 54t24 86t6 114.5q0 91 4 167.5t29 132t79 86.5t154 31h82v-133q-56 0 -91 -6t-55 -24t-27.5 -52t-7.5 -90q0 -111 -4.5 -186.5t-19.5 -127t-44.5 -84.5t-78.5 -59q43 -23 71 -53.5t44.5 -75t23 -107t6.5 -149.5q0 -82 2.5 -130t20 -73.5
t54.5 -33t106 -7.5v-133h-81q-99 0 -153.5 29.5t-79.5 83.5t-29.5 129t-4.5 166q0 67 -5.5 119.5t-22.5 89t-49.5 55.5t-86.5 19v143z" />
    <glyph glyph-name="bar" unicode="|" horiz-adv-x="646" 
d="M243 1227h160v-1478h-160v1478z" />
    <glyph glyph-name="braceright" unicode="}" horiz-adv-x="579" 
d="M543 495q-54 0 -86 -19t-49 -55.5t-22.5 -89t-5.5 -119.5q0 -91 -4.5 -166t-29.5 -129t-79.5 -83.5t-153.5 -29.5h-82v133q69 0 106 7t54.5 32t20.5 71.5t3 126.5q0 89 6 152.5t22.5 109t44.5 76.5t72 54q-50 26 -79 59t-44 84.5t-19.5 127t-4.5 186.5q0 56 -7.5 90
t-27.5 52t-55.5 24t-91.5 6v133h83q99 0 153 -30.5t79 -85.5t29.5 -130.5t4.5 -165.5q0 -65 6 -116.5t23.5 -87.5t49.5 -55t84 -19v-143z" />
    <glyph glyph-name="asciitilde" unicode="~" horiz-adv-x="1122" 
d="M1040 588q-51 -60 -112 -93.5t-133 -33.5q-42 0 -82 10t-79.5 25t-78.5 33t-77 33t-76.5 25t-76.5 10q-61 0 -111 -26.5t-104 -81.5l-23 138q53 66 115 98t139 32q65 0 126 -20t118 -43.5t111.5 -43.5t105.5 -20q59 0 110.5 26t100.5 75z" />
    <glyph glyph-name="exclamdown" unicode="&#xa1;" horiz-adv-x="541" 
d="M373 7.07422v315.981l-45 496.97h-109l-49 -496.97v-315.981h203zM149 987.015h244l-20 241.985h-224v-241.985z" />
    <glyph glyph-name="cent" unicode="&#xa2;" horiz-adv-x="969" 
d="M887 535h-157q-14 52 -41 92t-72 62l-181 -542q34 -10 77 -10q78 0 146.5 34.5t111.5 102.5l133 -85q-60 -103 -157.5 -155.5t-236.5 -52.5q-66 0 -125 14l-109 -330l-78 23l110 332q-63 27 -110 70t-77.5 96.5t-46 114t-15.5 122.5q0 93 31.5 174t88.5 141t136 94
t174 34q49 0 96 -14l124 375l79 -24l-128 -383q20 -11 36 -24t29 -27l-1 80h163v-314zM265 428q0 -83 25 -145t73 -99l174 526q-6 0 -12 0.5t-12 0.5q-59 0 -105.5 -20t-78 -57t-48 -89.5t-16.5 -116.5z" />
    <glyph glyph-name="sterling" unicode="&#xa3;" horiz-adv-x="1049" 
d="M117 692h149q-23 48 -35.5 98.5t-12.5 110.5q0 79 25.5 140.5t73.5 104t116 65t153 22.5q82 0 146 -24t107 -69t65.5 -108.5t22.5 -141.5h-171q0 40 -8.5 75t-27.5 60.5t-50 40t-77 14.5q-95 0 -146.5 -43.5t-51.5 -126.5q0 -55 22.5 -109.5t51.5 -108.5h386v-133h-325
q20 -41 29.5 -79.5t9.5 -80.5q0 -38 -8.5 -79.5t-27.5 -87.5q48 -29 94 -52.5t93 -23.5q40 0 63.5 11t37 32.5t18.5 53t8 72.5h127q0 -83 -11 -147t-39.5 -107.5t-77.5 -66t-126 -22.5q-72 0 -135 31.5t-128 82.5q-38 -52 -87 -83t-109 -31q-58 0 -100.5 16t-70.5 42
t-41.5 59.5t-13.5 69.5q0 38 14.5 75t42.5 66t69 47t93 18q45 0 83.5 -16.5t77.5 -49.5q2 8 2.5 17t0.5 18q0 56 -23 111t-56 104h-222v133zM291 133q7 18 14 37.5t15 41.5q-17 11 -32 16t-28 5q-30 0 -49 -17.5t-19 -43.5q0 -20 14 -37.5t36 -17.5q20 0 49 16z" />
    <glyph glyph-name="currency" unicode="&#xa4;" horiz-adv-x="929" 
d="M123 806q0 116 73 201l-80 81l69 69l86 -86q42 25 89.5 39t103.5 14t104 -14.5t90 -40.5l88 88l69 -69l-83 -83q72 -84 72 -199q0 -60 -19.5 -110.5t-54.5 -92.5l85 -84l-69 -68l-90 88q-85 -53 -192 -53q-56 0 -102.5 13.5t-88.5 38.5l-88 -87l-69 68l82 82
q-35 42 -55 93.5t-20 111.5zM261 805q0 -42 14.5 -79t41 -65t64 -44.5t83.5 -16.5t83.5 16.5t63.5 44.5t40.5 65t14.5 78t-14.5 77.5t-41 64.5t-63.5 44t-83 16q-47 0 -84.5 -16t-63.5 -44t-40.5 -64.5t-14.5 -76.5z" />
    <glyph glyph-name="yen" unicode="&#xa5;" horiz-adv-x="1221" 
d="M367 0v123h159v174h-277v117h277v89h-277v119h211l-292 410h-146v121h472v-123h-150l274 -391l257 392h-150v122h460v-123h-156l-280 -408h211v-119h-274v-89h274v-117h-274v-175h164v-122h-483z" />
    <glyph glyph-name="brokenbar" unicode="&#xa6;" horiz-adv-x="414" 
d="M269 1215v-545h-122v545h122zM269 324v-545h-122v545h122z" />
    <glyph glyph-name="section" unicode="&#xa7;" horiz-adv-x="891" 
d="M452 -185q-92 0 -153.5 19t-98 49t-51.5 67.5t-15 74.5q0 64 40.5 96.5t105.5 32.5q0 -54 12.5 -100t36.5 -79.5t60.5 -52.5t84.5 -19q79 0 123 43.5t44 115.5q0 34 -10 60t-40 53t-85.5 58.5t-146.5 76.5q-68 33 -116 67.5t-78.5 71.5t-44.5 79t-14 90q0 55 29.5 99.5
t77.5 68.5q-29 30 -50 79t-21 117q0 63 24 111.5t67.5 82.5t102.5 51.5t130 17.5q72 0 126.5 -14t91.5 -39t55.5 -59.5t18.5 -74.5q0 -51 -40 -84t-115 -33q0 36 -6.5 74t-22.5 69t-44.5 51t-71.5 20q-69 0 -110.5 -39.5t-41.5 -114.5q0 -39 13 -65.5t38.5 -47.5t61.5 -39.5
t83 -40.5q86 -42 148 -79t101.5 -75t58.5 -80.5t19 -95.5q0 -30 -8.5 -58.5t-22.5 -54t-33 -46.5t-41 -34q27 -35 42.5 -81t15.5 -94q0 -65 -21 -119.5t-62.5 -93.5t-103 -60.5t-143.5 -21.5zM669 421q0 27 -9 52.5t-31.5 50.5t-61 51t-98.5 55q-55 27 -103 50.5t-88 51.5
q-12 -14 -19 -32.5t-7 -39.5q0 -34 11.5 -60t38.5 -50.5t71 -49.5t110 -58q54 -26 93 -48t71 -44q9 13 15.5 30.5t6.5 40.5z" />
    <glyph glyph-name="dieresis" unicode="&#xa8;" horiz-adv-x="661" 
d="M422 1215h187v-185h-187v185zM244 1215v-185h-187v185h187z" />
    <glyph glyph-name="copyright" unicode="&#xa9;" horiz-adv-x="1470" 
d="M718 1233q107 0 197 -24.5t162 -68.5t126 -103.5t90.5 -129t54.5 -146.5t18 -155t-18 -155t-54 -146.5t-90 -128.5t-126 -102.5t-162 -68t-198 -24.5t-197.5 24.5t-161 68t-125 102.5t-89 128.5t-53.5 146.5t-18 155t18 155t53.5 146.5t89.5 129t125.5 103.5t161 68.5
t196.5 24.5zM718 1109q-80 0 -147.5 -20t-121.5 -55.5t-94.5 -83.5t-67.5 -104t-40.5 -118t-13.5 -125q0 -93 30 -182.5t90.5 -159.5t151.5 -112.5t213 -42.5t213.5 42.5t152.5 112.5t91.5 159.5t30.5 182.5q0 94 -31 185t-92 162t-152.5 115t-212.5 44zM1012 441
q-88 -152 -291 -152q-84 0 -146 28t-103.5 73.5t-61.5 104t-20 119.5q0 69 23.5 128t65.5 103t100 69t128 25q57 0 102 -21.5t71 -49.5l-1 58h120v-230h-115q-8 28 -21 51.5t-32 40.5t-45.5 27t-61.5 10q-88 0 -135.5 -56.5t-47.5 -151.5q0 -98 47.5 -155.5t135.5 -57.5
q58 0 108 25t81 76z" />
    <glyph glyph-name="ordfeminine" unicode="&#xaa;" horiz-adv-x="696" 
d="M636 632h-194v62q-46 -38 -91.5 -55.5t-96.5 -17.5q-43 0 -78.5 13t-61 35.5t-39.5 53t-14 64.5q0 45 17.5 78.5t47.5 55t71 32t89 10.5q35 0 72 -7.5t74 -21.5v70q0 53 -34.5 79t-94.5 26q-89 0 -134 -65l-88 49q74 101 235 101q103 0 162.5 -45t59.5 -134v-297h98v-86z
M432 856q-29 12 -65 21.5t-72 9.5q-27 0 -50.5 -5t-41 -16.5t-28 -30.5t-10.5 -47q0 -38 27.5 -63t78.5 -25q42 0 84.5 16.5t76.5 46.5v93z" />
    <glyph glyph-name="guillemotleft" unicode="&#xab;" horiz-adv-x="1135" 
d="M139 606l315 359h128l-207 -410l207 -410h-128l-315 361v100zM559 606l314 359h128l-206 -410l206 -410h-128l-314 361v100z" />
    <glyph glyph-name="logicalnot" unicode="&#xac;" horiz-adv-x="1113" 
d="M993 863v-534h-117v393h-820v141h937z" />
    <glyph glyph-name="uni00AD" unicode="&#xad;" horiz-adv-x="1707" 
 />
    <glyph glyph-name="registered" unicode="&#xae;" horiz-adv-x="1444" 
d="M722 1233q133 0 250.5 -44.5t205.5 -126.5t139.5 -198t51.5 -258t-51.5 -257.5t-139.5 -197t-205.5 -126t-250.5 -44.5q-132 0 -249.5 44.5t-205.5 126t-139 197t-51 257.5t51 258t139 198t205.5 126.5t249.5 44.5zM722 1125q-105 0 -197 -37.5t-161 -105.5t-109 -164.5
t-40 -214.5q0 -116 40 -211t109 -162.5t161 -104t197 -36.5t197.5 36.5t161.5 104t109 162.5t40 211q0 118 -40 214t-109 164.5t-161.5 106t-197.5 37.5zM438 381h87v480h-87v74h308q48 0 87.5 -9.5t68.5 -29.5t45 -51.5t16 -74.5q0 -63 -33.5 -104t-104.5 -59l125 -226h88
v-74h-166l-152 287h-82v-213h82v-74h-282v74zM740 672q33 0 54 8.5t34 22t18 30.5t5 35q0 40 -26.5 66.5t-77.5 26.5h-109v-189h102z" />
    <glyph glyph-name="macron" unicode="&#xaf;" horiz-adv-x="593" 
d="M131 1171h326v-85h-326v85z" />
    <glyph glyph-name="degree" unicode="&#xb0;" horiz-adv-x="653" 
d="M327 1113q-40 0 -71 -14t-52 -37.5t-32 -53.5t-11 -63t11 -63t32 -53.5t52 -37.5t71 -14q39 0 70 13.5t52.5 37t32.5 54t11 63.5q0 31 -11 61t-32 54t-52 38.5t-71 14.5zM327 1199q62 0 111 -21.5t82.5 -56.5t51.5 -81.5t18 -95.5q0 -50 -17.5 -96t-51.5 -81.5t-82.5 -57
t-111.5 -21.5t-111.5 21.5t-82.5 57t-51.5 81.5t-17.5 96q0 49 17.5 95.5t51.5 81.5t83 56.5t111 21.5z" />
    <glyph glyph-name="plusminus" unicode="&#xb1;" horiz-adv-x="1145" 
d="M1012 0h-879v145h879v-145zM645 659v-366h-147v366h-365v146h365v366h147v-366h367v-146h-367z" />
    <glyph glyph-name="uni00B2" unicode="&#xb2;" horiz-adv-x="939" 
d="M175 349q0 76 20.5 137t53.5 110.5t75.5 90.5t86.5 77q30 25 64 51t62 54.5t46.5 60.5t18.5 70q0 58 -33.5 92t-96.5 34q-83 0 -117 -50t-35 -159h-123q0 162 68 239t205 77q74 0 127.5 -20.5t88 -53.5t50.5 -75.5t16 -86.5q0 -64 -28 -111.5t-71 -87t-95.5 -75
t-101 -74.5t-87.5 -85.5t-55 -108.5h331v169h107v-275h-577z" />
    <glyph glyph-name="uni00B3" unicode="&#xb3;" horiz-adv-x="957" 
d="M306 607q8 -78 48 -123t121 -45q42 0 74 11.5t54.5 31.5t34 47.5t11.5 59.5q0 45 -15.5 75t-46.5 48t-77.5 25.5t-108.5 7.5v111q58 0 100 7t68.5 23t39 42t12.5 64q0 56 -36 93t-109 37q-38 0 -64 -10t-43 -28t-25 -42.5t-9 -52.5l-129 8q2 54 22 98t54.5 75t83.5 47.5
t109 16.5q66 0 119 -16t90.5 -46t57.5 -73.5t20 -99.5q0 -66 -38 -119t-111 -75q91 -22 137 -77t46 -136q0 -59 -22.5 -107t-64 -82t-101 -53t-134.5 -19q-66 0 -120 17t-93 51t-61 85.5t-23 121.5z" />
    <glyph glyph-name="acute" unicode="&#xb4;" horiz-adv-x="579" 
d="M102 960l124 306h258l-216 -306h-166z" />
    <glyph glyph-name="uni00B5" unicode="&#xb5;" horiz-adv-x="1066" 
d="M153 709h-127v140h324v-625q0 -15 6 -30.5t20.5 -28t37.5 -20.5t57 -8q61 0 118.5 33.5t105.5 88.5v450h-141v140h339v-708h147v-141h-341l-4 96q-66 -57 -134.5 -86t-140.5 -29q-43 0 -78 11v-348h-189v1065z" />
    <glyph glyph-name="uni00B5" unicode="&#x3bc;" horiz-adv-x="1066" 
d="M153 709h-127v140h324v-625q0 -15 6 -30.5t20.5 -28t37.5 -20.5t57 -8q61 0 118.5 33.5t105.5 88.5v450h-141v140h339v-708h147v-141h-341l-4 96q-66 -57 -134.5 -86t-140.5 -29q-43 0 -78 11v-348h-189v1065z" />
    <glyph glyph-name="paragraph" unicode="&#xb6;" horiz-adv-x="1096" 
d="M1020 1049h-138v-1402h-135v1402h-201v-1402h-135v821q-86 3 -153 31.5t-113.5 76t-70.5 111.5t-24 139q0 74 25 139.5t75 114.5t125 77.5t176 28.5h569v-137z" />
    <glyph glyph-name="periodcentered" unicode="&#xb7;" horiz-adv-x="414" 
d="M86 657h227v-211h-227v211z" />
    <glyph glyph-name="cedilla" unicode="&#xb8;" horiz-adv-x="587" 
d="M152 -273q23 -4 47 -4q51 0 84.5 13t33.5 48q0 26 -23 41t-66 18l39 162h72l-17 -97q55 -9 86 -39.5t31 -79.5q0 -31 -12.5 -58.5t-39 -48t-67.5 -32.5t-98 -12h-14.5t-20 0.5t-20 1.5t-15.5 2v85z" />
    <glyph glyph-name="uni00B9" unicode="&#xb9;" horiz-adv-x="607" 
d="M490 451v-103h-378v103h123v661h-131v103h270v-764h116z" />
    <glyph glyph-name="ordmasculine" unicode="&#xba;" horiz-adv-x="704" 
d="M180 934q0 -36 13 -67t36.5 -53.5t55 -35.5t68.5 -13q36 0 67.5 13t54.5 35.5t36 53.5t13 67t-13 66.5t-36 53t-54.5 35t-67.5 12.5q-37 0 -68.5 -12.5t-55 -35t-36.5 -53t-13 -66.5zM68 934q0 57 21.5 105.5t60 83.5t90.5 55t113 20t113 -20t90 -55t59.5 -83.5
t21.5 -105.5t-21.5 -105t-59.5 -83.5t-90 -55.5t-113 -20t-113 20t-90.5 55.5t-60 83.5t-21.5 105z" />
    <glyph glyph-name="guillemotright" unicode="&#xbb;" horiz-adv-x="1135" 
d="M1007 506l-315 -361h-127l206 410l-206 410h127l315 -359v-100zM588 506l-316 -361h-127l207 410l-207 410h127l316 -359v-100z" />
    <glyph glyph-name="onequarter" unicode="&#xbc;" horiz-adv-x="1751" 
d="M492 451v-103h-378v103h123v661h-131v103h270v-764h116zM1062 1252l128 -36l-573 -1252l-129 36zM1623 107v-107h-339v107h118v135h-356v121l345 502h137v-520h124v-103h-124v-135h95zM1402 345v344l-233 -344h233z" />
    <glyph glyph-name="onehalf" unicode="&#xbd;" horiz-adv-x="1795" 
d="M490 451v-103h-378v103h123v661h-131v103h270v-764h116zM1062 1252l128 -36l-573 -1252l-129 36zM1116 1q0 76 20.5 137t53.5 110.5t75.5 90.5t86.5 77q30 25 64 51t62 54.5t46.5 60.5t18.5 70q0 58 -33.5 92t-96.5 34q-83 0 -117 -50t-35 -159h-123q0 162 68 239t205 77
q74 0 127.5 -20.5t88 -53.5t50.5 -75.5t16 -86.5q0 -64 -28 -111.5t-71 -87t-95.5 -75t-101 -74.5t-87.5 -85.5t-55 -108.5h331v169h107v-275h-577z" />
    <glyph glyph-name="threequarters" unicode="&#xbe;" horiz-adv-x="2008" 
d="M306 607q8 -78 48 -123t121 -45q42 0 74 11.5t54.5 31.5t34 47.5t11.5 59.5q0 45 -15.5 75t-46.5 48t-77.5 25.5t-108.5 7.5v111q58 0 100 7t68.5 23t39 42t12.5 64q0 56 -36 93t-109 37q-38 0 -64 -10t-43 -28t-25 -42.5t-9 -52.5l-129 8q2 54 22 98t54.5 75t83.5 47.5
t109 16.5q66 0 119 -16t90.5 -46t57.5 -73.5t20 -99.5q0 -66 -38 -119t-111 -75q91 -22 137 -77t46 -136q0 -59 -22.5 -107t-64 -82t-101 -53t-134.5 -19q-66 0 -120 17t-93 51t-61 85.5t-23 121.5zM1326 1252l128 -36l-573 -1252l-129 36zM1857 107v-107h-339v107h118v135
h-356v121l345 502h137v-520h124v-103h-124v-135h95zM1636 345v344l-233 -344h233z" />
    <glyph glyph-name="questiondown" unicode="&#xbf;" horiz-adv-x="796" 
d="M496.037 856.041q0 -85.9893 -12.999 -147.481q-12.998 -61.4922 -33.9961 -104.987q-20.9971 -43.4941 -47.4941 -72.9912q-26.4961 -29.4961 -54.4932 -51.4932q-27.9961 -21.998 -54.4932 -39.9951q-26.4971 -17.998 -47.4941 -38.9951
q-20.9971 -20.998 -33.9961 -48.9941q-12.998 -27.9971 -12.998 -68.9922q0 -41.9941 13.998 -75.9902t38.4951 -57.9932t56.9932 -36.9951q32.4961 -12.999 69.4912 -12.999q101.988 0 151.981 54.4932q49.9941 54.4941 49.9941 154.481h172.979
q0 -95.9883 -31.4971 -161.48q-31.4961 -65.4912 -83.4893 -105.987q-51.9941 -40.4941 -119.485 -58.4922q-67.4922 -17.998 -138.483 -17.998q-74.9902 0 -140.982 22.4971t-114.486 63.9922t-76.4902 100.488q-27.9971 58.9922 -27.9971 131.983
q0 54.9932 14.498 94.4883q14.499 39.4961 37.4961 68.9922t50.9932 50.9932q27.9971 21.498 54.9932 39.4951q30.9971 20.998 61.4932 44.9951t55.4932 59.9922q24.9971 35.9961 41.9951 87.4893q16.9971 51.4941 20.9971 127.484h138.983zM324.058 987.025v208.975
h194.977v-208.975h-194.977z" />
    <glyph glyph-name="Agrave" unicode="&#xc0;" horiz-adv-x="1263" 
d="M-11 141h147l292 934h-118v140h641v-140h-118l296 -934h144v-141h-515v141h156l-78 295h-430l-80 -295h159v-141h-496v141zM795 577l-151 498h-41l-155 -498h347zM657 1328l-216 306h258l123 -306h-165z" />
    <glyph glyph-name="Aacute" unicode="&#xc1;" horiz-adv-x="1263" 
d="M-11 141h147l292 934h-118v140h641v-140h-118l296 -934h144v-141h-515v141h156l-78 295h-430l-80 -295h159v-141h-496v141zM795 577l-151 498h-41l-155 -498h347zM440 1326l124 306h258l-216 -306h-166z" />
    <glyph glyph-name="Acircumflex" unicode="&#xc2;" horiz-adv-x="1263" 
d="M-11 141h147l292 934h-118v140h641v-140h-118l296 -934h144v-141h-515v141h156l-78 295h-430l-80 -295h159v-141h-496v141zM795 577l-151 498h-41l-155 -498h347zM353 1325l134 329h283l140 -329h-180l-101 252l-101 -252h-175z" />
    <glyph glyph-name="Atilde" unicode="&#xc3;" horiz-adv-x="1263" 
d="M-11 141h147l292 934h-118v140h641v-140h-118l296 -934h144v-141h-515v141h156l-78 295h-430l-80 -295h159v-141h-496v141zM795 577l-151 498h-41l-155 -498h347zM339 1339q4 55 19 94.5t37 65t50 37.5t58 12q35 0 70 -10.5t68 -23t63.5 -23t57.5 -10.5q44 0 56 62h106
q-7 -100 -50 -156.5t-117 -56.5q-38 0 -73 11t-67 23.5t-61 23.5t-55 11t-37.5 -15.5t-16.5 -44.5h-108z" />
    <glyph glyph-name="Adieresis" unicode="&#xc4;" horiz-adv-x="1263" 
d="M-11 141h147l292 934h-118v140h641v-140h-118l296 -934h144v-141h-515v141h156l-78 295h-430l-80 -295h159v-141h-496v141zM795 577l-151 498h-41l-155 -498h347zM720 1581h187v-185h-187v185zM542 1581v-185h-187v185h187z" />
    <glyph glyph-name="Aring" unicode="&#xc5;" horiz-adv-x="1263" 
d="M-11 141h147l292 934h-118v140h641v-140h-118l296 -934h144v-141h-515v141h156l-78 295h-430l-80 -295h159v-141h-496v141zM795 577l-151 498h-41l-155 -498h347zM631 1610q44 0 78 -13.5t57.5 -36.5t35.5 -53t12 -63q0 -34 -12.5 -65t-36 -55t-57.5 -38t-77 -14
t-76.5 14t-57 38t-36 55t-12.5 65q0 33 12 63t35.5 53t57 36.5t77.5 13.5zM631 1541q-50 0 -76.5 -30t-26.5 -69t26.5 -69t76.5 -30t77 30t27 69t-27 69t-77 30z" />
    <glyph glyph-name="AE" unicode="&#xc6;" horiz-adv-x="1877" 
d="M-11 141h146l550 934h-108v140h1215v-348h-166v208h-499v-379h330v116h102v-378h-102v113h-329v-406h500v214h166v-355h-1037v141h154v295h-387l-162 -295h139v-141h-512v141zM911 577v498h-24l-284 -498h308z" />
    <glyph glyph-name="Ccedilla" unicode="&#xc7;" horiz-adv-x="1252" 
d="M699 -19q-157 1 -274.5 51t-196 135t-117.5 198t-39 241q0 139 43 254t124 198t197.5 129t263.5 46q118 0 211.5 -39t163.5 -105v126h164v-383h-155q-30 64 -69.5 110t-86.5 75.5t-100.5 43t-111.5 13.5q-95 0 -170 -35t-128 -97t-81 -147t-28 -186q0 -99 26 -184.5
t77.5 -148.5t127.5 -99t175 -36q66 0 128 17t113.5 53.5t89.5 93t58 134.5l171 -81q-34 -109 -93 -181t-134.5 -115.5t-164.5 -61.5t-184 -19zM485 -273q23 -4 47 -4q51 0 84.5 13t33.5 48q0 26 -23 41t-66 18l39 162h72l-17 -97q55 -9 86 -39.5t31 -79.5q0 -31 -12.5 -58.5
t-39 -48t-67.5 -32.5t-98 -12h-14.5t-20 0.5t-20 1.5t-15.5 2v85z" />
    <glyph glyph-name="Egrave" unicode="&#xc8;" horiz-adv-x="1186" 
d="M62 0v141h158v934h-158v140h1039v-348h-166v208h-497v-379h328v116h102v-378h-102v113h-327v-406h498v214h166v-355h-1041zM618 1326l-216 306h258l123 -306h-165z" />
    <glyph glyph-name="Eacute" unicode="&#xc9;" horiz-adv-x="1186" 
d="M62 0v141h158v934h-158v140h1039v-348h-166v208h-497v-379h328v116h102v-378h-102v113h-327v-406h498v214h166v-355h-1041zM402 1326l124 306h258l-216 -306h-166z" />
    <glyph glyph-name="Ecircumflex" unicode="&#xca;" horiz-adv-x="1186" 
d="M62 0v141h158v934h-158v140h1039v-348h-166v208h-497v-379h328v116h102v-378h-102v113h-327v-406h498v214h166v-355h-1041zM314 1325l134 329h283l140 -329h-180l-101 252l-101 -252h-175z" />
    <glyph glyph-name="Edieresis" unicode="&#xcb;" horiz-adv-x="1186" 
d="M62 0v141h158v934h-158v140h1039v-348h-166v208h-497v-379h328v116h102v-378h-102v113h-327v-406h498v214h166v-355h-1041zM683 1581h187v-185h-187v185zM505 1581v-185h-187v185h187z" />
    <glyph glyph-name="Igrave" unicode="&#xcc;" horiz-adv-x="662" 
d="M67 0v141h154v934h-154v140h527v-140h-154v-934h154v-141h-527zM356 1326l-216 306h258l123 -306h-165z" />
    <glyph glyph-name="Iacute" unicode="&#xcd;" horiz-adv-x="662" 
d="M67 0v141h154v934h-154v140h527v-140h-154v-934h154v-141h-527zM140 1326l124 306h258l-216 -306h-166z" />
    <glyph glyph-name="Icircumflex" unicode="&#xce;" horiz-adv-x="662" 
d="M67 0v141h154v934h-154v140h527v-140h-154v-934h154v-141h-527zM52 1325l134 329h283l140 -329h-180l-101 252l-101 -252h-175z" />
    <glyph glyph-name="Idieresis" unicode="&#xcf;" horiz-adv-x="662" 
d="M67 0v141h154v934h-154v140h527v-140h-154v-934h154v-141h-527zM422 1581h187v-185h-187v185zM244 1581v-185h-187v185h187z" />
    <glyph glyph-name="Eth" unicode="&#xd0;" horiz-adv-x="1374" 
d="M61 0v141h173v404h-144v149h144v381h-173v140h601q162 0 282 -46.5t199 -127.5t118 -190.5t39 -235.5q0 -142 -40 -256t-120 -193.5t-200 -122.5t-279 -43h-600zM453 694h181v-149h-181v-404h189q117 0 199.5 35t134 97.5t75 148.5t23.5 187q0 100 -24 185.5t-75 148
t-131.5 97.5t-193.5 35h-197v-381z" />
    <glyph glyph-name="Ntilde" unicode="&#xd1;" horiz-adv-x="1406" 
d="M1032 1075h-169v140h511v-140h-178v-1075h-216l-591 1006v-865h170v-141h-506v141h173v934h-173v140h436l543 -926v786zM410 1339q4 55 19 94.5t37 65t50 37.5t58 12q35 0 70 -10.5t68 -23t63.5 -23t57.5 -10.5q44 0 56 62h106q-7 -100 -50 -156.5t-117 -56.5
q-38 0 -73 11t-67 23.5t-61 23.5t-55 11t-37.5 -15.5t-16.5 -44.5h-108z" />
    <glyph glyph-name="Ograve" unicode="&#xd2;" horiz-adv-x="1439" 
d="M720 1075q-87 0 -161.5 -34.5t-129 -96.5t-85.5 -148.5t-31 -190.5q0 -97 29 -181.5t82.5 -147.5t128 -99t166.5 -36q89 0 164 34.5t129 96.5t84.5 147t30.5 187q0 100 -29.5 186t-83 149t-128.5 98.5t-166 35.5zM719 1233q154 0 274 -49.5t203 -135t126.5 -199.5
t43.5 -243q0 -127 -43.5 -240.5t-126 -199t-202.5 -135.5t-274 -50q-155 0 -274.5 49.5t-202 135t-125 199.5t-42.5 242q0 129 43 243t125.5 199t202 134.5t272.5 49.5zM745 1326l-216 306h258l123 -306h-165z" />
    <glyph glyph-name="Oacute" unicode="&#xd3;" horiz-adv-x="1439" 
d="M720 1075q-87 0 -161.5 -34.5t-129 -96.5t-85.5 -148.5t-31 -190.5q0 -97 29 -181.5t82.5 -147.5t128 -99t166.5 -36q89 0 164 34.5t129 96.5t84.5 147t30.5 187q0 100 -29.5 186t-83 149t-128.5 98.5t-166 35.5zM719 1233q154 0 274 -49.5t203 -135t126.5 -199.5
t43.5 -243q0 -127 -43.5 -240.5t-126 -199t-202.5 -135.5t-274 -50q-155 0 -274.5 49.5t-202 135t-125 199.5t-42.5 242q0 129 43 243t125.5 199t202 134.5t272.5 49.5zM528 1326l124 306h258l-216 -306h-166z" />
    <glyph glyph-name="Ocircumflex" unicode="&#xd4;" horiz-adv-x="1439" 
d="M720 1075q-87 0 -161.5 -34.5t-129 -96.5t-85.5 -148.5t-31 -190.5q0 -97 29 -181.5t82.5 -147.5t128 -99t166.5 -36q89 0 164 34.5t129 96.5t84.5 147t30.5 187q0 100 -29.5 186t-83 149t-128.5 98.5t-166 35.5zM719 1233q154 0 274 -49.5t203 -135t126.5 -199.5
t43.5 -243q0 -127 -43.5 -240.5t-126 -199t-202.5 -135.5t-274 -50q-155 0 -274.5 49.5t-202 135t-125 199.5t-42.5 242q0 129 43 243t125.5 199t202 134.5t272.5 49.5zM441 1325l134 329h283l140 -329h-180l-101 252l-101 -252h-175z" />
    <glyph glyph-name="Otilde" unicode="&#xd5;" horiz-adv-x="1439" 
d="M720 1075q-87 0 -161.5 -34.5t-129 -96.5t-85.5 -148.5t-31 -190.5q0 -97 29 -181.5t82.5 -147.5t128 -99t166.5 -36q89 0 164 34.5t129 96.5t84.5 147t30.5 187q0 100 -29.5 186t-83 149t-128.5 98.5t-166 35.5zM719 1233q154 0 274 -49.5t203 -135t126.5 -199.5
t43.5 -243q0 -127 -43.5 -240.5t-126 -199t-202.5 -135.5t-274 -50q-155 0 -274.5 49.5t-202 135t-125 199.5t-42.5 242q0 129 43 243t125.5 199t202 134.5t272.5 49.5zM427 1339q4 55 19 94.5t37 65t50 37.5t58 12q35 0 70 -10.5t68 -23t63.5 -23t57.5 -10.5q44 0 56 62
h106q-7 -100 -50 -156.5t-117 -56.5q-38 0 -73 11t-67 23.5t-61 23.5t-55 11t-37.5 -15.5t-16.5 -44.5h-108z" />
    <glyph glyph-name="Odieresis" unicode="&#xd6;" horiz-adv-x="1439" 
d="M720 1075q-87 0 -161.5 -34.5t-129 -96.5t-85.5 -148.5t-31 -190.5q0 -97 29 -181.5t82.5 -147.5t128 -99t166.5 -36q89 0 164 34.5t129 96.5t84.5 147t30.5 187q0 100 -29.5 186t-83 149t-128.5 98.5t-166 35.5zM719 1233q154 0 274 -49.5t203 -135t126.5 -199.5
t43.5 -243q0 -127 -43.5 -240.5t-126 -199t-202.5 -135.5t-274 -50q-155 0 -274.5 49.5t-202 135t-125 199.5t-42.5 242q0 129 43 243t125.5 199t202 134.5t272.5 49.5zM809 1581h187v-185h-187v185zM631 1581v-185h-187v185h187z" />
    <glyph glyph-name="multiply" unicode="&#xd7;" horiz-adv-x="929" 
d="M384 490l-250 247l85 85l250 -246l256 250l82 -83l-255 -250l250 -245l-85 -85l-251 245l-254 -249l-83 82z" />
    <glyph glyph-name="Oslash" unicode="&#xd8;" horiz-adv-x="1439" 
d="M265 -46l77 128q-65 42 -114.5 98.5t-83.5 124t-51 144t-17 158.5q0 129 43 243t125.5 199t202 134.5t272.5 49.5q75 0 141 -11.5t125 -34.5l71 119l108 -55l-70 -118q66 -42 116.5 -98.5t85 -124.5t52.5 -145t18 -159q0 -127 -43.5 -240.5t-126 -199t-202.5 -135.5
t-274 -50q-76 0 -143 12t-127 35l-77 -129zM895 1035q-39 19 -82.5 29.5t-92.5 10.5q-87 0 -161.5 -34.5t-129 -96.5t-85.5 -148.5t-31 -190.5q0 -107 34.5 -198t96.5 -154zM719 141q89 0 164 34.5t129 96.5t84.5 147t30.5 187q0 111 -35 203.5t-99 155.5l-451 -784
q80 -40 177 -40z" />
    <glyph glyph-name="Ugrave" unicode="&#xd9;" horiz-adv-x="1265" 
d="M639 -19q-138 0 -226 35t-139 97t-70 145.5t-19 181.5v635h-152v140h508v-140h-138v-669q0 -63 13.5 -112.5t42.5 -83t75 -51.5t111 -18q68 0 115.5 17.5t77 52t43 85t13.5 115.5v664h-136v140h473v-140h-154v-655q0 -116 -30.5 -199t-87.5 -136.5t-138 -78.5t-182 -25z
M657 1328l-216 306h258l123 -306h-165z" />
    <glyph glyph-name="Uacute" unicode="&#xda;" horiz-adv-x="1265" 
d="M441 1328l124 306h258l-216 -306h-166zM639 -19q-138 0 -226 35t-139 97t-70 145.5t-19 181.5v635h-152v140h508v-140h-138v-669q0 -63 13.5 -112.5t42.5 -83t75 -51.5t111 -18q68 0 115.5 17.5t77 52t43 85t13.5 115.5v664h-136v140h473v-140h-154v-655
q0 -116 -30.5 -199t-87.5 -136.5t-138 -78.5t-182 -25z" />
    <glyph glyph-name="Ucircumflex" unicode="&#xdb;" horiz-adv-x="1265" 
d="M354 1327l134 329h283l140 -329h-180l-101 252l-101 -252h-175zM639 -19q-138 0 -226 35t-139 97t-70 145.5t-19 181.5v635h-152v140h508v-140h-138v-669q0 -63 13.5 -112.5t42.5 -83t75 -51.5t111 -18q68 0 115.5 17.5t77 52t43 85t13.5 115.5v664h-136v140h473v-140
h-154v-655q0 -116 -30.5 -199t-87.5 -136.5t-138 -78.5t-182 -25z" />
    <glyph glyph-name="Udieresis" unicode="&#xdc;" horiz-adv-x="1265" 
d="M722 1583h187v-185h-187v185zM544 1583v-185h-187v185h187zM639 -19q-138 0 -226 35t-139 97t-70 145.5t-19 181.5v635h-152v140h508v-140h-138v-669q0 -63 13.5 -112.5t42.5 -83t75 -51.5t111 -18q68 0 115.5 17.5t77 52t43 85t13.5 115.5v664h-136v140h473v-140h-154
v-655q0 -116 -30.5 -199t-87.5 -136.5t-138 -78.5t-182 -25z" />
    <glyph glyph-name="Yacute" unicode="&#xdd;" horiz-adv-x="1216" 
d="M335 0v141h167v408l-364 526h-152v140h531v-140h-143l258 -389l243 389h-142v140h494v-140h-159l-348 -525v-409h171v-141h-556zM416 1328l124 306h258l-216 -306h-166z" />
    <glyph glyph-name="Thorn" unicode="&#xde;" horiz-adv-x="1124" 
d="M57 141h163v934h-158v140h377v-154h167q234 0 356.5 -96t122.5 -277q0 -107 -37 -179t-103 -115.5t-158 -61.5t-201 -18h-147v-173h167v-141h-549v141zM439 461h138q80 0 134 16t86.5 45.5t46.5 71.5t14 95q0 56 -14 98.5t-45.5 71t-82 43t-123.5 14.5h-154v-455z" />
    <glyph glyph-name="germandbls" unicode="&#xdf;" horiz-adv-x="1143" 
d="M525 141v-141h-482v141h153v683q0 97 26 173t78 128.5t130.5 80t183.5 27.5q81 0 149 -22t117 -62t76 -95.5t27 -122.5q0 -88 -41.5 -152.5t-132.5 -100.5q138 -32 213 -111.5t75 -198.5q0 -80 -26 -147.5t-83.5 -116.5t-149 -76.5t-222.5 -27.5v141q55 0 103.5 11.5
t84.5 38t57 70t21 107.5q0 46 -15.5 86t-51.5 69.5t-94 46t-143 16.5v140q55 0 93.5 16t63 43t35.5 62t11 73q0 71 -44.5 115t-122.5 44q-47 0 -85 -13t-64.5 -42.5t-41 -77.5t-14.5 -118v-687h116z" />
    <glyph glyph-name="agrave" unicode="&#xe0;" horiz-adv-x="977" 
d="M353 -19q-66 0 -120 20.5t-91.5 55.5t-58 80.5t-20.5 95.5q0 75 28 127t78 84.5t117.5 47t147.5 14.5q48 0 94.5 -5.5t97.5 -15.5v86q0 41 -14 71t-38.5 49.5t-58 29t-72.5 9.5q-82 0 -137.5 -24t-101.5 -70l-101 112q60 59 150 88.5t208 29.5q101 0 170 -22t111.5 -61
t61 -92.5t18.5 -116.5v-433h147v-141h-325l-9 88q-39 -30 -74 -50.5t-68.5 -33t-68 -18t-71.5 -5.5zM626 368q-38 3 -84.5 10t-95.5 7q-39 0 -74.5 -6.5t-62.5 -23t-43 -44.5t-16 -72q0 -27 10 -50t28.5 -40.5t45.5 -27.5t61 -10q60 0 120 22t111 64v171zM513 960l-216 306
h258l123 -306h-165z" />
    <glyph glyph-name="aacute" unicode="&#xe1;" horiz-adv-x="977" 
d="M353 -19q-66 0 -120 20.5t-91.5 55.5t-58 80.5t-20.5 95.5q0 75 28 127t78 84.5t117.5 47t147.5 14.5q48 0 94.5 -5.5t97.5 -15.5v86q0 41 -14 71t-38.5 49.5t-58 29t-72.5 9.5q-82 0 -137.5 -24t-101.5 -70l-101 112q60 59 150 88.5t208 29.5q101 0 170 -22t111.5 -61
t61 -92.5t18.5 -116.5v-433h147v-141h-325l-9 88q-39 -30 -74 -50.5t-68.5 -33t-68 -18t-71.5 -5.5zM626 368q-38 3 -84.5 10t-95.5 7q-39 0 -74.5 -6.5t-62.5 -23t-43 -44.5t-16 -72q0 -27 10 -50t28.5 -40.5t45.5 -27.5t61 -10q60 0 120 22t111 64v171zM297 960l124 306
h258l-216 -306h-166z" />
    <glyph glyph-name="acircumflex" unicode="&#xe2;" horiz-adv-x="977" 
d="M353 -19q-66 0 -120 20.5t-91.5 55.5t-58 80.5t-20.5 95.5q0 75 28 127t78 84.5t117.5 47t147.5 14.5q48 0 94.5 -5.5t97.5 -15.5v86q0 41 -14 71t-38.5 49.5t-58 29t-72.5 9.5q-82 0 -137.5 -24t-101.5 -70l-101 112q60 59 150 88.5t208 29.5q101 0 170 -22t111.5 -61
t61 -92.5t18.5 -116.5v-433h147v-141h-325l-9 88q-39 -30 -74 -50.5t-68.5 -33t-68 -18t-71.5 -5.5zM626 368q-38 3 -84.5 10t-95.5 7q-39 0 -74.5 -6.5t-62.5 -23t-43 -44.5t-16 -72q0 -27 10 -50t28.5 -40.5t45.5 -27.5t61 -10q60 0 120 22t111 64v171zM210 959l134 329
h283l140 -329h-180l-101 252l-101 -252h-175z" />
    <glyph glyph-name="atilde" unicode="&#xe3;" horiz-adv-x="977" 
d="M353 -19q-66 0 -120 20.5t-91.5 55.5t-58 80.5t-20.5 95.5q0 75 28 127t78 84.5t117.5 47t147.5 14.5q48 0 94.5 -5.5t97.5 -15.5v86q0 41 -14 71t-38.5 49.5t-58 29t-72.5 9.5q-82 0 -137.5 -24t-101.5 -70l-101 112q60 59 150 88.5t208 29.5q101 0 170 -22t111.5 -61
t61 -92.5t18.5 -116.5v-433h147v-141h-325l-9 88q-39 -30 -74 -50.5t-68.5 -33t-68 -18t-71.5 -5.5zM626 368q-38 3 -84.5 10t-95.5 7q-39 0 -74.5 -6.5t-62.5 -23t-43 -44.5t-16 -72q0 -27 10 -50t28.5 -40.5t45.5 -27.5t61 -10q60 0 120 22t111 64v171zM196 973
q4 55 19 94.5t37 65t50 37.5t58 12q35 0 70 -10.5t68 -23t63.5 -23t57.5 -10.5q44 0 56 62h106q-7 -100 -50 -156.5t-117 -56.5q-38 0 -73 11t-67 23.5t-61 23.5t-55 11t-37.5 -15.5t-16.5 -44.5h-108z" />
    <glyph glyph-name="adieresis" unicode="&#xe4;" horiz-adv-x="977" 
d="M353 -19q-66 0 -120 20.5t-91.5 55.5t-58 80.5t-20.5 95.5q0 75 28 127t78 84.5t117.5 47t147.5 14.5q48 0 94.5 -5.5t97.5 -15.5v86q0 41 -14 71t-38.5 49.5t-58 29t-72.5 9.5q-82 0 -137.5 -24t-101.5 -70l-101 112q60 59 150 88.5t208 29.5q101 0 170 -22t111.5 -61
t61 -92.5t18.5 -116.5v-433h147v-141h-325l-9 88q-39 -30 -74 -50.5t-68.5 -33t-68 -18t-71.5 -5.5zM626 368q-38 3 -84.5 10t-95.5 7q-39 0 -74.5 -6.5t-62.5 -23t-43 -44.5t-16 -72q0 -27 10 -50t28.5 -40.5t45.5 -27.5t61 -10q60 0 120 22t111 64v171zM578 1215h187v-185
h-187v185zM400 1215v-185h-187v185h187z" />
    <glyph glyph-name="aring" unicode="&#xe5;" horiz-adv-x="977" 
d="M353 -19q-66 0 -120 20.5t-91.5 55.5t-58 80.5t-20.5 95.5q0 75 28 127t78 84.5t117.5 47t147.5 14.5q48 0 94.5 -5.5t97.5 -15.5v86q0 41 -14 71t-38.5 49.5t-58 29t-72.5 9.5q-82 0 -137.5 -24t-101.5 -70l-101 112q60 59 150 88.5t208 29.5q101 0 170 -22t111.5 -61
t61 -92.5t18.5 -116.5v-433h147v-141h-325l-9 88q-39 -30 -74 -50.5t-68.5 -33t-68 -18t-71.5 -5.5zM626 368q-38 3 -84.5 10t-95.5 7q-39 0 -74.5 -6.5t-62.5 -23t-43 -44.5t-16 -72q0 -27 10 -50t28.5 -40.5t45.5 -27.5t61 -10q60 0 120 22t111 64v171zM487 1244
q44 0 78 -13.5t57.5 -36.5t35.5 -53t12 -63q0 -34 -12.5 -65t-36 -55t-57.5 -38t-77 -14t-76.5 14t-57 38t-36 55t-12.5 65q0 33 12 63t35.5 53t57 36.5t77.5 13.5zM487 1175q-50 0 -76.5 -30t-26.5 -69t26.5 -69t76.5 -30t77 30t27 69t-27 69t-77 30z" />
    <glyph glyph-name="ae" unicode="&#xe6;" horiz-adv-x="1542" 
d="M1443 137q-54 -74 -146.5 -115t-215.5 -41q-107 0 -191.5 34t-144.5 94q-78 -60 -176 -94t-216 -34q-66 0 -120 20.5t-91.5 55.5t-58 80.5t-20.5 95.5q0 75 28 127t78 84.5t117.5 47t147.5 14.5q48 0 94.5 -5.5t97.5 -15.5v86q0 41 -14 71t-38.5 49.5t-58 29t-72.5 9.5
q-82 0 -137.5 -24t-101.5 -70l-101 112q60 59 150 88.5t208 29.5q59 0 104.5 -7.5t81.5 -24.5t65.5 -46.5t55.5 -72.5q62 81 141 116t173 35q98 0 172 -37t124 -102.5t75.5 -153.5t25.5 -190h-646q4 -54 21.5 -100t49 -79.5t78 -52.5t108.5 -19q65 0 131 28t114 81zM395 111
q40 0 78.5 9t73.5 23.5t67 32.5t58 37q-34 66 -43 150l-3 5q-38 3 -84.5 10t-95.5 7q-39 0 -74.5 -6.5t-62.5 -23t-43 -44.5t-16 -72q0 -27 10 -50t28.5 -40.5t45.5 -27.5t61 -10zM1288 501q0 47 -16 87t-45 69.5t-69 46.5t-87 17q-52 0 -92.5 -15.5t-69.5 -44.5
t-47.5 -69.5t-25.5 -90.5h452z" />
    <glyph glyph-name="ccedilla" unicode="&#xe7;" horiz-adv-x="969" 
d="M887 535h-157q-10 38 -27.5 70.5t-44 56t-62.5 36.5t-83 13q-59 0 -105.5 -20t-78 -57t-48 -89.5t-16.5 -116.5q0 -66 16.5 -120t48 -92t78 -58.5t105.5 -20.5q78 0 146.5 34.5t111.5 102.5l133 -85q-60 -103 -157.5 -155.5t-236.5 -52.5q-114 0 -199 38t-141 100
t-83.5 141.5t-27.5 162.5q0 93 31.5 174t88.5 141t136 94t174 34q39 0 74 -8t65 -21.5t54.5 -31t42.5 -36.5l-1 80h163v-314zM341 -273q23 -4 47 -4q51 0 84.5 13t33.5 48q0 26 -23 41t-66 18l39 162h72l-17 -97q55 -9 86 -39.5t31 -79.5q0 -31 -12.5 -58.5t-39 -48
t-67.5 -32.5t-98 -12h-14.5t-20 0.5t-20 1.5t-15.5 2v85z" />
    <glyph glyph-name="egrave" unicode="&#xe8;" horiz-adv-x="1017" 
d="M918 137q-57 -74 -154 -115t-228 -41q-110 0 -198 33.5t-149.5 92t-94.5 139t-33 174.5q0 97 35 179t97.5 141.5t147.5 92.5t186 33q106 0 186 -37t133.5 -102.5t80.5 -153.5t27 -190h-686q4 -54 22.5 -100t53 -79.5t85 -52.5t116.5 -19q71 0 141.5 28t123.5 81zM763 501
q-7 48 -25.5 88t-48 69.5t-70.5 46t-93 16.5q-113 0 -175.5 -60t-79.5 -160h492zM534 960l-216 306h258l123 -306h-165z" />
    <glyph glyph-name="eacute" unicode="&#xe9;" horiz-adv-x="1017" 
d="M317 960l124 306h258l-216 -306h-166zM918 137q-57 -74 -154 -115t-228 -41q-110 0 -198 33.5t-149.5 92t-94.5 139t-33 174.5q0 97 35 179t97.5 141.5t147.5 92.5t186 33q106 0 186 -37t133.5 -102.5t80.5 -153.5t27 -190h-686q4 -54 22.5 -100t53 -79.5t85 -52.5
t116.5 -19q71 0 141.5 28t123.5 81zM763 501q-7 48 -25.5 88t-48 69.5t-70.5 46t-93 16.5q-113 0 -175.5 -60t-79.5 -160h492z" />
    <glyph glyph-name="ecircumflex" unicode="&#xea;" horiz-adv-x="1017" 
d="M230 959l134 329h283l140 -329h-180l-101 252l-101 -252h-175zM918 137q-57 -74 -154 -115t-228 -41q-110 0 -198 33.5t-149.5 92t-94.5 139t-33 174.5q0 97 35 179t97.5 141.5t147.5 92.5t186 33q106 0 186 -37t133.5 -102.5t80.5 -153.5t27 -190h-686q4 -54 22.5 -100
t53 -79.5t85 -52.5t116.5 -19q71 0 141.5 28t123.5 81zM763 501q-7 48 -25.5 88t-48 69.5t-70.5 46t-93 16.5q-113 0 -175.5 -60t-79.5 -160h492z" />
    <glyph glyph-name="edieresis" unicode="&#xeb;" horiz-adv-x="1017" 
d="M599 1215h187v-185h-187v185zM421 1215v-185h-187v185h187zM918 137q-57 -74 -154 -115t-228 -41q-110 0 -198 33.5t-149.5 92t-94.5 139t-33 174.5q0 97 35 179t97.5 141.5t147.5 92.5t186 33q106 0 186 -37t133.5 -102.5t80.5 -153.5t27 -190h-686q4 -54 22.5 -100
t53 -79.5t85 -52.5t116.5 -19q71 0 141.5 28t123.5 81zM763 501q-7 48 -25.5 88t-48 69.5t-70.5 46t-93 16.5q-113 0 -175.5 -60t-79.5 -160h492z" />
    <glyph glyph-name="igrave" unicode="&#xec;" horiz-adv-x="509" 
d="M67 709v140h333v-709h137v-140h-470v140h137v569h-137zM225 968l-216 306h258l123 -306h-165z" />
    <glyph glyph-name="iacute" unicode="&#xed;" horiz-adv-x="509" 
d="M92 968l124 306h258l-216 -306h-166zM67 709v140h333v-709h137v-140h-470v140h137v569h-137z" />
    <glyph glyph-name="icircumflex" unicode="&#xee;" horiz-adv-x="509" 
d="M-39 968l134 329h283l140 -329h-180l-101 252l-101 -252h-175zM67 709v140h333v-709h137v-140h-470v140h137v569h-137z" />
    <glyph glyph-name="idieresis" unicode="&#xef;" horiz-adv-x="509" 
d="M331 1212h187v-185h-187v185zM153 1212v-185h-187v185h187zM67 709v140h333v-709h137v-140h-470v140h137v569h-137z" />
    <glyph glyph-name="eth" unicode="&#xf0;" horiz-adv-x="1006" 
d="M510 968l126 33q-34 41 -79 60.5t-99 19.5q-96 0 -215 -61l-66 124q22 17 54.5 33t69.5 28.5t77 20t78 7.5q121 0 209.5 -47.5t145.5 -137.5l158 43l35 -120l-138 -37q51 -141 51 -338q0 -303 -110 -459t-331 -156q-92 0 -164 30t-122.5 84.5t-77 131t-26.5 170.5
q0 81 26 149t73.5 116.5t113 75.5t144.5 27q83 0 155.5 -25.5t125.5 -76.5q0 133 -29 225l-150 -40zM478 605q-49 0 -87.5 -16.5t-65 -46t-40.5 -71t-14 -91.5q0 -54 13.5 -99t40 -78t66 -51.5t91.5 -18.5q61 0 103.5 24.5t70.5 71.5t43 114.5t21 154.5q-25 27 -56.5 47.5
t-64 33.5t-64 19.5t-57.5 6.5z" />
    <glyph glyph-name="ntilde" unicode="&#xf1;" horiz-adv-x="1105" 
d="M61 709v140h344v-23t0.5 -31.5t1 -30.5t0.5 -19q75 60 143.5 90.5t141.5 30.5q54 0 100.5 -18t80 -53t53 -87.5t19.5 -121.5v-32.5t-0.5 -56.5t-0.5 -72.5v-78.5v-205h143v-141h-432v141h94v394q0 86 -24.5 131t-86.5 45q-64 0 -122.5 -33.5t-108.5 -84.5v-452h121v-141
h-463v141h144v568h-148zM260 973q4 55 19 94.5t37 65t50 37.5t58 12q35 0 70 -10.5t68 -23t63.5 -23t57.5 -10.5q44 0 56 62h106q-7 -100 -50 -156.5t-117 -56.5q-38 0 -73 11t-67 23.5t-61 23.5t-55 11t-37.5 -15.5t-16.5 -44.5h-108z" />
    <glyph glyph-name="ograve" unicode="&#xf2;" horiz-adv-x="1029" 
d="M760 424q0 63 -17 116t-49 91t-77.5 59t-103.5 21q-57 0 -102.5 -21t-77 -59t-48.5 -91t-17 -117q0 -63 17 -116t49 -90.5t77.5 -58.5t102.5 -21t102.5 21t77.5 59t49 90.5t17 116.5zM967 424q0 -95 -32.5 -176t-92 -140t-143 -93t-186.5 -34q-101 0 -184 33.5t-142 92.5
t-91.5 140t-32.5 177q0 97 33.5 178.5t93.5 140t143 91t182 32.5q101 0 184 -33t142.5 -92t92.5 -140t33 -177zM540 960l-216 306h258l123 -306h-165z" />
    <glyph glyph-name="oacute" unicode="&#xf3;" horiz-adv-x="1029" 
d="M323 960l124 306h258l-216 -306h-166zM760 424q0 63 -17 116t-49 91t-77.5 59t-103.5 21q-57 0 -102.5 -21t-77 -59t-48.5 -91t-17 -117q0 -63 17 -116t49 -90.5t77.5 -58.5t102.5 -21t102.5 21t77.5 59t49 90.5t17 116.5zM967 424q0 -95 -32.5 -176t-92 -140t-143 -93
t-186.5 -34q-101 0 -184 33.5t-142 92.5t-91.5 140t-32.5 177q0 97 33.5 178.5t93.5 140t143 91t182 32.5q101 0 184 -33t142.5 -92t92.5 -140t33 -177z" />
    <glyph glyph-name="ocircumflex" unicode="&#xf4;" horiz-adv-x="1029" 
d="M235 959l134 329h283l140 -329h-180l-101 252l-101 -252h-175zM760 424q0 63 -17 116t-49 91t-77.5 59t-103.5 21q-57 0 -102.5 -21t-77 -59t-48.5 -91t-17 -117q0 -63 17 -116t49 -90.5t77.5 -58.5t102.5 -21t102.5 21t77.5 59t49 90.5t17 116.5zM967 424
q0 -95 -32.5 -176t-92 -140t-143 -93t-186.5 -34q-101 0 -184 33.5t-142 92.5t-91.5 140t-32.5 177q0 97 33.5 178.5t93.5 140t143 91t182 32.5q101 0 184 -33t142.5 -92t92.5 -140t33 -177z" />
    <glyph glyph-name="otilde" unicode="&#xf5;" horiz-adv-x="1029" 
d="M760 424q0 63 -17 116t-49 91t-77.5 59t-103.5 21q-57 0 -102.5 -21t-77 -59t-48.5 -91t-17 -117q0 -63 17 -116t49 -90.5t77.5 -58.5t102.5 -21t102.5 21t77.5 59t49 90.5t17 116.5zM967 424q0 -95 -32.5 -176t-92 -140t-143 -93t-186.5 -34q-101 0 -184 33.5t-142 92.5
t-91.5 140t-32.5 177q0 97 33.5 178.5t93.5 140t143 91t182 32.5q101 0 184 -33t142.5 -92t92.5 -140t33 -177zM222 973q4 55 19 94.5t37 65t50 37.5t58 12q35 0 70 -10.5t68 -23t63.5 -23t57.5 -10.5q44 0 56 62h106q-7 -100 -50 -156.5t-117 -56.5q-38 0 -73 11t-67 23.5
t-61 23.5t-55 11t-37.5 -15.5t-16.5 -44.5h-108z" />
    <glyph glyph-name="odieresis" unicode="&#xf6;" horiz-adv-x="1029" 
d="M760 424q0 63 -17 116t-49 91t-77.5 59t-103.5 21q-57 0 -102.5 -21t-77 -59t-48.5 -91t-17 -117q0 -63 17 -116t49 -90.5t77.5 -58.5t102.5 -21t102.5 21t77.5 59t49 90.5t17 116.5zM967 424q0 -95 -32.5 -176t-92 -140t-143 -93t-186.5 -34q-101 0 -184 33.5t-142 92.5
t-91.5 140t-32.5 177q0 97 33.5 178.5t93.5 140t143 91t182 32.5q101 0 184 -33t142.5 -92t92.5 -140t33 -177zM604 1215h187v-185h-187v185zM426 1215v-185h-187v185h187z" />
    <glyph glyph-name="divide" unicode="&#xf7;" horiz-adv-x="1164" 
d="M1001 613v-118h-843v118h843zM550 824q-10 0 -18 14t-14 33t-9 37.5t-3 26.5q0 9 13 16.5t30.5 13t35.5 8.5t27 3t17 -14.5t14 -33t9.5 -37t3.5 -27.5t-13 -16t-31 -12.5t-35.5 -8.5t-26.5 -3zM550 131q-10 0 -18 14.5t-14 33.5t-9 37.5t-3 27.5q0 8 13 15.5t30.5 13
t35.5 8.5t27 3t17 -14.5t14 -33.5t9.5 -37.5t3.5 -27.5t-13 -16t-31 -12.5t-35.5 -8.5t-26.5 -3z" />
    <glyph glyph-name="oslash" unicode="&#xf8;" horiz-adv-x="967" 
d="M483 -20q-38 0 -73 5t-67 14l-64 -125l-94 43l63 124q-91 57 -140.5 152t-49.5 209q0 87 30 163.5t85.5 134t134.5 91t177 33.5q86 0 152 -25l65 127l94 -43l-66 -130q86 -57 133.5 -148t47.5 -203q0 -87 -30 -163.5t-86 -134t-135 -91t-177 -33.5zM217 402
q0 -73 24.5 -133.5t72.5 -100.5l260 509q-44 15 -91 15q-62 0 -111 -22.5t-83.5 -61.5t-53 -92t-18.5 -114zM483 111q62 0 111.5 22t84.5 61t53.5 92.5t18.5 115.5q0 69 -23 125.5t-65 95.5l-257 -503q34 -9 77 -9z" />
    <glyph glyph-name="ugrave" unicode="&#xf9;" horiz-adv-x="1087" 
d="M1040 141v-141h-341l-4 96q-66 -57 -134.5 -86t-140.5 -29q-69 0 -119.5 20t-83.5 57t-48.5 90.5t-15.5 120.5v440h-127v140h324v-557q0 -76 26.5 -115.5t94.5 -39.5q61 0 118.5 33.5t105.5 88.5v450h-141v140h339v-708h147zM569 960l-216 306h258l123 -306h-165z" />
    <glyph glyph-name="uacute" unicode="&#xfa;" horiz-adv-x="1087" 
d="M1040 141v-141h-341l-4 96q-66 -57 -134.5 -86t-140.5 -29q-69 0 -119.5 20t-83.5 57t-48.5 90.5t-15.5 120.5v440h-127v140h324v-557q0 -76 26.5 -115.5t94.5 -39.5q61 0 118.5 33.5t105.5 88.5v450h-141v140h339v-708h147zM352 960l124 306h258l-216 -306h-166z" />
    <glyph glyph-name="ucircumflex" unicode="&#xfb;" horiz-adv-x="1087" 
d="M1040 141v-141h-341l-4 96q-66 -57 -134.5 -86t-140.5 -29q-69 0 -119.5 20t-83.5 57t-48.5 90.5t-15.5 120.5v440h-127v140h324v-557q0 -76 26.5 -115.5t94.5 -39.5q61 0 118.5 33.5t105.5 88.5v450h-141v140h339v-708h147zM265 959l134 329h283l140 -329h-180l-101 252
l-101 -252h-175z" />
    <glyph glyph-name="udieresis" unicode="&#xfc;" horiz-adv-x="1087" 
d="M1040 141v-141h-341l-4 96q-66 -57 -134.5 -86t-140.5 -29q-69 0 -119.5 20t-83.5 57t-48.5 90.5t-15.5 120.5v440h-127v140h324v-557q0 -76 26.5 -115.5t94.5 -39.5q61 0 118.5 33.5t105.5 88.5v450h-141v140h339v-708h147zM633 1215h187v-185h-187v185zM455 1215v-185
h-187v185h187z" />
    <glyph glyph-name="yacute" unicode="&#xfd;" horiz-adv-x="1049" 
d="M721 709h-113v140h432v-140h-131l-259 -732q-29 -83 -54 -146t-61.5 -106.5t-92 -65.5t-145.5 -22h-118v157h98q36 0 62.5 4t47.5 18.5t37.5 44t32.5 80.5l31 104h-69l-289 664h-128v140h451v-140h-106l198 -534zM333 960l124 306h258l-216 -306h-166z" />
    <glyph glyph-name="thorn" unicode="&#xfe;" horiz-adv-x="835" 
d="M-96 -186h143v1261h-147v140h345v-465q65 60 133.5 88t157.5 28q92 0 166.5 -33.5t127 -91.5t81 -137.5t28.5 -170.5q0 -103 -31 -186.5t-85.5 -142.5t-128.5 -91t-159 -32q-42 0 -83 8t-79 23.5t-71 38.5t-57 53v-434h-341v144zM480 137q60 0 107 20.5t79 58t49 89.5
t17 114q0 63 -17 116t-49.5 92t-79.5 61t-107 22q-47 0 -86.5 -15.5t-69.5 -36t-50 -41t-28 -30.5v-334q9 -9 29.5 -28.5t50.5 -39t69.5 -34t85.5 -14.5z" />
    <glyph glyph-name="ydieresis" unicode="&#xff;" horiz-adv-x="1049" 
d="M721 709h-113v140h432v-140h-131l-259 -732q-29 -83 -54 -146t-61.5 -106.5t-92 -65.5t-145.5 -22h-118v157h98q36 0 62.5 4t47.5 18.5t37.5 44t32.5 80.5l31 104h-69l-289 664h-128v140h451v-140h-106l198 -534zM614 1215h187v-185h-187v185zM436 1215v-185h-187v185
h187z" />
    <glyph glyph-name="hbar" unicode="&#x127;" horiz-adv-x="1024" 
d="M58 997h124v78h-149v140h345v-218h99v-85h-99v-143q76 51 145.5 74t144.5 23q131 0 197.5 -72t66.5 -203v-450h131v-141h-420v141h94v412q0 34 -6 63t-20.5 50t-39 33t-61.5 12q-52 0 -111 -20t-121 -60v-490h125v-141h-472v141h151v771h-124v85z" />
    <glyph glyph-name="Itilde" unicode="&#x128;" horiz-adv-x="662" 
d="M67 0v141h154v934h-154v140h527v-140h-154v-934h154v-141h-527zM38 1339q4 55 19 94.5t37 65t50 37.5t58 12q35 0 70 -10.5t68 -23t63.5 -23t57.5 -10.5q44 0 56 62h106q-7 -100 -50 -156.5t-117 -56.5q-38 0 -73 11t-67 23.5t-61 23.5t-55 11t-37.5 -15.5t-16.5 -44.5
h-108z" />
    <glyph glyph-name="itilde" unicode="&#x129;" horiz-adv-x="509" 
d="M67 709v140h333v-709h137v-140h-470v140h137v569h-137zM-37 973q4 55 19 94.5t37 65t50 37.5t58 12q35 0 70 -10.5t68 -23t63.5 -23t57.5 -10.5q44 0 56 62h106q-7 -100 -50 -156.5t-117 -56.5q-38 0 -73 11t-67 23.5t-61 23.5t-55 11t-37.5 -15.5t-16.5 -44.5h-108z" />
    <glyph glyph-name="dotlessi" unicode="&#x131;" horiz-adv-x="571" 
d="M67 709v140h333v-709h137v-140h-470v140h137v569h-137z" />
    <glyph glyph-name="IJ" unicode="&#x132;" horiz-adv-x="1293" 
d="M67 0v141h154v934h-154v140h527v-140h-154v-934h154v-141h-527zM623 -83h125q40 0 65 13t39 35t18.5 51.5t4.5 63.5v995h-169v140h550v-140h-162v-987q0 -78 -15.5 -141.5t-50.5 -108.5t-92.5 -69.5t-141.5 -24.5h-171v173z" />
    <glyph glyph-name="ij" unicode="&#x133;" horiz-adv-x="1090" 
d="M301 1227q24 0 45 -8.5t36.5 -23t24.5 -34.5t9 -42q0 -23 -9 -42.5t-24.5 -34t-36.5 -23t-45 -8.5t-44.5 8.5t-35.5 23t-24 34t-9 42.5q0 22 9 42t24 34.5t35.5 23t44.5 8.5zM67 709v140h333v-708h137v-141h-470v141h137v568h-137zM842 1227q24 0 44.5 -8.5t36.5 -23
t25 -34.5t9 -42q0 -23 -9 -42.5t-25 -34t-36.5 -23t-44.5 -8.5q-49 0 -81.5 31t-32.5 77q0 22 8.5 42t24 34.5t36.5 23t45 8.5zM581 709v140h365v-802q0 -87 -9 -158.5t-42.5 -122.5t-99.5 -79.5t-180 -28.5h-96v156h96q39 0 64.5 10t41 31t21.5 54t6 78v722h-167z" />
    <glyph glyph-name="Jcircumflex" unicode="&#x134;" horiz-adv-x="645" 
d="M-25 -83h125q40 0 65 13t39 35t18.5 51.5t4.5 63.5v995h-169v140h550v-140h-162v-987q0 -78 -15.5 -141.5t-50.5 -108.5t-92.5 -69.5t-141.5 -24.5h-171v173zM44 1325l134 329h283l140 -329h-180l-101 252l-101 -252h-175z" />
    <glyph glyph-name="jcircumflex" unicode="&#x135;" horiz-adv-x="441" 
d="M14 709v140h365v-802q0 -87 -9 -158.5t-42.5 -122.5t-99.5 -79.5t-180 -28.5h-96v156h96q39 0 64.5 10t41 31t21.5 54t6 78v722h-167zM-57 959l134 329h283l140 -329h-180l-101 252l-101 -252h-175z" />
    <glyph glyph-name="kcommaaccent" unicode="&#x137;" horiz-adv-x="1088" 
d="M35 0v141h151v934h-152v140h347v-766l319 260h-145v140h486v-140h-139l-313 -269l325 -299h139v-141h-445v141h84l-311 287v-287h110v-141h-456zM398 -144h246q1 -50 3 -94q2 -38 3 -74t1 -53q0 -72 -12.5 -126.5t-42.5 -91t-79.5 -55t-122.5 -19.5v102q36 7 61 19t41 32
t23 49t7 70h-128v241z" />
    <glyph glyph-name="kgreenlandic" unicode="&#x138;" horiz-adv-x="1088" 
d="M35 0v141h151v568h-152v140h347v-410l307 270h-133v140h486v-140h-137l-315 -279l328 -289h136v-141h-445v141h87l-314 277v-277h110v-141h-456z" />
    <glyph glyph-name="Ldot" unicode="&#x13f;" horiz-adv-x="520" 
 />
    <glyph glyph-name="ldot" unicode="&#x140;" horiz-adv-x="914" 
d="M36 0v141h151v934h-149v140h345v-1074h135v-141h-482z" />
    <glyph glyph-name="Lslash" unicode="&#x141;" horiz-adv-x="1076" 
d="M60 579l167 66v430h-169v140h554v-140h-167v-343l182 73v-129l-182 -73v-462h409v365h180v-506h-976v141h169v375l-167 -66v129z" />
    <glyph glyph-name="lslash" unicode="&#x142;" horiz-adv-x="556" 
d="M36 0v141h151v353l-119 -44v129l119 46v450h-149v140h345v-514l121 47v-136l-121 -45v-426h135v-141h-482z" />
    <glyph glyph-name="Nacute" unicode="&#x143;" horiz-adv-x="1406" 
d="M1032 1075h-169v140h511v-140h-178v-1075h-216l-591 1006v-865h170v-141h-506v141h173v934h-173v140h436l543 -926v786zM512 1326l124 306h258l-216 -306h-166z" />
    <glyph glyph-name="nacute" unicode="&#x144;" horiz-adv-x="1105" 
d="M362 960l124 306h258l-216 -306h-166zM61 709v140h344v-23t0.5 -31.5t1 -30.5t0.5 -19q75 60 143.5 90.5t141.5 30.5q54 0 100.5 -18t80 -53t53 -87.5t19.5 -121.5v-32.5t-0.5 -56.5t-0.5 -72.5v-78.5v-205h143v-141h-432v141h94v394q0 86 -24.5 131t-86.5 45
q-64 0 -122.5 -33.5t-108.5 -84.5v-452h121v-141h-463v141h144v568h-148z" />
    <glyph glyph-name="OE" unicode="&#x152;" horiz-adv-x="2046" 
d="M1960 1215v-348h-166v208h-496v-379h328v116h101v-378h-102v113h-327v-406h498v214h167v-355h-883v91q-69 -52 -160.5 -81t-206.5 -29q-153 0 -271.5 49.5t-200 135t-123.5 199.5t-42 242q0 129 42.5 243t124 199t200 134.5t269.5 49.5q115 0 207 -28.5t161 -80.5v91h880
zM314 605q0 -105 31 -191t86.5 -146.5t132 -93.5t166.5 -33q103 0 192 31t158 91v693q-71 58 -159 88.5t-193 30.5q-87 0 -162.5 -31t-131.5 -91t-88 -147.5t-32 -200.5z" />
    <glyph glyph-name="oe" unicode="&#x153;" horiz-adv-x="1715" 
d="M1616 137q-57 -74 -154 -115t-228 -41q-121 0 -214.5 45t-155.5 123q-60 -78 -148.5 -123t-202.5 -45q-101 0 -184 33.5t-142 92.5t-91.5 140t-32.5 177q0 97 33.5 178.5t93.5 140t143 91t182 32.5q113 0 202.5 -45.5t149.5 -124.5q63 79 154.5 124.5t203.5 45.5
q106 0 186 -37t133.5 -102.5t80.5 -153.5t27 -190h-686q4 -54 22.5 -100t53 -79.5t85 -52.5t116.5 -19q71 0 141.5 28t123.5 81zM760 424q0 63 -17 116t-49 91t-77.5 59t-103.5 21q-57 0 -102.5 -21t-77 -59t-48.5 -91t-17 -117q0 -63 17 -116t49 -90.5t77.5 -58.5
t102.5 -21t102.5 21t77.5 59t49 90.5t17 116.5zM1461 501q-7 48 -25.5 88t-48 69.5t-70.5 46t-93 16.5q-113 0 -175.5 -60t-79.5 -160h492z" />
    <glyph glyph-name="Racute" unicode="&#x154;" horiz-adv-x="1220" 
d="M418 1328l124 306h258l-216 -306h-166zM443 702h199q63 0 104.5 17t66.5 44t35 61t10 69q0 37 -13 70t-38.5 58t-63 39.5t-87.5 14.5h-213v-373zM1222 141v-141h-324l-295 557h-160v-416h160v-141h-548v141h170v934h-170v140h599q92 0 169.5 -18t134 -56.5t88 -99
t31.5 -145.5q0 -122 -65 -201t-203 -114l242 -440h171z" />
    <glyph glyph-name="Rcommaaccent" unicode="&#x156;" horiz-adv-x="1220" 
d="M443 702h199q63 0 104.5 17t66.5 44t35 61t10 69q0 37 -13 70t-38.5 58t-63 39.5t-87.5 14.5h-213v-373zM1222 141v-141h-324l-295 557h-160v-416h160v-141h-548v141h170v934h-170v140h599q92 0 169.5 -18t134 -56.5t88 -99t31.5 -145.5q0 -122 -65 -201t-203 -114
l242 -440h171zM485 -144h246q1 -50 3 -94q2 -38 3 -74t1 -53q0 -72 -12.5 -126.5t-42.5 -91t-79.5 -55t-122.5 -19.5v102q36 7 61 19t41 32t23 49t7 70h-128v241z" />
    <glyph glyph-name="rcommaaccent" unicode="&#x157;" horiz-adv-x="806" 
d="M602 141v-141h-541v141h165v568h-165v140h335l1 -192q26 58 58.5 98t72 65t85.5 35.5t99 10.5q17 0 38 -2t31 -3l-2 -180l-9 0.5t-20.5 1t-22.5 1t-17 0.5q-78 0 -132.5 -20t-89 -59t-50.5 -96t-16 -130v-238h180zM278 -144h246q1 -50 3 -94q2 -38 3 -74t1 -53
q0 -72 -12.5 -126.5t-42.5 -91t-79.5 -55t-122.5 -19.5v102q36 7 61 19t41 32t23 49t7 70h-128v241z" />
    <glyph glyph-name="Rcaron" unicode="&#x158;" horiz-adv-x="1220" 
d="M458 1539l154 -154l152 154h104l-159 -259h-196l-162 259h107zM443 702h199q63 0 104.5 17t66.5 44t35 61t10 69q0 37 -13 70t-38.5 58t-63 39.5t-87.5 14.5h-213v-373zM1222 141v-141h-324l-295 557h-160v-416h160v-141h-548v141h170v934h-170v140h599q92 0 169.5 -18
t134 -56.5t88 -99t31.5 -145.5q0 -122 -65 -201t-203 -114l242 -440h171z" />
    <glyph glyph-name="rcaron" unicode="&#x159;" horiz-adv-x="806" 
d="M251 1171l154 -154l152 154h104l-159 -259h-196l-162 259h107zM602 141v-141h-541v141h165v568h-165v140h335l1 -192q26 58 58.5 98t72 65t85.5 35.5t99 10.5q17 0 38 -2t31 -3l-2 -180l-9 0.5t-20.5 1t-22.5 1t-17 0.5q-78 0 -132.5 -20t-89 -59t-50.5 -96t-16 -130
v-238h180z" />
    <glyph glyph-name="Scaron" unicode="&#x160;" horiz-adv-x="1008" 
d="M551 -19q-166 0 -285 108l-1 -89h-171v407h171v-110q48 -77 109 -116.5t148 -39.5q47 0 85.5 13.5t66 37.5t42.5 57t15 72q0 52 -24 87t-65 60t-97 44t-120 38q-67 20 -128.5 46t-108 66.5t-74.5 98.5t-28 141q0 82 28.5 144t79 103.5t119 62.5t149.5 21q71 0 134 -24
t113 -71v77h169v-351h-169v97q-45 57 -99.5 85t-126.5 28q-48 0 -85 -12t-63 -32t-39.5 -47.5t-13.5 -58.5q0 -53 28.5 -87t74.5 -58.5t105.5 -43t121 -39.5t121 -48t105.5 -68.5t74.5 -101.5t28.5 -146q0 -83 -31.5 -148t-85 -110t-124.5 -69t-149 -24zM352 1537l154 -154
l152 154h104l-159 -259h-196l-162 259h107z" />
    <glyph glyph-name="scaron" unicode="&#x161;" horiz-adv-x="873" 
d="M87 283h156v-67q28 -47 82.5 -72t126.5 -25q85 0 131 26.5t46 78.5q0 33 -23.5 53.5t-62.5 34.5t-88.5 24.5t-101.5 23.5t-101.5 31t-88.5 47.5t-62.5 73.5t-23.5 109q0 51 22.5 96t63.5 78t99 52t129 19q59 0 114 -17.5t95 -52.5v53h162v-264h-162v69q-31 36 -76 55.5
t-111 19.5q-74 0 -116.5 -25.5t-42.5 -71.5q0 -31 24 -50.5t63 -32.5t89 -23t102 -23t102 -32t89 -50t63 -77.5t24 -113.5q0 -55 -23 -101t-66.5 -79t-105.5 -51t-139 -18q-79 0 -133.5 17t-99.5 53v-51h-156v283zM285 1171l154 -154l152 154h104l-159 -259h-196l-162 259
h107z" />
    <glyph glyph-name="Ydieresis" unicode="&#x178;" horiz-adv-x="1216" 
d="M335 0v141h167v408l-364 526h-152v140h531v-140h-143l258 -389l243 389h-142v140h494v-140h-159l-348 -525v-409h171v-141h-556zM698 1581h187v-185h-187v185zM520 1581v-185h-187v185h187z" />
    <glyph glyph-name="Zcaron" unicode="&#x17d;" horiz-adv-x="1098" 
d="M73 0v151l664 924h-473v-220h-159v360h901v-134l-673 -940h525v234h158v-375h-943zM397 1537l154 -154l152 154h104l-159 -259h-196l-162 259h107z" />
    <glyph glyph-name="zcaron" unicode="&#x17e;" horiz-adv-x="906" 
d="M60 0v135l535 580h-349v-153h-146v287h729v-139l-539 -577h387v165h151v-298h-768zM301 1171l154 -154l152 154h104l-159 -259h-196l-162 259h107z" />
    <glyph glyph-name="florin" unicode="&#x192;" horiz-adv-x="916" 
d="M739 669h-209l-124 -633q-22 -111 -58 -184.5t-85.5 -117.5t-113 -62.5t-139.5 -18.5q-39 0 -80 6.5t-69 15.5l25 103q21 -8 55.5 -15.5t64.5 -7.5q31 0 53.5 15t40.5 48t32.5 87t29.5 132l121 632h-161l20 114h161l31 154q14 70 41.5 125.5t70.5 93t102.5 57.5t137.5 20
q63 0 110 -10t77.5 -27.5t45.5 -41.5t15 -52t-9 -52.5t-30.5 -42.5t-58 -28t-90.5 -10q0 80 -17 125.5t-51 45.5q-39 0 -58.5 -47t-37.5 -145l-32 -165h210z" />
    <glyph glyph-name="uni0200" unicode="&#x200;" horiz-adv-x="1263" 
d="M-11 141h147l292 934h-118v140h641v-140h-118l296 -934h144v-141h-515v141h156l-78 295h-430l-80 -295h159v-141h-496v141zM795 577l-151 498h-41l-155 -498h347zM499 1321l-214 311h252l121 -311h-159zM820 1321l-215 311h252l121 -311h-158z" />
    <glyph glyph-name="uni0201" unicode="&#x201;" horiz-adv-x="977" 
d="M353 -19q-66 0 -120 20.5t-91.5 55.5t-58 80.5t-20.5 95.5q0 75 28 127t78 84.5t117.5 47t147.5 14.5q48 0 94.5 -5.5t97.5 -15.5v86q0 41 -14 71t-38.5 49.5t-58 29t-72.5 9.5q-82 0 -137.5 -24t-101.5 -70l-101 112q60 59 150 88.5t208 29.5q101 0 170 -22t111.5 -61
t61 -92.5t18.5 -116.5v-433h147v-141h-325l-9 88q-39 -30 -74 -50.5t-68.5 -33t-68 -18t-71.5 -5.5zM626 368q-38 3 -84.5 10t-95.5 7q-39 0 -74.5 -6.5t-62.5 -23t-43 -44.5t-16 -72q0 -27 10 -50t28.5 -40.5t45.5 -27.5t61 -10q60 0 120 22t111 64v171zM356 955l-214 311
h252l121 -311h-159zM677 955l-215 311h252l121 -311h-158z" />
    <glyph glyph-name="uni0202" unicode="&#x202;" horiz-adv-x="1263" 
d="M-11 141h147l292 934h-118v140h641v-140h-118l296 -934h144v-141h-515v141h156l-78 295h-430l-80 -295h159v-141h-496v141zM795 577l-151 498h-41l-155 -498h347zM367 1326q4 54 25.5 98t56 75.5t81 48.5t100.5 17q55 0 101.5 -17.5t81 -49t56 -75.5t26.5 -97h-133
q-8 57 -43 88t-89 31q-57 0 -90.5 -31t-43.5 -88h-129z" />
    <glyph glyph-name="uni0203" unicode="&#x203;" horiz-adv-x="977" 
d="M353 -19q-66 0 -120 20.5t-91.5 55.5t-58 80.5t-20.5 95.5q0 75 28 127t78 84.5t117.5 47t147.5 14.5q48 0 94.5 -5.5t97.5 -15.5v86q0 41 -14 71t-38.5 49.5t-58 29t-72.5 9.5q-82 0 -137.5 -24t-101.5 -70l-101 112q60 59 150 88.5t208 29.5q101 0 170 -22t111.5 -61
t61 -92.5t18.5 -116.5v-433h147v-141h-325l-9 88q-39 -30 -74 -50.5t-68.5 -33t-68 -18t-71.5 -5.5zM626 368q-38 3 -84.5 10t-95.5 7q-39 0 -74.5 -6.5t-62.5 -23t-43 -44.5t-16 -72q0 -27 10 -50t28.5 -40.5t45.5 -27.5t61 -10q60 0 120 22t111 64v171zM224 960
q4 54 25.5 98t56 75.5t81 48.5t100.5 17q55 0 101.5 -17.5t81 -49t56 -75.5t26.5 -97h-133q-8 57 -43 88t-89 31q-57 0 -90.5 -31t-43.5 -88h-129z" />
    <glyph glyph-name="uni0204" unicode="&#x204;" horiz-adv-x="1186" 
d="M62 0v141h158v934h-158v140h1039v-348h-166v208h-497v-379h328v116h102v-378h-102v113h-327v-406h498v214h166v-355h-1041zM460 1321l-214 311h252l121 -311h-159zM781 1321l-215 311h252l121 -311h-158z" />
    <glyph glyph-name="uni0205" unicode="&#x205;" horiz-adv-x="1017" 
d="M918 137q-57 -74 -154 -115t-228 -41q-110 0 -198 33.5t-149.5 92t-94.5 139t-33 174.5q0 97 35 179t97.5 141.5t147.5 92.5t186 33q106 0 186 -37t133.5 -102.5t80.5 -153.5t27 -190h-686q4 -54 22.5 -100t53 -79.5t85 -52.5t116.5 -19q71 0 141.5 28t123.5 81zM763 501
q-7 48 -25.5 88t-48 69.5t-70.5 46t-93 16.5q-113 0 -175.5 -60t-79.5 -160h492zM376 955l-214 311h252l121 -311h-159zM697 955l-215 311h252l121 -311h-158z" />
    <glyph glyph-name="uni0206" unicode="&#x206;" horiz-adv-x="1186" 
d="M62 0v141h158v934h-158v140h1039v-348h-166v208h-497v-379h328v116h102v-378h-102v113h-327v-406h498v214h166v-355h-1041zM329 1326q4 54 25.5 98t56 75.5t81 48.5t100.5 17q55 0 101.5 -17.5t81 -49t56 -75.5t26.5 -97h-133q-8 57 -43 88t-89 31q-57 0 -90.5 -31
t-43.5 -88h-129z" />
    <glyph glyph-name="uni0207" unicode="&#x207;" horiz-adv-x="1017" 
d="M918 137q-57 -74 -154 -115t-228 -41q-110 0 -198 33.5t-149.5 92t-94.5 139t-33 174.5q0 97 35 179t97.5 141.5t147.5 92.5t186 33q106 0 186 -37t133.5 -102.5t80.5 -153.5t27 -190h-686q4 -54 22.5 -100t53 -79.5t85 -52.5t116.5 -19q71 0 141.5 28t123.5 81zM763 501
q-7 48 -25.5 88t-48 69.5t-70.5 46t-93 16.5q-113 0 -175.5 -60t-79.5 -160h492zM244 960q4 54 25.5 98t56 75.5t81 48.5t100.5 17q55 0 101.5 -17.5t81 -49t56 -75.5t26.5 -97h-133q-8 57 -43 88t-89 31q-57 0 -90.5 -31t-43.5 -88h-129z" />
    <glyph glyph-name="uni0208" unicode="&#x208;" horiz-adv-x="662" 
d="M67 0v141h154v934h-154v140h527v-140h-154v-934h154v-141h-527zM200 1321l-214 311h252l121 -311h-159zM521 1321l-215 311h252l121 -311h-158z" />
    <glyph glyph-name="uni0209" unicode="&#x209;" horiz-adv-x="571" 
d="M67 709v140h333v-709h137v-140h-470v140h137v569h-137zM154 955l-214 311h252l121 -311h-159zM475 955l-215 311h252l121 -311h-158z" />
    <glyph glyph-name="uni020A" unicode="&#x20a;" horiz-adv-x="662" 
d="M67 0v141h154v934h-154v140h527v-140h-154v-934h154v-141h-527zM67 1326q4 54 25.5 98t56 75.5t81 48.5t100.5 17q55 0 101.5 -17.5t81 -49t56 -75.5t26.5 -97h-133q-8 57 -43 88t-89 31q-57 0 -90.5 -31t-43.5 -88h-129z" />
    <glyph glyph-name="uni020B" unicode="&#x20b;" horiz-adv-x="571" 
d="M301 1227q24 0 45 -8.5t36.5 -23t24.5 -34.5t9 -42q0 -23 -9 -42.5t-24.5 -34t-36.5 -23t-45 -8.5t-44.5 8.5t-35.5 23t-24 34t-9 42.5q0 22 9 42t24 34.5t35.5 23t44.5 8.5zM67 709v140h333v-708h137v-141h-470v141h137v568h-137zM21 960q4 54 25.5 98t56 75.5t81 48.5
t100.5 17q55 0 101.5 -17.5t81 -49t56 -75.5t26.5 -97h-133q-8 57 -43 88t-89 31q-57 0 -90.5 -31t-43.5 -88h-129z" />
    <glyph glyph-name="uni020C" unicode="&#x20c;" horiz-adv-x="1439" 
d="M720 1075q-87 0 -161.5 -34.5t-129 -96.5t-85.5 -148.5t-31 -190.5q0 -97 29 -181.5t82.5 -147.5t128 -99t166.5 -36q89 0 164 34.5t129 96.5t84.5 147t30.5 187q0 100 -29.5 186t-83 149t-128.5 98.5t-166 35.5zM719 1233q154 0 274 -49.5t203 -135t126.5 -199.5
t43.5 -243q0 -127 -43.5 -240.5t-126 -199t-202.5 -135.5t-274 -50q-155 0 -274.5 49.5t-202 135t-125 199.5t-42.5 242q0 129 43 243t125.5 199t202 134.5t272.5 49.5zM587 1321l-214 311h252l121 -311h-159zM908 1321l-215 311h252l121 -311h-158z" />
    <glyph glyph-name="uni020D" unicode="&#x20d;" horiz-adv-x="1029" 
d="M760 424q0 63 -17 116t-49 91t-77.5 59t-103.5 21q-57 0 -102.5 -21t-77 -59t-48.5 -91t-17 -117q0 -63 17 -116t49 -90.5t77.5 -58.5t102.5 -21t102.5 21t77.5 59t49 90.5t17 116.5zM967 424q0 -95 -32.5 -176t-92 -140t-143 -93t-186.5 -34q-101 0 -184 33.5t-142 92.5
t-91.5 140t-32.5 177q0 97 33.5 178.5t93.5 140t143 91t182 32.5q101 0 184 -33t142.5 -92t92.5 -140t33 -177zM382 955l-214 311h252l121 -311h-159zM703 955l-215 311h252l121 -311h-158z" />
    <glyph glyph-name="uni020E" unicode="&#x20e;" horiz-adv-x="1439" 
d="M720 1075q-87 0 -161.5 -34.5t-129 -96.5t-85.5 -148.5t-31 -190.5q0 -97 29 -181.5t82.5 -147.5t128 -99t166.5 -36q89 0 164 34.5t129 96.5t84.5 147t30.5 187q0 100 -29.5 186t-83 149t-128.5 98.5t-166 35.5zM719 1233q154 0 274 -49.5t203 -135t126.5 -199.5
t43.5 -243q0 -127 -43.5 -240.5t-126 -199t-202.5 -135.5t-274 -50q-155 0 -274.5 49.5t-202 135t-125 199.5t-42.5 242q0 129 43 243t125.5 199t202 134.5t272.5 49.5zM455 1326q4 54 25.5 98t56 75.5t81 48.5t100.5 17q55 0 101.5 -17.5t81 -49t56 -75.5t26.5 -97h-133
q-8 57 -43 88t-89 31q-57 0 -90.5 -31t-43.5 -88h-129z" />
    <glyph glyph-name="uni020F" unicode="&#x20f;" horiz-adv-x="1029" 
d="M760 424q0 63 -17 116t-49 91t-77.5 59t-103.5 21q-57 0 -102.5 -21t-77 -59t-48.5 -91t-17 -117q0 -63 17 -116t49 -90.5t77.5 -58.5t102.5 -21t102.5 21t77.5 59t49 90.5t17 116.5zM967 424q0 -95 -32.5 -176t-92 -140t-143 -93t-186.5 -34q-101 0 -184 33.5t-142 92.5
t-91.5 140t-32.5 177q0 97 33.5 178.5t93.5 140t143 91t182 32.5q101 0 184 -33t142.5 -92t92.5 -140t33 -177zM250 960q4 54 25.5 98t56 75.5t81 48.5t100.5 17q55 0 101.5 -17.5t81 -49t56 -75.5t26.5 -97h-133q-8 57 -43 88t-89 31q-57 0 -90.5 -31t-43.5 -88h-129z" />
    <glyph glyph-name="uni0210" unicode="&#x210;" horiz-adv-x="1220" 
d="M443 702h199q63 0 104.5 17t66.5 44t35 61t10 69q0 37 -13 70t-38.5 58t-63 39.5t-87.5 14.5h-213v-373zM1222 141v-141h-324l-295 557h-160v-416h160v-141h-548v141h170v934h-170v140h599q92 0 169.5 -18t134 -56.5t88 -99t31.5 -145.5q0 -122 -65 -201t-203 -114
l242 -440h171zM477 1321l-214 311h252l121 -311h-159zM798 1321l-215 311h252l121 -311h-158z" />
    <glyph glyph-name="uni0211" unicode="&#x211;" horiz-adv-x="806" 
d="M602 141v-141h-541v141h165v568h-165v140h335l1 -192q26 58 58.5 98t72 65t85.5 35.5t99 10.5q17 0 38 -2t31 -3l-2 -180l-9 0.5t-20.5 1t-22.5 1t-17 0.5q-78 0 -132.5 -20t-89 -59t-50.5 -96t-16 -130v-238h180zM270 955l-214 311h252l121 -311h-159zM591 955l-215 311
h252l121 -311h-158z" />
    <glyph glyph-name="uni0212" unicode="&#x212;" horiz-adv-x="1220" 
d="M443 702h199q63 0 104.5 17t66.5 44t35 61t10 69q0 37 -13 70t-38.5 58t-63 39.5t-87.5 14.5h-213v-373zM1222 141v-141h-324l-295 557h-160v-416h160v-141h-548v141h170v934h-170v140h599q92 0 169.5 -18t134 -56.5t88 -99t31.5 -145.5q0 -122 -65 -201t-203 -114
l242 -440h171zM346 1326q4 54 25.5 98t56 75.5t81 48.5t100.5 17q55 0 101.5 -17.5t81 -49t56 -75.5t26.5 -97h-133q-8 57 -43 88t-89 31q-57 0 -90.5 -31t-43.5 -88h-129z" />
    <glyph glyph-name="uni0213" unicode="&#x213;" horiz-adv-x="806" 
d="M602 141v-141h-541v141h165v568h-165v140h335l1 -192q26 58 58.5 98t72 65t85.5 35.5t99 10.5q17 0 38 -2t31 -3l-2 -180l-9 0.5t-20.5 1t-22.5 1t-17 0.5q-78 0 -132.5 -20t-89 -59t-50.5 -96t-16 -130v-238h180zM139 960q4 54 25.5 98t56 75.5t81 48.5t100.5 17
q55 0 101.5 -17.5t81 -49t56 -75.5t26.5 -97h-133q-8 57 -43 88t-89 31q-57 0 -90.5 -31t-43.5 -88h-129z" />
    <glyph glyph-name="uni0214" unicode="&#x214;" horiz-adv-x="1265" 
d="M639 -19q-138 0 -226 35t-139 97t-70 145.5t-19 181.5v635h-152v140h508v-140h-138v-669q0 -63 13.5 -112.5t42.5 -83t75 -51.5t111 -18q68 0 115.5 17.5t77 52t43 85t13.5 115.5v664h-136v140h473v-140h-154v-655q0 -116 -30.5 -199t-87.5 -136.5t-138 -78.5t-182 -25z
M500 1321l-214 311h252l121 -311h-159zM821 1321l-215 311h252l121 -311h-158z" />
    <glyph glyph-name="uni0215" unicode="&#x215;" horiz-adv-x="1087" 
d="M1040 141v-141h-341l-4 96q-66 -57 -134.5 -86t-140.5 -29q-69 0 -119.5 20t-83.5 57t-48.5 90.5t-15.5 120.5v440h-127v140h324v-557q0 -76 26.5 -115.5t94.5 -39.5q61 0 118.5 33.5t105.5 88.5v450h-141v140h339v-708h147zM411 955l-214 311h252l121 -311h-159z
M732 955l-215 311h252l121 -311h-158z" />
    <glyph glyph-name="uni0216" unicode="&#x216;" horiz-adv-x="1265" 
d="M639 -19q-138 0 -226 35t-139 97t-70 145.5t-19 181.5v635h-152v140h508v-140h-138v-669q0 -63 13.5 -112.5t42.5 -83t75 -51.5t111 -18q68 0 115.5 17.5t77 52t43 85t13.5 115.5v664h-136v140h473v-140h-154v-655q0 -116 -30.5 -199t-87.5 -136.5t-138 -78.5t-182 -25z
M368 1326q4 54 25.5 98t56 75.5t81 48.5t100.5 17q55 0 101.5 -17.5t81 -49t56 -75.5t26.5 -97h-133q-8 57 -43 88t-89 31q-57 0 -90.5 -31t-43.5 -88h-129z" />
    <glyph glyph-name="uni0217" unicode="&#x217;" horiz-adv-x="1087" 
d="M1040 141v-141h-341l-4 96q-66 -57 -134.5 -86t-140.5 -29q-69 0 -119.5 20t-83.5 57t-48.5 90.5t-15.5 120.5v440h-127v140h324v-557q0 -76 26.5 -115.5t94.5 -39.5q61 0 118.5 33.5t105.5 88.5v450h-141v140h339v-708h147zM279 960q4 54 25.5 98t56 75.5t81 48.5
t100.5 17q55 0 101.5 -17.5t81 -49t56 -75.5t26.5 -97h-133q-8 57 -43 88t-89 31q-57 0 -90.5 -31t-43.5 -88h-129z" />
    <glyph glyph-name="Scommaaccent" unicode="&#x218;" horiz-adv-x="1008" 
d="M551 -19q-166 0 -285 108l-1 -89h-171v407h171v-110q48 -77 109 -116.5t148 -39.5q47 0 85.5 13.5t66 37.5t42.5 57t15 72q0 52 -24 87t-65 60t-97 44t-120 38q-67 20 -128.5 46t-108 66.5t-74.5 98.5t-28 141q0 82 28.5 144t79 103.5t119 62.5t149.5 21q71 0 134 -24
t113 -71v77h169v-351h-169v97q-45 57 -99.5 85t-126.5 28q-48 0 -85 -12t-63 -32t-39.5 -47.5t-13.5 -58.5q0 -53 28.5 -87t74.5 -58.5t105.5 -43t121 -39.5t121 -48t105.5 -68.5t74.5 -101.5t28.5 -146q0 -83 -31.5 -148t-85 -110t-124.5 -69t-149 -24zM430 -144h246
q1 -50 3 -94q2 -38 3 -74t1 -53q0 -72 -12.5 -126.5t-42.5 -91t-79.5 -55t-122.5 -19.5v102q36 7 61 19t41 32t23 49t7 70h-128v241z" />
    <glyph glyph-name="scommaaccent" unicode="&#x219;" horiz-adv-x="873" 
d="M87 283h156v-67q28 -47 82.5 -72t126.5 -25q85 0 131 26.5t46 78.5q0 33 -23.5 53.5t-62.5 34.5t-88.5 24.5t-101.5 23.5t-101.5 31t-88.5 47.5t-62.5 73.5t-23.5 109q0 51 22.5 96t63.5 78t99 52t129 19q59 0 114 -17.5t95 -52.5v53h162v-264h-162v69q-31 36 -76 55.5
t-111 19.5q-74 0 -116.5 -25.5t-42.5 -71.5q0 -31 24 -50.5t63 -32.5t89 -23t102 -23t102 -32t89 -50t63 -77.5t24 -113.5q0 -55 -23 -101t-66.5 -79t-105.5 -51t-139 -18q-79 0 -133.5 17t-99.5 53v-51h-156v283zM339 -144h246q1 -50 3 -94q2 -38 3 -74t1 -53
q0 -72 -12.5 -126.5t-42.5 -91t-79.5 -55t-122.5 -19.5v102q36 7 61 19t41 32t23 49t7 70h-128v241z" />
    <glyph glyph-name="uni021A" unicode="&#x21a;" horiz-adv-x="1132" 
d="M1085 1215v-411h-160v271h-248v-934h176v-141h-573v141h178v934h-251v-271h-160v411h1038zM447 -144h246q1 -50 3 -94q2 -38 3 -74t1 -53q0 -72 -12.5 -126.5t-42.5 -91t-79.5 -55t-122.5 -19.5v102q36 7 61 19t41 32t23 49t7 70h-128v241z" />
    <glyph glyph-name="uni021B" unicode="&#x21b;" horiz-adv-x="596" 
d="M36 709v140h126v262l195 45v-307h203v-140h-203v-450q0 -64 14 -91t53 -27h145v-141h-184q-119 0 -172 64t-53 184v461h-124zM195 -144h246q1 -50 3 -94q2 -38 3 -74t1 -53q0 -72 -12.5 -126.5t-42.5 -91t-79.5 -55t-122.5 -19.5v102q36 7 61 19t41 32t23 49t7 70h-128
v241z" />
    <glyph glyph-name="uni0237" unicode="&#x237;" horiz-adv-x="523" 
d="M14 709v140h365v-802q0 -87 -9 -158.5t-42.5 -122.5t-99.5 -79.5t-180 -28.5h-96v156h96q39 0 64.5 10t41 31t21.5 54t6 78v722h-167z" />
    <glyph glyph-name="circumflex" unicode="&#x2c6;" horiz-adv-x="593" 
d="M18 959l134 329h283l140 -329h-180l-101 252l-101 -252h-175z" />
    <glyph glyph-name="caron" unicode="&#x2c7;" horiz-adv-x="593" 
d="M145 1171l154 -154l152 154h104l-159 -259h-196l-162 259h107z" />
    <glyph glyph-name="breve" unicode="&#x2d8;" horiz-adv-x="584" 
d="M150 1199q10 -57 43.5 -88.5t90.5 -31.5q54 0 89 31.5t43 88.5h133q-5 -54 -26.5 -98t-56 -75.5t-81 -48.5t-101.5 -17q-54 0 -100.5 17t-81 48.5t-56 75.5t-25.5 98h129z" />
    <glyph glyph-name="dotaccent" unicode="&#x2d9;" horiz-adv-x="535" 
d="M357 1215v-185h-187v185h187z" />
    <glyph glyph-name="ring" unicode="&#x2da;" horiz-adv-x="565" 
d="M281 1244q44 0 78 -13.5t57.5 -36.5t35.5 -53t12 -63q0 -34 -12.5 -65t-36 -55t-57.5 -38t-77 -14t-76.5 14t-57 38t-36 55t-12.5 65q0 33 12 63t35.5 53t57 36.5t77.5 13.5zM281 1175q-50 0 -76.5 -30t-26.5 -69t26.5 -69t76.5 -30t77 30t27 69t-27 69t-77 30z" />
    <glyph glyph-name="ogonek" unicode="&#x2db;" horiz-adv-x="587" 
d="M311 0q-26 -36 -35.5 -65t-9.5 -61q0 -107 98 -107q23 0 43 4.5t44 15.5v-103q-41 -20 -70 -28.5t-64 -8.5q-39 0 -72 13t-57 36t-37.5 55.5t-13.5 71.5q0 19 2.5 38.5t9.5 40.5t18.5 45t29.5 53h114z" />
    <glyph glyph-name="tilde" unicode="&#x2dc;" horiz-adv-x="587" 
d="M1 973q4 55 19 94.5t37 65t50 37.5t58 12q35 0 70 -10.5t68 -23t63.5 -23t57.5 -10.5q44 0 56 62h106q-7 -100 -50 -156.5t-117 -56.5q-38 0 -73 11t-67 23.5t-61 23.5t-55 11t-37.5 -15.5t-16.5 -44.5h-108z" />
    <glyph glyph-name="hungarumlaut" unicode="&#x2dd;" horiz-adv-x="677" 
d="M329 955l120 311h253l-215 -311h-158zM8 955l121 311h253l-215 -311h-159z" />
    <glyph glyph-name="uni0307" unicode="&#x307;" horiz-adv-x="535" 
d="M357 1215v-185h-187v185h187z" />
    <glyph glyph-name="uni030F" unicode="&#x30f;" horiz-adv-x="677" 
d="M214 955l-214 311h252l121 -311h-159zM535 955l-215 311h252l121 -311h-158z" />
    <glyph glyph-name="uni0311" unicode="&#x311;" horiz-adv-x="584" 
d="M21 960q4 54 25.5 98t56 75.5t81 48.5t100.5 17q55 0 101.5 -17.5t81 -49t56 -75.5t26.5 -97h-133q-8 57 -43 88t-89 31q-57 0 -90.5 -31t-43.5 -88h-129z" />
    <glyph glyph-name="uni0326" unicode="&#x326;" horiz-adv-x="496" 
d="M134 -144h246q1 -50 3 -94q2 -38 3 -74t1 -53q0 -72 -12.5 -126.5t-42.5 -91t-79.5 -55t-122.5 -19.5v102q36 7 61 19t41 32t23 49t7 70h-128v241z" />
    <glyph glyph-name="pi" unicode="&#x3c0;" horiz-adv-x="1094" 
d="M1018 645h-210q-5 -57 -8.5 -118t-5.5 -117.5t-3 -104.5t-1 -79q0 -64 24.5 -89t60.5 -25q23 0 44.5 5t37.5 11v-98q-20 -19 -55 -31t-80 -12q-43 0 -77 10t-57.5 32t-36 58t-12.5 87q0 40 4.5 96.5t12 119.5t17 129t19.5 126h-265l-20 -401q-3 -63 -15 -109t-37.5 -76
t-66.5 -44.5t-100 -14.5h-106v82q25 0 54.5 10t56.5 34t48 64.5t30 102.5l48 352h-73q-46 0 -69.5 -28t-30.5 -72h-93q0 62 14.5 117t46 96.5t80 66t116.5 24.5h708v-204z" />
    <glyph glyph-name="endash" unicode="&#x2013;" horiz-adv-x="1001" 
d="M937 317v-124h-873v124h873z" />
    <glyph glyph-name="emdash" unicode="&#x2014;" horiz-adv-x="1823" 
d="M1759 317v-124h-1695v124h1695z" />
    <glyph glyph-name="quoteleft" unicode="&#x2018;" horiz-adv-x="382" 
d="M289 787h-203v213q0 55 10.5 98.5t35 73t64 45.5t97.5 16v-96q-26 -6 -44.5 -15t-30 -24.5t-17 -38.5t-5.5 -56h93v-216z" />
    <glyph glyph-name="quoteright" unicode="&#x2019;" horiz-adv-x="364" 
d="M88 1215h203v-212q0 -56 -10.5 -99t-34.5 -73t-63.5 -46t-97.5 -17v97q27 5 45 14t29.5 25t17 39t6.5 57h-95v215z" />
    <glyph glyph-name="quotesinglbase" unicode="&#x201a;" horiz-adv-x="389" 
d="M88 203h203v-212q0 -56 -10.5 -99t-34.5 -73t-63.5 -46t-97.5 -17v97q27 5 45 14t29.5 25t17 39t6.5 57h-95v215z" />
    <glyph glyph-name="quotedblleft" unicode="&#x201c;" horiz-adv-x="691" 
d="M594 787h-202v213q0 55 10.5 98.5t35 73t64 45.5t97.5 16v-96q-26 -6 -44.5 -15t-30 -24.5t-17 -38.5t-5.5 -56h92v-216zM289 787h-203v213q0 55 10.5 98.5t35 73t64 45.5t97.5 16v-96q-26 -6 -44.5 -15t-30 -24.5t-17 -38.5t-5.5 -56h93v-216z" />
    <glyph glyph-name="quotedblright" unicode="&#x201d;" horiz-adv-x="677" 
d="M88 1215h203v-212q0 -56 -10.5 -99t-34.5 -73t-63.5 -46t-97.5 -17v97q27 5 45 14t29.5 25t17 39t6.5 57h-95v215zM387 1215h203v-212q0 -56 -10.5 -99t-34.5 -73t-63.5 -46t-97.5 -17v97q27 5 45 14t29.5 25t17 39t6.5 57h-95v215z" />
    <glyph glyph-name="quotedblbase" unicode="&#x201e;" horiz-adv-x="785" 
d="M483 203h203v-212q0 -56 -10.5 -99t-34.5 -73t-63.5 -46t-97.5 -17v97q27 5 45 14t29.5 25t16.5 39t6 57h-94v215zM123 203h203v-212q0 -56 -10.5 -99t-34.5 -73t-63.5 -46t-97.5 -17v97q27 5 45 14t29.5 25t16.5 39t6 57h-94v215z" />
    <glyph glyph-name="dagger" unicode="&#x2020;" horiz-adv-x="833" 
d="M539 576q-15 -66 -29.5 -146t-26 -178t-18.5 -216.5t-7 -262.5h-88q0 142 -7 260t-18 216.5t-24.5 178.5t-27.5 148l77 189l-298 -47v195l298 -44l-60 366h212l-64 -366l299 44v-195l-299 47z" />
    <glyph glyph-name="daggerdbl" unicode="&#x2021;" horiz-adv-x="853" 
d="M478 141l278 48v-195l-298 43l64 -264h-213l61 264l-298 -43v195l278 -48l12 367l-12 357l-278 -47v194l298 -43l-61 264h213l-64 -264l298 43v-194l-278 47l-13 -359z" />
    <glyph glyph-name="bullet" unicode="&#x2022;" horiz-adv-x="559" 
d="M280 754q42 0 78.5 -15t63.5 -40.5t43 -61t16 -75.5t-16 -75.5t-43 -61.5t-63.5 -41.5t-78.5 -15.5t-78.5 15.5t-63.5 41.5t-42.5 61.5t-15.5 75.5t15.5 75.5t42.5 61t63.5 40.5t78.5 15z" />
    <glyph glyph-name="ellipsis" unicode="&#x2026;" horiz-adv-x="1501" 
d="M127 244q20 0 54.5 -0.5t71.5 -1.5t70.5 -2t51.5 -2q0 -18 -0.5 -52t-2 -70t-3 -68.5t-2.5 -48.5q-20 0 -54.5 0.5t-71 1.5t-70 2t-51.5 3q0 18 0.5 51.5t1.5 69.5t2 68.5t3 48.5zM627 244q20 0 54.5 -0.5t71.5 -1.5t70.5 -2t51.5 -2q0 -18 -0.5 -52t-1.5 -70t-2.5 -68.5
t-3.5 -48.5q-20 0 -54.5 0.5t-71 1.5t-70 2t-51.5 3q0 18 0.5 51.5t1.5 69.5t2 68.5t3 48.5zM1127 244q21 0 55.5 -0.5t71 -1.5t70 -2t51.5 -2q0 -18 -0.5 -52t-1.5 -70t-2.5 -68.5t-2.5 -48.5q-21 0 -55.5 0.5t-71 1.5t-70 2t-51.5 3q0 18 0.5 51.5t1.5 69.5t2 68.5t3 48.5
z" />
    <glyph glyph-name="guilsinglleft" unicode="&#x2039;" horiz-adv-x="723" 
d="M133 606l313 357h144l-207 -410l207 -410h-144l-313 357v106z" />
    <glyph glyph-name="guilsinglright" unicode="&#x203a;" horiz-adv-x="723" 
d="M590 500l-314 -357h-143l207 410l-207 410h143l314 -357v-106z" />
    <glyph glyph-name="fraction" unicode="&#x2044;" horiz-adv-x="865" 
d="M668 1246l107 -29l-573 -1252l-108 29z" />
    <glyph glyph-name="uni2074" unicode="&#x2074;" horiz-adv-x="666" 
d="M606 107v-107h-339v107h118v135h-356v121l345 502h137v-520h124v-103h-124v-135h95zM385 345v344l-233 -344h233z" />
    <glyph glyph-name="Euro" unicode="&#x20ac;" horiz-adv-x="1284" 
d="M187 549q-1 11 -1.5 28t-0.5 29q0 20 0.5 38.5t2.5 38.5h-152v123h171q22 94 66.5 172.5t109 135t148 88t183.5 31.5q53 0 99.5 -10.5t86.5 -29t73.5 -43.5t61.5 -53v118h163v-383h-155q-49 130 -127 186.5t-173 56.5q-55 0 -102 -19.5t-84.5 -54.5t-65.5 -84.5
t-44 -110.5h288v-123h-310q-3 -36 -3 -74v-30.5t2 -29.5h311v-123h-291q15 -63 41.5 -115.5t63.5 -90t85.5 -58.5t107.5 -21q55 0 106.5 17t94 53.5t74 93t46.5 134.5l172 -81q-30 -109 -81.5 -181t-117.5 -115.5t-143.5 -61.5t-159.5 -19q-111 1 -199.5 34.5t-154.5 92.5
t-109.5 140.5t-64.5 177.5h-169v123h151z" />
    <glyph glyph-name="trademark" unicode="&#x2122;" horiz-adv-x="2069" 
d="M813 1215v-299h-125v187h-156v-542h121v-112h-409v112h123v542h-158v-187h-126v299h730zM980 1103h-108v112h327l217 -520l222 520h342v-112h-108v-542h108v-112h-365v112h101v498l-270 -610h-64l-278 609v-497h101v-112h-333v112h108v542z" />
    <glyph glyph-name="partialdiff" unicode="&#x2202;" horiz-adv-x="930" 
d="M554 1125q-42 0 -73.5 -18t-53 -46t-32 -62t-10.5 -66q-50 0 -84.5 10t-56.5 27t-31.5 39t-9.5 46q0 39 17.5 72t50.5 56.5t81 36.5t110 13q97 0 170.5 -35t123 -101t74 -161t24.5 -216q0 -75 -11.5 -158.5t-35.5 -165.5t-62.5 -157t-92.5 -132.5t-125 -91.5t-160 -34
q-81 0 -136.5 24.5t-89.5 65.5t-49 94.5t-15 110.5q0 45 11 98.5t33.5 107.5t58.5 104t86 89t115 62.5t146 23.5t133 -28.5t81 -84.5h8q3 17 4.5 40t1.5 37q0 87 -13 160.5t-38 126.5t-63 83t-87 30zM460 92q44 0 86.5 34.5t78.5 92t62.5 132.5t38.5 157q-8 30 -19.5 57
t-28.5 48t-40 33t-53 12q-44 0 -79.5 -19t-63.5 -51t-48.5 -73t-33.5 -84.5t-19.5 -87t-6.5 -79.5q0 -80 33 -126t93 -46z" />
    <glyph glyph-name="uni2206" unicode="&#x2206;" horiz-adv-x="1147" 
d="M1066 0h-986v106l384 1064h234l368 -1052v-118zM813 130l-211 616q-26 72 -46.5 140t-34.5 128q-13 -59 -32 -118.5t-45 -135.5l-218 -630h587z" />
    <glyph glyph-name="product" unicode="&#x220f;" horiz-adv-x="1043" 
d="M568 0v67h54q13 0 25 2.5t20.5 11t13.5 24.5t5 43v991h-326v-991q0 -27 5 -43t13.5 -24.5t20 -11t25.5 -2.5h53v-67h-431v67h52q14 0 25.5 2.5t20 11t13.5 24.5t5 43v924q-1 25 -6.5 40t-14 23.5t-20 11t-23.5 2.5h-52v66h954v-66h-53q-13 0 -24.5 -2.5t-20 -11
t-13.5 -24.5t-5 -43v-926q1 -25 6.5 -40t13.5 -22.5t19 -10t24 -2.5h53v-67h-432z" />
    <glyph glyph-name="summation" unicode="&#x2211;" horiz-adv-x="984" 
d="M716 165q30 0 49.5 9.5t31.5 26t18 39.5t9 49l5 38h74v-327h-842v99l394 508l-366 482v126h752v-238h-68l-8 55q-5 51 -31 78t-86 27h-387l322 -425v-70l-371 -477h504z" />
    <glyph glyph-name="minus" unicode="&#x2212;" horiz-adv-x="930" 
d="M876 863v-141h-820v141h820z" />
    <glyph glyph-name="radical" unicode="&#x221a;" horiz-adv-x="1071" 
d="M657 -14h-141l-287 802h-166v123h302l233 -667l436 1429h135z" />
    <glyph glyph-name="infinity" unicode="&#x221e;" horiz-adv-x="1448" 
d="M1376 592q0 -80 -23 -151t-64.5 -124.5t-100 -84.5t-129.5 -31q-95 0 -184.5 58.5t-163.5 191.5q-63 -121 -145 -182.5t-173 -61.5q-71 0 -129.5 27.5t-101.5 78t-66.5 123t-23.5 162.5q0 82 23 153.5t65 124t101 83t132 30.5q46 0 93 -13.5t91.5 -43t85 -75.5t74.5 -112
q63 120 142 179t182 59q70 0 128 -28t99.5 -79t64.5 -123.5t23 -160.5zM1051 846q-73 0 -131 -62.5t-117 -191.5q53 -127 112 -190.5t138 -63.5q44 0 79.5 20t60.5 55t38.5 81.5t13.5 99.5t-14 99t-39.5 80t-61.5 53.5t-79 19.5zM397 344q69 0 130 61.5t118 192.5
q-53 127 -113 190.5t-139 63.5q-43 0 -77.5 -20t-59 -55t-38 -81.5t-13.5 -99.5q0 -51 11.5 -96.5t35.5 -80t60 -55t85 -20.5z" />
    <glyph glyph-name="integral" unicode="&#x222b;" horiz-adv-x="890" 
d="M219 -348q-58 0 -99.5 11t-68 29.5t-39 43.5t-12.5 53q0 22 8 43t28 37.5t53.5 26t83.5 9.5q0 -46 6.5 -77.5t18 -50.5t27 -27t33.5 -8q16 0 31 10t26 35t17.5 67t6.5 107q0 59 -6.5 134t-14 152.5t-14 150.5t-6.5 128q0 76 2 157.5t12.5 160.5t32 149.5t60 123.5
t96.5 84.5t142 31.5q106 0 159.5 -35t53.5 -91q0 -23 -8.5 -45t-28.5 -38.5t-53 -26.5t-83 -10q0 77 -21 116.5t-57 39.5q-19 0 -34.5 -10.5t-26 -35.5t-16 -67t-5.5 -105q0 -39 4.5 -95.5t10.5 -121t10.5 -132t4.5 -127.5q0 -91 -1.5 -185.5t-11 -183t-29.5 -166.5
t-57 -136.5t-94 -92t-141 -33.5z" />
    <glyph glyph-name="approxequal" unicode="&#x2248;" horiz-adv-x="1149" 
d="M541 492q-37 16 -65 26.5t-50.5 17t-43 9t-42.5 2.5q-28 0 -58 -9t-59.5 -25.5t-57.5 -38.5t-52 -48v158q99 108 247 108q29 0 54 -2.5t52.5 -9t61 -19t80.5 -32.5q37 -16 65 -27t51 -17.5t43 -9t42 -2.5q28 0 58 9.5t59.5 26t57.5 38.5t52 47v-157q-97 -109 -248 -109
q-29 0 -53.5 2.5t-52 9.5t-61 19.5t-80.5 32.5zM541 834q-37 16 -65 26.5t-50.5 17t-43 9t-42.5 2.5q-28 0 -58 -9t-59.5 -25.5t-57.5 -38.5t-52 -48v158q99 108 247 108q29 0 54 -2.5t52.5 -9t61 -19t80.5 -32.5q37 -16 65 -27t51 -17.5t43 -9t42 -2.5q28 0 58 9.5t59.5 26
t57.5 38.5t52 47v-157q-97 -109 -248 -109q-29 0 -53.5 2.5t-52 9.5t-61 19.5t-80.5 32.5z" />
    <glyph glyph-name="notequal" unicode="&#x2260;" horiz-adv-x="1145" 
d="M569 1001l56 211h143l-55 -211h303v-143h-340l-66 -254h406v-143h-443l-53 -211h-145l53 211h-299v143h336l67 254h-403v143h440z" />
    <glyph glyph-name="lessequal" unicode="&#x2264;" horiz-adv-x="1145" 
d="M1012 0h-879v145h879v-145zM133 690v84l879 479v-161l-660 -361l660 -356v-162z" />
    <glyph glyph-name="greaterequal" unicode="&#x2265;" horiz-adv-x="1145" 
d="M1012 0h-879v145h879v-145zM133 213v162l660 356l-660 361v161l879 -479v-84z" />
    <glyph glyph-name="lozenge" unicode="&#x25ca;" horiz-adv-x="1122" 
d="M608 0h-94l-459 729l459 733h94l459 -731zM563 1274l-334 -543l334 -551l330 551z" />
    <glyph glyph-name="uniFB01" unicode="&#xfb01;" horiz-adv-x="1142" 
d="M387 709v-568h158v-141h-482v141h126v568h-130v140h130v102q0 63 14.5 115t47 89t83.5 57.5t125 20.5q44 0 86 -9.5t74.5 -35t52 -69t19.5 -110.5h-155q0 48 -22 67.5t-48 19.5q-44 0 -61.5 -34t-17.5 -114v-99h603v-708h137v-141h-470v141h137v568h-407zM906 1227
q24 0 45 -8.5t36.5 -23t24.5 -34.5t9 -42q0 -23 -9 -42.5t-24.5 -34t-36.5 -23t-45 -8.5t-44.5 8.5t-35.5 23t-24 34t-9 42.5q0 22 9 42t24 34.5t35.5 23t44.5 8.5z" />
    <glyph glyph-name="uniFB02" unicode="&#xfb02;" horiz-adv-x="1137" 
d="M627 0v141h146v934h-307q-22 0 -37 -5t-24.5 -19t-13.5 -38.5t-4 -64.5v-99h155v-140h-155v-568h158v-141h-482v141h126v568h-130v140h130v102q0 63 14.5 112t47 83t83.5 51.5t125 17.5h510v-1074h135v-141h-477z" />
    <glyph glyph-name="glyph316" horiz-adv-x="593" 
d="M58 896l98 275h275l104 -275h-148l-93 230l-93 -230h-143z" />
    <glyph glyph-name="glyph317" horiz-adv-x="458" 
d="M104 -144h246q1 -50 3 -94q2 -38 3 -74t1 -53q0 -72 -12.5 -126.5t-42.5 -91t-79.5 -55t-122.5 -19.5v102q36 7 61 19t41 32t23 49t7 70h-128v241z" />
    <glyph glyph-name="glyph318" horiz-adv-x="430" 
 />
    <glyph glyph-name="glyph319" 
 />
    <glyph glyph-name="glyph320" horiz-adv-x="562" 
d="M292 914l-187 257h207l99 -257h-119z" />
    <glyph glyph-name="glyph321" horiz-adv-x="562" 
d="M165 914l99 257h207l-187 -257h-119z" />
    <glyph glyph-name="glyph322" horiz-adv-x="673" 
d="M422 1215h187v-185h-187v185zM244 1215v-185h-187v185h187z" />
    <glyph glyph-name="glyph323" horiz-adv-x="593" 
d="M145 1171l154 -154l152 154h104l-159 -259h-196l-162 259h107z" />
    <glyph glyph-name="glyph324" horiz-adv-x="565" 
d="M281 1244q44 0 78 -13.5t57.5 -36.5t35.5 -53t12 -63q0 -34 -12.5 -65t-36 -55t-57.5 -38t-77 -14t-76.5 14t-57 38t-36 55t-12.5 65q0 33 12 63t35.5 53t57 36.5t77.5 13.5zM281 1175q-50 0 -76.5 -30t-26.5 -69t26.5 -69t76.5 -30t77 30t27 69t-27 69t-77 30z" />
    <glyph glyph-name="glyph325" horiz-adv-x="587" 
d="M-11 980q5 55 21 94.5t39.5 65t53 37.5t62.5 12q38 0 75.5 -11t73 -24t68 -24t61.5 -11q62 0 77 65h78q-8 -100 -54 -156.5t-125 -56.5q-42 0 -80.5 11t-73.5 24.5t-67 24.5t-61 11q-32 0 -47 -16t-21 -46h-80z" />
    <glyph glyph-name="glyph326" horiz-adv-x="535" 
d="M357 1215v-185h-187v185h187z" />
    <glyph glyph-name="glyph327" horiz-adv-x="1024" 
 />
    <glyph glyph-name="glyph328" horiz-adv-x="1024" 
 />
    </font>
</defs>
</svg>
